<?xml version="1.0" encoding="UTF-8"?>
<svg version="1.1" xmlns="http://www.w3.org/2000/svg" width="322" height="180">
<path d="M0 0 C106.26 0 212.52 0 322 0 C322 59.4 322 118.8 322 180 C215.74 180 109.48 180 0 180 C0 120.6 0 61.2 0 0 Z " fill="#FEFEFE" transform="translate(0,0)"/>
<path d="M0 0 C2.625 0.3125 2.625 0.3125 4.375 2.125 C7.51941975 7.62773456 6.69147978 13.12988053 6.625 19.3125 C11.245 19.3125 15.865 19.3125 20.625 19.3125 C19.81119792 21.52604167 18.99739583 23.73958333 18.18359375 25.953125 C17.56321003 28.57348702 17.6801734 29.8169254 18.625 32.3125 C19.94905988 34.31865134 21.28168346 36.31919158 22.625 38.3125 C22.625 38.9725 22.625 39.6325 22.625 40.3125 C23.73777817 40.31027939 24.85055634 40.30805878 25.99705505 40.30577087 C36.4599213 40.28554045 46.92278361 40.27052834 57.38566494 40.26068783 C62.76533762 40.25545875 68.14499458 40.24836065 73.5246582 40.23706055 C78.71174843 40.22623255 83.89882349 40.22022335 89.08592415 40.21762276 C91.0695628 40.21576835 93.05320058 40.21214744 95.03683281 40.20676994 C97.80509136 40.19956068 100.57328638 40.19850901 103.34155273 40.19897461 C104.17017319 40.19537933 104.99879364 40.19178406 105.8525238 40.18807983 C111.51094784 40.19844784 111.51094784 40.19844784 112.625 41.3125 C112.625 44.6125 112.625 47.9125 112.625 51.3125 C86.885 51.6425 61.145 51.9725 34.625 52.3125 C60.365 52.3125 86.105 52.3125 112.625 52.3125 C112.8125 78.3125 112.8125 78.3125 112.83276367 86.4765625 C112.85922639 88.63023303 112.88750728 90.78388232 112.91796875 92.9375 C112.91398071 94.0409375 112.90999268 95.144375 112.90588379 96.28125 C113.0402228 103.61302794 114.31409483 109.00159483 119.625 114.3125 C119.66563832 115.97867115 119.667721 117.64638095 119.625 119.3125 C118.965 119.3125 118.305 119.3125 117.625 119.3125 C117.295 118.6525 116.965 117.9925 116.625 117.3125 C114.60830173 116.17899466 114.60830173 116.17899466 112.625 115.3125 C112.625 113.6625 112.625 112.0125 112.625 110.3125 C112.00625 110.168125 111.3875 110.02375 110.75 109.875 C108.625 109.3125 108.625 109.3125 106.625 108.3125 C108.02259905 111.85768884 108.02259905 111.85768884 109.625 115.3125 C108.820625 115.60125 108.01625 115.89 107.1875 116.1875 C104.4923532 117.04512568 104.4923532 117.04512568 103.625 119.3125 C100.97639573 119.90605614 98.33302678 120.05459269 95.625 120.3125 C95.295 121.9625 94.965 123.6125 94.625 125.3125 C93.965 125.3125 93.305 125.3125 92.625 125.3125 C92.625 124.6525 92.625 123.9925 92.625 123.3125 C91.965 123.3125 91.305 123.3125 90.625 123.3125 C90.955 125.9525 91.285 128.5925 91.625 131.3125 C92.676875 131.065 93.72875 130.8175 94.8125 130.5625 C98.625 130.3125 98.625 130.3125 101.0625 132.3125 C103.90831547 134.53362427 104.40075831 134.58749243 107.8125 134.25 C111.84557573 133.7134548 111.84557573 133.7134548 113.625 130.3125 C112.51125 130.51875 111.3975 130.725 110.25 130.9375 C109.05375 131.06125 107.8575 131.185 106.625 131.3125 C105.965 130.6525 105.305 129.9925 104.625 129.3125 C104.625 127.9925 104.625 126.6725 104.625 125.3125 C105.945 125.6425 107.265 125.9725 108.625 126.3125 C108.625 126.9725 108.625 127.6325 108.625 128.3125 C110.605 128.6425 112.585 128.9725 114.625 129.3125 C114.686875 128.36375 114.74875 127.415 114.8125 126.4375 C115.080625 125.40625 115.34875 124.375 115.625 123.3125 C118.1875 121.9375 118.1875 121.9375 120.625 121.3125 C124.45549989 124.03417098 126.21344783 125.8456401 127.625 130.3125 C128.05194918 132.99139682 128.408042 135.61923866 128.6875 138.3125 C128.76838867 139.05636963 128.84927734 139.80023926 128.93261719 140.56665039 C129.1722413 142.81444966 129.39932572 145.06326304 129.625 147.3125 C129.76292969 148.61058594 129.90085937 149.90867188 130.04296875 151.24609375 C130.15253906 152.40238281 130.26210938 153.55867187 130.375 154.75 C130.47296875 155.77996094 130.5709375 156.80992187 130.671875 157.87109375 C130.625 160.3125 130.625 160.3125 128.625 162.3125 C138.525 162.8075 138.525 162.8075 148.625 163.3125 C148.625 163.6425 148.625 163.9725 148.625 164.3125 C68.105 164.3125 -12.415 164.3125 -95.375 164.3125 C-95.375 163.9825 -95.375 163.6525 -95.375 163.3125 C-85.145 163.3125 -74.915 163.3125 -64.375 163.3125 C-64.45363598 157.65873477 -64.45363598 157.65873477 -64.55517578 152.00537109 C-64.58803497 147.29590733 -63.95370265 143.78648373 -62.375 139.3125 C-61.98448773 136.54834022 -61.82696626 133.78678939 -61.6875 131 C-61.64044922 130.27232422 -61.59339844 129.54464844 -61.54492188 128.79492188 C-61.44114774 126.96951777 -61.40241165 125.14064601 -61.375 123.3125 C-61.705 122.9825 -62.035 122.6525 -62.375 122.3125 C-63.09747505 112.57298057 -62.955725 101.68358749 -57.375 93.3125 C-57.66052357 91.41582891 -57.66052357 91.41582891 -58.375 89.3125 C-58.72078768 87.31461562 -59.05643549 85.31490549 -59.375 83.3125 C-56.15286243 81.16440829 -55.09724599 81.01863847 -51.375 81.3125 C-51.045 81.6425 -50.715 81.9725 -50.375 82.3125 C-50.42532304 85.55147404 -50.57308789 88.78016733 -50.73046875 92.015625 C-50.30091256 95.99964066 -49.21642567 97.54223705 -46.375 100.3125 C-43.59175858 101.03614277 -41.2343373 101.3125 -38.375 101.3125 C-38.375 89.4325 -38.375 77.5525 -38.375 65.3125 C-37.715 64.9825 -37.055 64.6525 -36.375 64.3125 C-37.365 63.8175 -37.365 63.8175 -38.375 63.3125 C-38.40387512 59.66668313 -38.42175585 56.02089537 -38.4375 52.375 C-38.44587891 51.33408203 -38.45425781 50.29316406 -38.46289062 49.22070312 C-38.46611328 48.23134766 -38.46933594 47.24199219 -38.47265625 46.22265625 C-38.47789307 45.30621338 -38.48312988 44.38977051 -38.48852539 43.44555664 C-38.375 41.3125 -38.375 41.3125 -37.375 40.3125 C-35.15812006 40.15376045 -32.93644702 40.06116163 -30.71484375 39.99609375 C-30.05037735 39.97531265 -29.38591095 39.95453156 -28.7013092 39.93312073 C-26.57181457 39.86756342 -24.44219332 39.80871215 -22.3125 39.75 C-20.87173153 39.70682061 -19.43097601 39.66320651 -17.99023438 39.61914062 C-14.4519596 39.51187607 -10.91354131 39.41062629 -7.375 39.3125 C-7.375 36.3425 -7.375 33.3725 -7.375 30.3125 C-9.025 29.9825 -10.675 29.6525 -12.375 29.3125 C-13.29803184 15.87725874 -13.29803184 15.87725874 -11.14453125 12.2265625 C-9.5625 10.8125 -9.5625 10.8125 -7.90625 9.58203125 C-5.26298252 7.39054673 -4.55282183 4.47402174 -3.375 1.3125 C-2.375 0.3125 -2.375 0.3125 0 0 Z " fill="#AEC1F9" transform="translate(133.375,14.6875)"/>
<path d="M0 0 C1.01578125 -0.01611328 2.0315625 -0.03222656 3.078125 -0.04882812 C12.06901445 -0.05459152 19.9530756 1.45160816 27.5 6.5625 C28.86898437 7.47708984 28.86898437 7.47708984 30.265625 8.41015625 C32.93266343 10.26565299 35.59400556 12.12873119 38.25 14 C47.47854923 20.49200782 55.40357459 23.69630494 66.75 23.5 C67.93722656 23.49033203 67.93722656 23.49033203 69.1484375 23.48046875 C73.45503992 23.42435667 77.71080591 23.22584412 82 22.8125 C105.80638 20.55471222 105.80638 20.55471222 115 25.3125 C115.82757813 25.73789062 116.65515625 26.16328125 117.5078125 26.6015625 C128.98283942 33.00702529 135.46570155 41.91389934 139.67578125 54.30078125 C141.41426789 65.08777664 140.06746927 75.65086698 134.92578125 85.3359375 C132.52713278 90.4571026 132.39779815 96.06260698 133.84375 101.46484375 C136.42416669 108.28806097 139.58363459 114.87669503 142.765625 121.4375 C148.5043312 134.80360051 144.51222976 150.15277444 139.44140625 163.00390625 C137.27680949 167.97250639 134.69486585 172.61215259 132 177.3125 C128.37 177.3125 124.74 177.3125 121 177.3125 C121.66 176.3225 122.32 175.3325 123 174.3125 C123.08029428 169.96322663 122.45951075 165.63450203 122 161.3125 C121.86152235 159.83728239 121.72351714 158.36202038 121.5859375 156.88671875 C121.43381597 155.38265755 121.28018757 153.87874794 121.125 152.375 C121.05893555 151.66585449 120.99287109 150.95670898 120.92480469 150.22607422 C120.42134505 145.69386631 119.38725934 142.20502631 117 138.3125 C114.59867226 136.76761683 114.59867226 136.76761683 112 136.3125 C111.01 136.6425 110.02 136.9725 109 137.3125 C108.67 139.2925 108.34 141.2725 108 143.3125 C105.0625 142.9375 105.0625 142.9375 102 142.3125 C101.67 141.6525 101.34 140.9925 101 140.3125 C100.01 139.9825 99.02 139.6525 98 139.3125 C98.99 141.7875 98.99 141.7875 100 144.3125 C102.31 144.3125 104.62 144.3125 107 144.3125 C106.5 146.25 106.5 146.25 105 148.3125 C101.95459713 149.1112942 100.0433417 149.5897036 97 149.3125 C95.29749607 148.02524093 93.62935241 146.69118281 92 145.3125 C88.29059225 144.97784111 88.29059225 144.97784111 85 145.3125 C84.67 142.6725 84.34 140.0325 84 137.3125 C84.66 137.3125 85.32 137.3125 86 137.3125 C86 137.9725 86 138.6325 86 139.3125 C86.66 139.3125 87.32 139.3125 88 139.3125 C88 137.6625 88 136.0125 88 134.3125 C91.07322544 133.40191469 93.80097361 133.22363816 97 133.3125 C97.33 132.3225 97.66 131.3325 98 130.3125 C100.0625 129.125 100.0625 129.125 102 128.3125 C101.34 127.6525 100.68 126.9925 100 126.3125 C100 124.9925 100 123.6725 100 122.3125 C102.97 123.3025 102.97 123.3025 106 124.3125 C106.0825 125.09625 106.165 125.88 106.25 126.6875 C106.72806339 129.45999104 106.72806339 129.45999104 109.0625 130.625 C110.0215625 130.9653125 110.0215625 130.9653125 111 131.3125 C111 131.9725 111 132.6325 111 133.3125 C111.66 133.3125 112.32 133.3125 113 133.3125 C111.83188097 129.35886637 110.56620675 126.52025844 108 123.3125 C106.06009176 120.10544096 105.75520429 117.71959945 105.77294922 113.99316406 C105.77317581 112.40196747 105.77317581 112.40196747 105.77340698 110.77862549 C105.78372955 109.63996033 105.79405212 108.50129517 105.8046875 107.328125 C105.8075174 106.15739441 105.81034729 104.98666382 105.81326294 103.78045654 C105.82445844 100.04103375 105.84956224 96.30185041 105.875 92.5625 C105.8850306 90.02734721 105.89415631 87.49219066 105.90234375 84.95703125 C105.92439574 78.74210579 105.95786725 72.52732 106 66.3125 C104.97713898 66.3294693 103.95427795 66.3464386 102.90042114 66.36392212 C93.27682845 66.52226057 83.65312413 66.67000112 74.02920723 66.80727577 C69.08105541 66.87819889 64.13301987 66.95289932 59.18505859 67.03613281 C54.41303263 67.11626943 49.64095493 67.18661383 44.86867905 67.25007248 C43.04490688 67.27606385 41.22118212 67.30562733 39.39752579 67.33876419 C36.84984709 67.38445608 34.30229797 67.41762331 31.75439453 67.44775391 C30.61503952 67.47256584 30.61503952 67.47256584 29.45266724 67.49787903 C27.63412219 67.51275068 25.81529792 67.42213911 24 67.3125 C23.34 66.6525 22.68 65.9925 22 65.3125 C49.72 65.3125 77.44 65.3125 106 65.3125 C105.67 62.0125 105.34 58.7125 105 55.3125 C103.89832489 55.31995743 102.79664978 55.32741486 101.66159058 55.33509827 C91.27363212 55.39954732 80.88652604 55.41669312 70.49839592 55.38765812 C65.15770691 55.37424757 59.81810772 55.37743839 54.47753906 55.41870117 C49.32227837 55.45791926 44.16873606 55.45335608 39.01346207 55.41857719 C37.04789521 55.41298301 35.08221814 55.42310218 33.11681747 55.44926643 C17.73403212 55.63899357 17.73403212 55.63899357 13.43145752 52.34762573 C10.98957583 48.85468248 10.0211732 46.39233334 9.9375 42.125 C11.08061147 39.09911669 12.55344038 36.20561923 14 33.3125 C9.38 33.3125 4.76 33.3125 0 33.3125 C-1 28.3125 -1 28.3125 -0.875 24.875 C-1.01370697 20.92185129 -2.0214484 18.69252565 -4 15.3125 C-5.65 15.3125 -7.3 15.3125 -9 15.3125 C-9.23074219 15.83199219 -9.46148437 16.35148437 -9.69921875 16.88671875 C-11.41655294 20.55896302 -12.70185381 23.04145801 -15.75 25.8125 C-18.39684731 28.23413749 -18.39684731 28.23413749 -18.25 32.1875 C-18.20359375 32.86554687 -18.1571875 33.54359375 -18.109375 34.2421875 C-17.94479045 37.35753782 -18.4883448 40.24256879 -19 43.3125 C-17.35 43.6425 -15.7 43.9725 -14 44.3125 C-13.505 49.2625 -13.505 49.2625 -13 54.3125 C-28.345 54.8075 -28.345 54.8075 -44 55.3125 C-44.33 62.5725 -44.66 69.8325 -45 77.3125 C-43.68 77.6425 -42.36 77.9725 -41 78.3125 C-42.98 78.8075 -42.98 78.8075 -45 79.3125 C-45 91.1925 -45 103.0725 -45 115.3125 C-51 116.3125 -51 116.3125 -54.3125 114.25 C-59.07102293 109.04882377 -58.13383565 103.00428273 -58 96.3125 C-61.465 96.8075 -61.465 96.8075 -65 97.3125 C-64.38479602 101.40768563 -64.38479602 101.40768563 -63.25 105.375 C-63 107.3125 -63 107.3125 -64.3125 109.4375 C-68.91829836 117.28441572 -68.51564632 127.46667234 -69 136.3125 C-68.01 136.6425 -67.02 136.9725 -66 137.3125 C-66.66 137.3125 -67.32 137.3125 -68 137.3125 C-67.97679687 138.39789063 -67.95359375 139.48328125 -67.9296875 140.6015625 C-67.9109173 142.04686807 -67.89271844 143.49218115 -67.875 144.9375 C-67.85824219 145.65035156 -67.84148437 146.36320313 -67.82421875 147.09765625 C-67.78246818 151.64846883 -68.53832045 154.97175466 -70 159.3125 C-70.37480962 162.4321347 -70.50444292 165.54901644 -70.625 168.6875 C-70.810625 172.956875 -70.810625 172.956875 -71 177.3125 C-81.23 177.3125 -91.46 177.3125 -102 177.3125 C-102 176.9825 -102 176.6525 -102 176.3125 C-98.04 176.3125 -94.08 176.3125 -90 176.3125 C-90.59167969 175.45269531 -91.18335938 174.59289062 -91.79296875 173.70703125 C-103.55255186 156.25171098 -108.04660442 138.53016726 -104.31640625 117.44921875 C-103.4030425 114.58785099 -102.33736906 111.99973691 -101 109.3125 C-100.57589844 108.38824219 -100.15179688 107.46398437 -99.71484375 106.51171875 C-93.29929812 93.59127449 -82.71498948 84.36259662 -70.56030273 76.95898438 C-62.87913334 72.25675892 -58.54919907 68.46344708 -55.91796875 59.71484375 C-54.53692985 53.96538872 -54.61181117 48.14977031 -54.52148438 42.265625 C-54.1778606 30.83384868 -51.00862205 21.34289242 -42.84375 13.1484375 C-30.70788052 2.62805714 -15.58788014 -0.04945393 0 0 Z " fill="#EAF1FA" transform="translate(140,0.6875)"/>
<path d="M0 0 C2.625 0.3125 2.625 0.3125 4.375 2.125 C7.51941975 7.62773456 6.69147978 13.12988053 6.625 19.3125 C11.245 19.3125 15.865 19.3125 20.625 19.3125 C19.81119792 21.52604167 18.99739583 23.73958333 18.18359375 25.953125 C17.56321003 28.57348702 17.6801734 29.8169254 18.625 32.3125 C19.94905988 34.31865134 21.28168346 36.31919158 22.625 38.3125 C22.625 38.9725 22.625 39.6325 22.625 40.3125 C23.73777817 40.31027939 24.85055634 40.30805878 25.99705505 40.30577087 C36.4599213 40.28554045 46.92278361 40.27052834 57.38566494 40.26068783 C62.76533762 40.25545875 68.14499458 40.24836065 73.5246582 40.23706055 C78.71174843 40.22623255 83.89882349 40.22022335 89.08592415 40.21762276 C91.0695628 40.21576835 93.05320058 40.21214744 95.03683281 40.20676994 C97.80509136 40.19956068 100.57328638 40.19850901 103.34155273 40.19897461 C104.17017319 40.19537933 104.99879364 40.19178406 105.8525238 40.18807983 C111.51094784 40.19844784 111.51094784 40.19844784 112.625 41.3125 C112.625 44.6125 112.625 47.9125 112.625 51.3125 C85.565 51.6425 58.505 51.9725 30.625 52.3125 C32.605 52.8075 32.605 52.8075 34.625 53.3125 C34.625 53.9725 34.625 54.6325 34.625 55.3125 C31.985 55.3125 29.345 55.3125 26.625 55.3125 C26.625 53.9925 26.625 52.6725 26.625 51.3125 C22.005 51.3125 17.385 51.3125 12.625 51.3125 C11.70807039 54.06328884 11.51613917 55.67198913 11.5625 58.5 C11.583125 59.758125 11.60375 61.01625 11.625 62.3125 C9.00312506 61.26375002 7.83128639 60.66318687 6.375 58.1875 C6.1275 57.56875 5.88 56.95 5.625 56.3125 C6.615 55.9825 7.605 55.6525 8.625 55.3125 C8.625 53.9925 8.625 52.6725 8.625 51.3125 C-6.885 51.3125 -22.395 51.3125 -38.375 51.3125 C-38.375 41.3125 -38.375 41.3125 -37.375 40.3125 C-35.15812006 40.15376045 -32.93644702 40.06116163 -30.71484375 39.99609375 C-30.05037735 39.97531265 -29.38591095 39.95453156 -28.7013092 39.93312073 C-26.57181457 39.86756342 -24.44219332 39.80871215 -22.3125 39.75 C-20.87173153 39.70682061 -19.43097601 39.66320651 -17.99023438 39.61914062 C-14.4519596 39.51187607 -10.91354131 39.41062629 -7.375 39.3125 C-7.375 36.3425 -7.375 33.3725 -7.375 30.3125 C-9.025 29.9825 -10.675 29.6525 -12.375 29.3125 C-13.29803184 15.87725874 -13.29803184 15.87725874 -11.14453125 12.2265625 C-9.5625 10.8125 -9.5625 10.8125 -7.90625 9.58203125 C-5.26298252 7.39054673 -4.55282183 4.47402174 -3.375 1.3125 C-2.375 0.3125 -2.375 0.3125 0 0 Z " fill="#F87A3C" transform="translate(133.375,14.6875)"/>
<path d="M0 0 C3.98262031 0.99565508 5.88894776 2.51676381 8 6 C9.19617544 9.58852633 9.5782633 13.13639442 10 16.875 C10.08540039 17.62789307 10.17080078 18.38078613 10.25878906 19.15649414 C10.51252663 21.43699668 10.75786614 23.71823854 11 26 C11.20882812 27.95099609 11.20882812 27.95099609 11.421875 29.94140625 C11.53015625 31.09511719 11.6384375 32.24882812 11.75 33.4375 C11.84796875 34.46746094 11.9459375 35.49742187 12.046875 36.55859375 C12 39 12 39 10 41 C16.6 41.33 23.2 41.66 30 42 C30 42.33 30 42.66 30 43 C-50.52 43 -131.04 43 -214 43 C-214 42.67 -214 42.34 -214 42 C-203.77 42 -193.54 42 -183 42 C-183.07863598 36.34623477 -183.07863598 36.34623477 -183.18017578 30.69287109 C-183.2130459 25.98184016 -182.57169306 22.47694386 -181 18 C-180.63262129 15.21444987 -180.49676982 12.43077965 -180.375 9.625 C-180.33632812 8.88894531 -180.29765625 8.15289062 -180.2578125 7.39453125 C-180.16442002 5.59672594 -180.0811629 3.79839892 -180 2 C-176.04 2 -172.08 2 -168 2 C-169 7 -169 7 -170 10 C-169.34 10 -168.68 10 -168 10 C-167.97250234 11.37488287 -167.9533836 12.74993391 -167.9375 14.125 C-167.92589844 14.89070312 -167.91429687 15.65640625 -167.90234375 16.4453125 C-168 19 -168 19 -168.48828125 21.8515625 C-169.05709102 25.3512623 -169.20475015 28.70542866 -169.25 32.25 C-169.28867188 34.08304688 -169.28867188 34.08304688 -169.328125 35.953125 C-169.21984375 36.95859375 -169.1115625 37.9640625 -169 39 C-165.73439095 41.1770727 -164.79015541 41.25514807 -161.00764465 41.2784729 C-159.97699387 41.28963638 -158.94634308 41.30079987 -157.88446045 41.31230164 C-156.75445618 41.31446182 -155.6244519 41.31662201 -154.46020508 41.31884766 C-153.26983139 41.32889328 -152.0794577 41.3389389 -150.85301208 41.34928894 C-147.58882282 41.37490345 -144.3247285 41.39174493 -141.06046891 41.40471697 C-137.64912342 41.42033765 -134.2378663 41.44713123 -130.82658386 41.4727478 C-124.36684454 41.51955449 -117.90708863 41.5562894 -111.44726628 41.58942068 C-104.09298947 41.62762876 -96.73880138 41.67704233 -89.38459933 41.72740483 C-74.2564651 41.83075275 -59.12827708 41.92000381 -44 42 C-44.48533203 41.22221191 -44.97066406 40.44442383 -45.47070312 39.64306641 C-47.90118351 35.44249479 -47.74298746 31.72327744 -47 27 C-45.60951038 23.17615356 -43.91070318 19.5893924 -42 16 C-41.34 16 -40.68 16 -40 16 C-40 15.34 -40 14.68 -40 14 C-38.68 13.67 -37.36 13.34 -36 13 C-36 12.01 -36 11.02 -36 10 C-33.07752427 8.53876214 -30.44146161 8.7522385 -27.1875 8.6875 C-25.96417969 8.65011719 -24.74085938 8.61273438 -23.48046875 8.57421875 C-19.40823392 9.07239338 -18.05427604 10.38941947 -15 13 C-11.97186903 13.38738252 -10.04667868 12.74918328 -7 12 C-6.34 11.01 -5.68 10.02 -5 9 C-6.11375 9.20625 -7.2275 9.4125 -8.375 9.625 C-9.57125 9.74875 -10.7675 9.8725 -12 10 C-12.99 9.01 -12.99 9.01 -14 8 C-14 6.68 -14 5.36 -14 4 C-12.02 4.495 -12.02 4.495 -10 5 C-10 5.66 -10 6.32 -10 7 C-8.02 7.33 -6.04 7.66 -4 8 C-3.8453125 6.576875 -3.8453125 6.576875 -3.6875 5.125 C-3 2 -3 2 0 0 Z " fill="#F57A3D" transform="translate(252,136)"/>
<path d="M0 0 C0.33 8.25 0.66 16.5 1 25 C36.97 25 72.94 25 110 25 C110.495 30.445 110.495 30.445 111 36 C111.99 38.475 111.99 38.475 113 41 C97.16228305 41.07006802 81.3246079 41.1229773 65.48677444 41.15543652 C58.13305735 41.17090821 50.77943654 41.19200341 43.42578125 41.22631836 C37.01664502 41.25621158 30.60757852 41.27557281 24.19837451 41.28226548 C20.80443615 41.28617791 17.41069727 41.29537866 14.01682281 41.31719017 C10.22886706 41.33888796 6.44132796 41.34197006 2.65332031 41.34057617 C1.52691132 41.351362 0.40050232 41.36214783 -0.76004028 41.3732605 C-2.30807846 41.36707451 -2.30807846 41.36707451 -3.88739014 41.36076355 C-4.78337292 41.36352893 -5.6793557 41.36629431 -6.60248947 41.36914349 C-9.51607683 40.92053991 -10.88977973 40.03420383 -13 38 C-14.34261502 30.53632908 -12.97140944 22.38589913 -11.8125 14.9375 C-11.71187256 14.22384277 -11.61124512 13.51018555 -11.50756836 12.77490234 C-10.61860366 7.73046109 -8.9184955 5.23412148 -5 2 C-1.57142857 0 -1.57142857 0 0 0 Z " fill="#EAF2FB" transform="translate(95,137)"/>
<path d="M0 0 C1.27488281 -0.00257812 2.54976562 -0.00515625 3.86328125 -0.0078125 C14.16310464 0.10072094 14.16310464 0.10072094 17.875 3.5 C17.875 2.84 17.875 2.18 17.875 1.5 C20.97833883 0.46555372 23.10376249 0.37916576 26.35620117 0.38647461 C27.47713669 0.38655014 28.5980722 0.38662567 29.75297546 0.38670349 C30.96242325 0.39186478 32.17187103 0.39702606 33.41796875 0.40234375 C34.65670242 0.4037587 35.8954361 0.40517365 37.17170715 0.40663147 C40.46131537 0.41128398 43.7508746 0.4202661 47.04046631 0.43133545 C50.39871623 0.44157371 53.75697333 0.44613426 57.11523438 0.45117188 C63.7018446 0.46220855 70.28841278 0.4794771 76.875 0.5 C76.875 6.77 76.875 13.04 76.875 19.5 C65.22681798 19.5677725 53.57876687 19.62281432 41.93043232 19.65543652 C36.52166227 19.67109339 31.1130341 19.69233226 25.7043457 19.72631836 C20.48480522 19.75891073 15.26540122 19.77685285 10.04576683 19.78463173 C8.05425048 19.79017543 6.06274161 19.80100088 4.07128334 19.81719017 C1.28213983 19.83896267 -1.50643949 19.84196698 -4.2956543 19.84057617 C-5.11924438 19.851362 -5.94283447 19.86214783 -6.79138184 19.8732605 C-11.39313705 19.84842548 -14.39778177 19.49558428 -18.125 16.5 C-20.22137701 13.35543449 -20.49056445 11.33905324 -20.78125 7.6328125 C-19.93856838 4.89409724 -18.58884293 3.24488255 -16.32714844 1.50341797 C-11.27370394 -0.79920474 -5.43645214 -0.12167034 0 0 Z " fill="#E9F2FB" transform="translate(128.125,74.5)"/>
<path d="M0 0 C3.98262031 0.99565508 5.88894776 2.51676381 8 6 C9.88921437 11.66764311 10.12361499 17.84951016 10.75927734 23.77734375 C10.98067371 25.82155523 11.21808975 27.86401498 11.45703125 29.90625 C11.57433594 31.0509375 11.69164062 32.195625 11.8125 33.375 C11.92207031 34.39335937 12.03164063 35.41171875 12.14453125 36.4609375 C12 39 12 39 10.77043152 40.6374054 C8.5280826 42.36320643 7.33723139 42.36417842 4.52856445 42.34057617 C3.62785721 42.34034958 2.72714996 42.34012299 1.79914856 42.33988953 C0.34589424 42.31666374 0.34589424 42.31666374 -1.13671875 42.29296875 C-2.62858452 42.28660149 -2.62858452 42.28660149 -4.15058899 42.28010559 C-7.32983375 42.26330153 -10.50844656 42.22564576 -13.6875 42.1875 C-15.84178773 42.17245541 -17.99608538 42.15876662 -20.15039062 42.14648438 C-25.43380967 42.11339244 -30.71685969 42.06317592 -36 42 C-35.67 41.34 -35.34 40.68 -35 40 C-32.9375 39.375 -32.9375 39.375 -31 39 C-30.96261719 38.31292969 -30.92523438 37.62585938 -30.88671875 36.91796875 C-30.82097656 36.01691406 -30.75523437 35.11585938 -30.6875 34.1875 C-30.62949219 33.29417969 -30.57148438 32.40085938 -30.51171875 31.48046875 C-29.92032941 28.61381049 -29.06656389 27.95948804 -27 26 C-26.43809401 24.02392317 -26.43809401 24.02392317 -26.1875 21.9375 C-25.7265625 19.8046875 -25.7265625 19.8046875 -25 18 C-22.0625 16.5625 -22.0625 16.5625 -19 16 C-18.01 15.67 -17.02 15.34 -16 15 C-15.67 14.34 -15.34 13.68 -15 13 C-12.97399825 12.77488869 -10.94540724 12.5559122 -8.91015625 12.44140625 C-6.59575188 12.13657296 -6.59575188 12.13657296 -5 9 C-6.11375 9.20625 -7.2275 9.4125 -8.375 9.625 C-9.57125 9.74875 -10.7675 9.8725 -12 10 C-12.66 9.34 -13.32 8.68 -14 8 C-14 6.68 -14 5.36 -14 4 C-12.68 4.33 -11.36 4.66 -10 5 C-10 5.66 -10 6.32 -10 7 C-7.03 7.495 -7.03 7.495 -4 8 C-3.896875 7.05125 -3.79375 6.1025 -3.6875 5.125 C-3 2 -3 2 0 0 Z " fill="#FA793A" transform="translate(252,136)"/>
<path d="M0 0 C15.51 0 31.02 0 47 0 C47 1.32 47 2.64 47 4 C46.34 4.33 45.68 4.66 45 5 C45.495 6.98 45.495 6.98 46 9 C45.20827393 9.0093457 44.41654785 9.01869141 43.60083008 9.02832031 C40.00409292 9.08209344 36.40864648 9.16572963 32.8125 9.25 C30.94368164 9.27126953 30.94368164 9.27126953 29.03710938 9.29296875 C27.2340332 9.34130859 27.2340332 9.34130859 25.39453125 9.390625 C23.73707886 9.4220459 23.73707886 9.4220459 22.04614258 9.45410156 C18.36067225 10.11457376 16.65526522 11.4075149 14 14 C12.90156103 17.70000495 13.50750732 21.08537074 15.3125 24.4375 C19.04099908 27.88981396 23.83263028 27.17227909 28.60229492 27.20532227 C29.91968407 27.22017166 29.91968407 27.22017166 31.26368713 27.23532104 C34.1692535 27.26693119 37.07483622 27.29169161 39.98046875 27.31640625 C41.99400764 27.33697619 44.00754222 27.35797268 46.02107239 27.37937927 C51.32287097 27.43459577 56.62470849 27.48400695 61.92657471 27.53222656 C67.33585072 27.58244463 72.74507013 27.63812911 78.15429688 27.69335938 C88.7694847 27.80093582 99.38472057 27.90187689 110 28 C110 21.73 110 15.46 110 9 C90.53 9.33 71.06 9.66 51 10 C51 10.66 51 11.32 51 12 C50.34 11.67 49.68 11.34 49 11 C48.75 3.375 48.75 3.375 51 0 C54.2578125 -0.29296875 54.2578125 -0.29296875 58.125 -0.1875 C60.04699219 -0.14689453 60.04699219 -0.14689453 62.0078125 -0.10546875 C62.99523437 -0.07066406 63.98265625 -0.03585938 65 0 C64.67 0.66 64.34 1.32 64 2 C60.04 1.67 56.08 1.34 52 1 C52 1.99 52 2.98 52 4 C51.34 4 50.68 4 50 4 C50 5.32 50 6.64 50 8 C51.05091576 7.98120789 51.05091576 7.98120789 52.12306213 7.96203613 C58.84114188 7.84227349 65.5592545 7.72452605 72.27740574 7.60884857 C75.72833229 7.54936238 79.17924358 7.48919063 82.63012695 7.42724609 C91.75315297 7.26392964 100.87633225 7.12291217 110 7 C111.1735907 6.98227539 112.3471814 6.96455078 113.55633545 6.94628906 C116.77584139 6.90098054 119.99513162 6.86976958 123.21484375 6.84375 C124.15719376 6.8288855 125.09954376 6.814021 126.07044983 6.79870605 C126.93270676 6.79487915 127.79496368 6.79105225 128.68334961 6.78710938 C129.79715248 6.77617249 129.79715248 6.77617249 130.93345642 6.76501465 C133.3120677 7.03548502 134.93319227 7.82135218 137 9 C136.67 9.99 136.34 10.98 136 12 C135.67 11.67 135.34 11.34 135 11 C133.22130274 10.84235595 131.43681524 10.74899323 129.65234375 10.68359375 C128.57275391 10.64169922 127.49316406 10.59980469 126.38085938 10.55664062 C124.67639648 10.49766602 124.67639648 10.49766602 122.9375 10.4375 C121.79732422 10.39431641 120.65714844 10.35113281 119.48242188 10.30664062 C116.65510492 10.20017262 113.82756908 10.09954738 111 10 C111 15.94 111 21.88 111 28 C115.95 28 120.9 28 126 28 C126 28.33 126 28.66 126 29 C74.52 29.495 74.52 29.495 22 30 C22.33 30.66 22.66 31.32 23 32 C22.41992188 32.09796875 21.83984375 32.1959375 21.2421875 32.296875 C16.02988543 33.29460939 12.07331132 34.40032953 8 38 C6.39962352 40.5669405 5.19218638 43.22545715 4 46 C3.3407716 47.33702661 2.67613946 48.67144528 2 50 C1.34 50 0.68 50 0 50 C0 38.12 0 26.24 0 14 C0.66 13.67 1.32 13.34 2 13 C1.34 12.67 0.68 12.34 0 12 C0 8.04 0 4.08 0 0 Z " fill="#B2C4F8" transform="translate(95,66)"/>
<path d="M0 0 C13.2 0 26.4 0 40 0 C40 7.92 40 15.84 40 24 C26.8 24 13.6 24 0 24 C0 16.08 0 8.16 0 0 Z " fill="#CBDBFD" transform="translate(176,101)"/>
<path d="M0 0 C11.45650016 -0.02312241 22.91299481 -0.04091457 34.36951351 -0.05181217 C39.68865213 -0.05704122 45.00777484 -0.06413927 50.3269043 -0.07543945 C55.45563985 -0.08626755 60.58436006 -0.09227667 65.71310616 -0.09487724 C67.67441614 -0.09673163 69.63572524 -0.10035251 71.59702873 -0.10573006 C74.33415447 -0.11293946 77.07121597 -0.11399099 79.80834961 -0.11352539 C81.03725418 -0.1189183 81.03725418 -0.1189183 82.29098511 -0.12442017 C87.88594784 -0.11405216 87.88594784 -0.11405216 89 1 C89.07179964 2.51928038 89.08392007 4.04167482 89.0625 5.5625 C89.05347656 6.38878906 89.04445313 7.21507812 89.03515625 8.06640625 C89.02355469 8.70449219 89.01195312 9.34257813 89 10 C78.13440802 10.18537823 67.26919224 10.32751528 56.40234089 10.41449738 C51.35628208 10.45624584 46.31130519 10.51286621 41.26586914 10.60351562 C36.39636301 10.69045641 31.52789713 10.7382767 26.65767479 10.75901794 C24.79998581 10.77379763 22.94235369 10.80266088 21.0851078 10.84584045 C18.48167718 10.9039596 15.88253966 10.91191274 13.27856445 10.90820312 C12.5110788 10.93696533 11.74359314 10.96572754 10.95285034 10.99536133 C8.79023743 10.96203613 8.79023743 10.96203613 5 10 C2.42362435 7.18522228 0 3.92003759 0 0 Z " fill="#30157B" transform="translate(157,55)"/>
<path d="M0 0 C3.70981445 1.64880642 6.33252649 3.95145885 9 7 C10.65112454 11.95337361 10.85967138 16.9639362 8.8125 21.8125 C5.97920096 25.23199885 2.62138681 28.68019081 -1.953125 29.23828125 C-7.52036011 29.4181749 -10.61411811 28.75932734 -15 25 C-17.90228418 21.69740076 -18.91559053 19.11842552 -19.25 14.6875 C-18.88716594 9.33569763 -17.41893949 6.28050637 -13.4375 2.6875 C-8.94728337 -0.42111151 -5.3711378 -0.52219395 0 0 Z " fill="#B0C8F9" transform="translate(119,100)"/>
<path d="M0 0 C4.4062186 1.34634457 6.43077702 3.19374374 9 7 C9 7.66 9 8.32 9 9 C9.97582031 9.00257812 10.95164062 9.00515625 11.95703125 9.0078125 C13.22933594 9.04648438 14.50164062 9.08515625 15.8125 9.125 C17.70935547 9.15980469 17.70935547 9.15980469 19.64453125 9.1953125 C23 10 23 10 24.99609375 12.921875 C26 16 26 16 25.25 18.125 C24.8375 18.74375 24.425 19.3625 24 20 C23.93167969 20.58910156 23.86335938 21.17820313 23.79296875 21.78515625 C22.3816025 25.72724818 18.57251067 28.08506442 15.39257812 30.66992188 C11.34700069 34.14528426 10.03568104 36.75645764 9 42 C8.67 40.68 8.34 39.36 8 38 C7.34 38 6.68 38 6 38 C6.66666667 35.33333333 7.33333333 32.66666667 8 30 C6.96939453 30.01740234 6.96939453 30.01740234 5.91796875 30.03515625 C5.01691406 30.04417969 4.11585937 30.05320313 3.1875 30.0625 C1.84751953 30.07990234 1.84751953 30.07990234 0.48046875 30.09765625 C-2 30 -2 30 -5 29 C-5.39475064 19.11661363 -5.68769893 8.53154839 0 0 Z " fill="#B0CCF7" transform="translate(76,108)"/>
<path d="M0 0 C3.91739994 -0.10781835 7.831841 -0.18723773 11.75 -0.25 C13.41675781 -0.30027344 13.41675781 -0.30027344 15.1171875 -0.3515625 C16.18710938 -0.36445312 17.25703125 -0.37734375 18.359375 -0.390625 C19.34389648 -0.41157227 20.32841797 -0.43251953 21.34277344 -0.45410156 C24.74000336 0.12646143 25.8905565 1.33266944 28 4 C28.79043818 7.40160982 28.68738401 10.58012253 28 14 C25.5 16.625 25.5 16.625 23 18 C23.99 18.99 24.98 19.98 26 21 C24.68 21 23.36 21 22 21 C22.66 22.65 23.32 24.3 24 26 C22.68 25.34 21.36 24.68 20 24 C19.67 24.66 19.34 25.32 19 26 C18.34 26 17.68 26 17 26 C16.67 23.36 16.34 20.72 16 18 C10.72 18 5.44 18 0 18 C0 12.06 0 6.12 0 0 Z " fill="#F49546" transform="translate(206,76)"/>
<path d="M0 0 C0.99 0.99 0.99 0.99 2 2 C4.32548007 2.69356423 6.65880445 3.36149212 9 4 C11.29637901 6.29637901 10.36556553 12.07252231 10.40039062 15.26538086 C10.30730781 21.7709115 8.71773733 26.59600324 5 32 C3.35 31.34 1.7 30.68 0 30 C0.875 25.25 0.875 25.25 2 23 C1.01 22.443125 0.02 21.88625 -1 21.3125 C-4 19 -4 19 -4.375 16.25 C-4.189375 15.13625 -4.189375 15.13625 -4 14 C-5.98 14.33 -7.96 14.66 -10 15 C-10.495 10.545 -10.495 10.545 -11 6 C-39.71 5.67 -68.42 5.34 -98 5 C-98 4.67 -98 4.34 -98 4 C-69.95 4 -41.9 4 -13 4 C-13 3.34 -13 2.68 -13 2 C-12.05125 1.690625 -11.1025 1.38125 -10.125 1.0625 C-3.8699187 -1.06422764 -3.8699187 -1.06422764 0 0 Z " fill="#D5DFFB" transform="translate(256,50)"/>
<path d="M0 0 C3.96 0 7.92 0 12 0 C11 5 11 5 10 8 C10.66 8 11.32 8 12 8 C12.02749766 9.37488287 12.0466164 10.74993391 12.0625 12.125 C12.07410156 12.89070312 12.08570312 13.65640625 12.09765625 14.4453125 C12 17 12 17 11.5 19.8125 C10.91851478 23.51946827 10.89039766 27.13579882 10.9375 30.875 C10.94201172 31.56335938 10.94652344 32.25171875 10.95117188 32.9609375 C10.96283664 34.64066335 10.98076729 36.32034375 11 38 C9.68 38 8.36 38 7 38 C7 38.66 7 39.32 7 40 C2.05 38.515 2.05 38.515 -3 37 C-3.0543965 34.62468606 -3.09385864 32.25064117 -3.125 29.875 C-3.14175781 29.20984375 -3.15851563 28.5446875 -3.17578125 27.859375 C-3.21908076 23.44282528 -2.40868274 20.14067351 -1 16 C-0.6336922 13.21426033 -0.49677283 10.43084899 -0.375 7.625 C-0.33632812 6.88894531 -0.29765625 6.15289062 -0.2578125 5.39453125 C-0.16442002 3.59672594 -0.0811629 1.79839892 0 0 Z " fill="#F3793D" transform="translate(72,138)"/>
<path d="M0 0 C15.84 0 31.68 0 48 0 C47.67 3.3 47.34 6.6 47 10 C31.49 10 15.98 10 0 10 C0 6.7 0 3.4 0 0 Z " fill="#3A1E84" transform="translate(96,55)"/>
<path d="M0 0 C2.625 0.3125 2.625 0.3125 4.375 2.125 C7.73431198 8.00379596 7.18251713 14.74538262 6.625 21.3125 C5.60339119 24.39517113 4.38910497 26.55608598 2.625 29.3125 C-0.345 29.3125 -3.315 29.3125 -6.375 29.3125 C-6.705 29.9725 -7.035 30.6325 -7.375 31.3125 C-9.85 30.3225 -9.85 30.3225 -12.375 29.3125 C-13.29803184 15.87725874 -13.29803184 15.87725874 -11.14453125 12.2265625 C-9.5625 10.8125 -9.5625 10.8125 -7.90625 9.58203125 C-5.26298252 7.39054673 -4.55282183 4.47402174 -3.375 1.3125 C-2.375 0.3125 -2.375 0.3125 0 0 Z " fill="#ADCAF5" transform="translate(133.375,14.6875)"/>
<path d="M0 0 C1.98 0.66 3.96 1.32 6 2 C6.12375 3.175625 6.12375 3.175625 6.25 4.375 C6.72806339 7.14749104 6.72806339 7.14749104 9.0625 8.3125 C9.701875 8.539375 10.34125 8.76625 11 9 C11 9.66 11 10.32 11 11 C13.475 11.495 13.475 11.495 16 12 C16 12.66 16 13.32 16 14 C13.69 14.33 11.38 14.66 9 15 C8.67 16.98 8.34 18.96 8 21 C5.0625 20.625 5.0625 20.625 2 20 C1.67 19.34 1.34 18.68 1 18 C0.01 17.67 -0.98 17.34 -2 17 C-1.34 18.65 -0.68 20.3 0 22 C2.31 22 4.62 22 7 22 C6.5 23.9375 6.5 23.9375 5 26 C1.95459713 26.7987942 0.0433417 27.2772036 -3 27 C-4.70250393 25.71274093 -6.37064759 24.37868281 -8 23 C-11.70940775 22.66534111 -11.70940775 22.66534111 -15 23 C-15.33 20.36 -15.66 17.72 -16 15 C-15.34 15 -14.68 15 -14 15 C-14 15.66 -14 16.32 -14 17 C-13.34 17 -12.68 17 -12 17 C-12 15.35 -12 13.7 -12 12 C-8.92677456 11.08941469 -6.19902639 10.91113816 -3 11 C-2.67 10.01 -2.34 9.02 -2 8 C0.0625 6.8125 0.0625 6.8125 2 6 C1.34 5.34 0.68 4.68 0 4 C0 2.68 0 1.36 0 0 Z " fill="#F7DDC2" transform="translate(240,123)"/>
<path d="M0 0 C1.91635217 -0.05423638 3.83314925 -0.09289963 5.75 -0.125 C7.35101563 -0.15980469 7.35101563 -0.15980469 8.984375 -0.1953125 C11.92470106 -0.00487687 13.52361878 0.47329896 16 2 C16 3.98 16 5.96 16 8 C16.66 8 17.32 8 18 8 C18 7.01 18 6.02 18 5 C18.99 5.33 19.98 5.66 21 6 C20.69558521 9.55150592 20.02406007 10.97138802 17.6875 13.75 C15.25520422 15.78634065 14.07999437 16.6577784 11 17 C11.99 18.32 12.98 19.64 14 21 C12.68 21.33 11.36 21.66 10 22 C10 22.66 10 23.32 10 24 C9.34 24.33 8.68 24.66 8 25 C7.34 25.99 6.68 26.98 6 28 C6 27.34 6 26.68 6 26 C4.68 25.67 3.36 25.34 2 25 C2.33 24.34 2.66 23.68 3 23 C1.68 22.67 0.36 22.34 -1 22 C-1 20.68 -1 19.36 -1 18 C0.98 18.33 2.96 18.66 5 19 C4.67 18.01 4.34 17.02 4 16 C4.99 16 5.98 16 7 16 C7 15.34 7 14.68 7 14 C6.01 14 5.02 14 4 14 C4 13.34 4 12.68 4 12 C3.34 12 2.68 12 2 12 C-0.60018816 8.09971775 -0.15085514 4.52565431 0 0 Z " fill="#A9D0AA" transform="translate(202,128)"/>
<path d="M0 0 C0.33 0.33 0.66 0.66 1 1 C0.94967696 4.23897404 0.80191211 7.46766733 0.64453125 10.703125 C1.07388783 14.68528936 2.16837487 16.22429565 5 19 C8.58505759 20.0456418 11.51901077 20.4515866 15 19 C16.14417924 16.85379114 16.14417924 16.85379114 16.875 14.25 C18.73055868 9.13625561 20.49550429 7.00299714 25 4 C25.9590625 3.3503125 25.9590625 3.3503125 26.9375 2.6875 C30.68710893 1.43763036 34.22367221 1.22673205 37.90234375 2.828125 C40.69462642 4.41022173 43.330656 6.22043733 46 8 C48.51584891 8.24150773 48.51584891 8.24150773 51.1875 8.125 C52.53908203 8.09792969 52.53908203 8.09792969 53.91796875 8.0703125 C54.94857422 8.03550781 54.94857422 8.03550781 56 8 C56 8.66 56 9.32 56 10 C53.03 10 50.06 10 47 10 C47.350625 10.804375 47.70125 11.60875 48.0625 12.4375 C49.25442861 16.96682871 49.43794357 20.51210243 48 25 C45.14753365 29.3683058 41.92309572 33.04988053 37 35 C31.05616379 35.47934163 28.35165751 34.67582876 23 32 C20.81601365 32.79996657 20.81601365 32.79996657 19 34 C17.515 33.505 17.515 33.505 16 33 C16.804375 32.505 16.804375 32.505 17.625 32 C19.23831789 30.12733284 19.23831789 30.12733284 18.75390625 28.01953125 C18.23438369 25.99518471 17.62151638 23.9953947 17 22 C16.01 22.33 15.02 22.66 14 23 C9.47034788 22.83171571 4.65400766 22.59039198 1.2734375 19.33984375 C0.11206066 17.6049035 -0.95007023 15.80456679 -2 14 C-2.99 13.67 -3.98 13.34 -5 13 C-6.86254323 9.54099114 -8.07091295 7.08733186 -7.8125 3.125 C-6.3491806 -0.70214305 -3.6799024 -0.18871294 0 0 Z M20.1875 10.0625 C17.75768577 14.02693374 17.69105697 17.44309033 18 22 C19.98844117 27.33739473 22.90667648 30.45333824 28 33 C32.73981526 33.57825746 36.11997823 33.47260429 40.375 31.1875 C45.46645473 27.08014856 45.46645473 27.08014856 47.203125 20.9140625 C47.3318272 14.62910502 46.22950185 11.50818958 42 6.75 C38.44377026 3.63829898 34.79847574 3.66347263 30.28515625 3.71484375 C25.82679007 4.27118688 23.05966493 6.79417439 20.1875 10.0625 Z " fill="#2E5083" transform="translate(82,96)"/>
<path d="M0 0 C0.33 0 0.66 0 1 0 C1.495 3.96 1.495 3.96 2 8 C2.66 6.68 3.32 5.36 4 4 C7.83901868 4.54843124 9.36163505 6.2765265 12 9 C12.99 9.33 13.98 9.66 15 10 C15 9.01 15 8.02 15 7 C14.34 7 13.68 7 13 7 C13.33 5.68 13.66 4.36 14 3 C14.49159607 4.13671646 14.98319214 5.27343292 15.48968506 6.44459534 C16.54313158 8.40781528 16.54313158 8.40781528 18 10 C21.06092862 10.73374678 23.09778234 10.94938931 26.16503906 10.88647461 C26.9849231 10.89725037 27.80480713 10.90802612 28.64953613 10.91912842 C31.35581451 10.94650754 34.05933787 10.92464734 36.765625 10.90234375 C38.64322642 10.91172712 40.5208148 10.92418385 42.39837646 10.93959045 C47.33716985 10.97185629 52.275036 10.96235961 57.21386719 10.94421387 C62.25466108 10.93306705 67.29521607 10.96134857 72.3359375 10.98632812 C82.22412393 11.02951036 92.11177885 11.02858226 102 11 C102 11.33 102 11.66 102 12 C74.94 12.33 47.88 12.66 20 13 C21.32 13.33 22.64 13.66 24 14 C24 14.66 24 15.32 24 16 C21.36 16 18.72 16 16 16 C16 14.68 16 13.36 16 12 C11.38 12 6.76 12 2 12 C1.08307039 14.75078884 0.89113917 16.35948913 0.9375 19.1875 C0.958125 20.445625 0.97875 21.70375 1 23 C-1.62187494 21.95125002 -2.79371361 21.35068687 -4.25 18.875 C-4.4975 18.25625 -4.745 17.6375 -5 17 C-4.01 16.67 -3.02 16.34 -2 16 C-2 14.68 -2 13.36 -2 12 C-17.51 12 -33.02 12 -49 12 C-49 8.7 -49 5.4 -49 2 C-48.67 2 -48.34 2 -48 2 C-48 4.97 -48 7.94 -48 11 C-32.49 11 -16.98 11 -1 11 C-0.67 7.37 -0.34 3.74 0 0 Z " fill="#886B9E" transform="translate(144,54)"/>
<path d="M0 0 C1.23492187 -0.03738281 2.46984375 -0.07476562 3.7421875 -0.11328125 C7.125 0.3125 7.125 0.3125 9.5703125 2.20703125 C11.125 4.3125 11.125 4.3125 11.125 6.3125 C8.82223426 8.52997812 7.60019908 9.28010006 4.375 9.5 C3.6325 9.438125 2.89 9.37625 2.125 9.3125 C1.9703125 11.1996875 1.9703125 11.1996875 1.8125 13.125 C1.36753256 16.66001909 0.86773663 17.97609473 -1.875 20.3125 C-3.31126848 22.59606355 -4.57911263 24.94415411 -5.875 27.3125 C-6.865 27.3125 -7.855 27.3125 -8.875 27.3125 C-8.875 18.7325 -8.875 10.1525 -8.875 1.3125 C-5.93776222 -0.15611889 -3.26907643 0.06456596 0 0 Z " fill="#2F4D8C" transform="translate(224.875,144.6875)"/>
<path d="M0 0 C3.55780196 0.60990891 6.6828589 1.5783681 10 3 C10 2.34 10 1.68 10 1 C11.47625398 1.24260512 11.47625398 1.24260512 12.98233128 1.49011135 C17.07992349 2.07196483 21.14953557 2.15277177 25.28269958 2.15821838 C26.08905682 2.16315636 26.89541406 2.16809434 27.72620636 2.17318195 C30.41309069 2.18847177 33.09995129 2.19689434 35.78686523 2.20532227 C37.71890977 2.21490749 39.65095224 2.22491795 41.58299255 2.23532104 C46.817935 2.26230631 52.05288641 2.28335034 57.28785968 2.30332303 C62.76248469 2.325222 68.2370823 2.35259153 73.71168518 2.37937927 C84.07414908 2.42925332 94.43662824 2.47421174 104.79912192 2.51740164 C116.59835235 2.56681924 128.39755529 2.62172058 140.1967591 2.67708123 C164.46448039 2.79082008 188.73222808 2.89767671 213 3 C213 3.33 213 3.66 213 4 C132.48 4 51.96 4 -31 4 C-31 3.67 -31 3.34 -31 3 C-20.77 3 -10.54 3 0 3 C0 2.01 0 1.02 0 0 Z " fill="#7B7478" transform="translate(69,175)"/>
<path d="M0 0 C2.60606665 0.35945747 3.77647209 0.76787487 5.625 2.6875 C7.21807255 5.36675837 8.11883937 8.01761016 9 11 C11.97 11.33 14.94 11.66 18 12 C18 14.97 18 17.94 18 21 C17.21625 20.814375 16.4325 20.62875 15.625 20.4375 C13.02910225 19.74037734 13.02910225 19.74037734 11 21 C12.98 21.66 14.96 22.32 17 23 C16.67 23.99 16.34 24.98 16 26 C15.34 26 14.68 26 14 26 C14 26.66 14 27.32 14 28 C12.03852126 29.38938077 10.03833424 30.7260411 8 32 C7.99742188 31.19175781 7.99484375 30.38351563 7.9921875 29.55078125 C7.93123751 22.64918766 7.93123751 22.64918766 4.1875 17.1875 C2.6096875 16.1046875 2.6096875 16.1046875 1 15 C-1.4019702 11.96555836 -3.05577978 9.22715518 -2.875 5.25 C-2 3 -2 3 0 0 Z " fill="#AECDFA" transform="translate(77,109)"/>
<path d="M0 0 C19.14 0 38.28 0 58 0 C57.67 1.65 57.34 3.3 57 5 C37.97336636 5.10543318 19.000935 5.16036244 0 4 C0 2.68 0 1.36 0 0 Z " fill="#C2C0DB" transform="translate(112,144)"/>
<path d="M0 0 C2.49361571 1.20381448 4.68143083 2.45428722 7 4 C7.1875 7.125 7.1875 7.125 7 10 C8.98 10 10.96 10 13 10 C12.67 10.99 12.34 11.98 12 13 C10.35 13.33 8.7 13.66 7 14 C6.67 15.32 6.34 16.64 6 18 C-0.27 18 -6.54 18 -13 18 C-10.40130286 10.20390858 -6.77734645 4.78400926 0 0 Z " fill="#D3E0F9" transform="translate(217,35)"/>
<path d="M0 0 C3.74973906 -0.11622939 7.49901464 -0.1872595 11.25 -0.25 C12.31347656 -0.28351563 13.37695312 -0.31703125 14.47265625 -0.3515625 C15.49746094 -0.36445312 16.52226562 -0.37734375 17.578125 -0.390625 C18.99206543 -0.4220459 18.99206543 -0.4220459 20.43457031 -0.45410156 C23.76374173 0.13518839 24.92115854 1.39254825 27 4 C27.79043818 7.40160982 27.68738401 10.58012253 27 14 C24.5 16.625 24.5 16.625 22 18 C22.99 18.99 23.98 19.98 25 21 C23.68 21 22.36 21 21 21 C21.66 22.65 22.32 24.3 23 26 C21.68 25.34 20.36 24.68 19 24 C18.67 24.66 18.34 25.32 18 26 C17.34 26 16.68 26 16 26 C15.67 23.36 15.34 20.72 15 18 C9.72 18 4.44 18 -1 18 C-1 17.67 -1 17.34 -1 17 C3.95 17 8.9 17 14 17 C14 15.35 14 13.7 14 12 C15.65 11.67 17.3 11.34 19 11 C19.16681109 8.08347826 19.16681109 8.08347826 19 5 C16.00371461 2.00371461 12.41506529 2.2750714 8.375 1.875 C7.17230469 1.74544922 7.17230469 1.74544922 5.9453125 1.61328125 C3.96436365 1.40103673 1.98227282 1.19950069 0 1 C0 0.67 0 0.34 0 0 Z " fill="#E99757" transform="translate(207,76)"/>
<path d="M0 0 C15.84 0 31.68 0 48 0 C47.67 3.3 47.34 6.6 47 10 C31.49 10 15.98 10 0 10 C0 6.7 0 3.4 0 0 Z M1 2 C1 4.31 1 6.62 1 9 C15.52 9 30.04 9 45 9 C45.33 6.69 45.66 4.38 46 2 C41.92492428 1.95053134 37.84996503 1.91424811 33.7746582 1.89013672 C32.38855952 1.8800843 31.00248201 1.8664403 29.61645508 1.84912109 C27.6233025 1.82484048 25.62999467 1.81457969 23.63671875 1.8046875 C22.43748779 1.79421387 21.23825684 1.78374023 20.00268555 1.77294922 C16.81837173 1.76691928 16.81837173 1.76691928 14 4 C14 4.99 14 5.98 14 7 C13.34 7 12.68 7 12 7 C12 6.01 12 5.02 12 4 C11.01 4 10.02 4 9 4 C9 4.66 9 5.32 9 6 C8.34 6 7.68 6 7 6 C6.67 5.01 6.34 4.02 6 3 C4.35 2.67 2.7 2.34 1 2 Z " fill="#2E1168" transform="translate(96,55)"/>
<path d="M0 0 C1.32 0 2.64 0 4 0 C4 8.25 4 16.5 4 25 C39.64 25 75.28 25 112 25 C112 24.01 112 23.02 112 22 C112.66 22 113.32 22 114 22 C114 21.01 114 20.02 114 19 C112.35 18.67 110.7 18.34 109 18 C109 16.68 109 15.36 109 14 C110.32 14.33 111.64 14.66 113 15 C112.67 15.66 112.34 16.32 112 17 C113.485 17.495 113.485 17.495 115 18 C115.24282966 20.91395593 115.24294905 22.57666832 113.76945782 25.14418411 C112 27 112 27 109.92856312 27.47657394 C108.72700596 27.45998167 108.72700596 27.45998167 107.50117493 27.4430542 C106.57990814 27.4401387 105.65864136 27.43722321 104.7094574 27.43421936 C103.70101273 27.41048752 102.69256805 27.38675568 101.65356445 27.36230469 C100.58998718 27.35313522 99.52640991 27.34396576 98.43060303 27.33451843 C94.90765328 27.29938711 91.38581813 27.23571908 87.86328125 27.171875 C85.42378286 27.14198438 82.98426211 27.11386954 80.54472351 27.08746338 C74.11806498 27.01311168 67.69199376 26.91457826 61.26574707 26.81109619 C54.7105515 26.7097877 48.1550883 26.63122648 41.59960938 26.55078125 C28.73271196 26.38951716 15.86629529 26.20349092 3 26 C1.76939579 23.53879159 1.7942277 21.74223134 1.68359375 18.9921875 C1.64169922 18.00605469 1.59980469 17.01992187 1.55664062 16.00390625 C1.51732422 14.97136719 1.47800781 13.93882812 1.4375 12.875 C1.39431641 11.83472656 1.35113281 10.79445312 1.30664062 9.72265625 C1.2003712 7.14857472 1.09833417 4.57439492 1 2 C0.01 2 -0.98 2 -2 2 C-1.34 1.34 -0.68 0.68 0 0 Z " fill="#B5C4F3" transform="translate(93,136)"/>
<path d="M0 0 C3.2578125 -0.29296875 3.2578125 -0.29296875 7.125 -0.1875 C9.04699219 -0.14689453 9.04699219 -0.14689453 11.0078125 -0.10546875 C11.99523437 -0.07066406 12.98265625 -0.03585938 14 0 C13.67 0.66 13.34 1.32 13 2 C9.04 1.67 5.08 1.34 1 1 C1 1.99 1 2.98 1 4 C0.34 4 -0.32 4 -1 4 C-1 5.32 -1 6.64 -1 8 C0.05091576 7.98120789 0.05091576 7.98120789 1.12306213 7.96203613 C7.84114188 7.84227349 14.5592545 7.72452605 21.27740574 7.60884857 C24.72833229 7.54936238 28.17924358 7.48919063 31.63012695 7.42724609 C40.75315297 7.26392964 49.87633225 7.12291217 59 7 C60.1735907 6.98227539 61.3471814 6.96455078 62.55633545 6.94628906 C65.77584139 6.90098054 68.99513162 6.86976958 72.21484375 6.84375 C73.15719376 6.8288855 74.09954376 6.814021 75.07044983 6.79870605 C75.93270676 6.79487915 76.79496368 6.79105225 77.68334961 6.78710938 C78.79715248 6.77617249 78.79715248 6.77617249 79.93345642 6.76501465 C82.3120677 7.03548502 83.93319227 7.82135218 86 9 C85.67 9.99 85.34 10.98 85 12 C84.505 11.505 84.505 11.505 84 11 C82.22130274 10.84235595 80.43681524 10.74899323 78.65234375 10.68359375 C77.57275391 10.64169922 76.49316406 10.59980469 75.38085938 10.55664062 C73.67639648 10.49766602 73.67639648 10.49766602 71.9375 10.4375 C70.79732422 10.39431641 69.65714844 10.35113281 68.48242188 10.30664062 C65.65510492 10.20017262 62.82756908 10.09954738 60 10 C60 15.94 60 21.88 60 28 C59.67 28 59.34 28 59 28 C59 21.73 59 15.46 59 9 C39.53 9.33 20.06 9.66 0 10 C0 10.66 0 11.32 0 12 C-0.66 11.67 -1.32 11.34 -2 11 C-2.25 3.375 -2.25 3.375 0 0 Z " fill="#C7C1D1" transform="translate(146,66)"/>
<path d="M0 0 C3.5625 0.1875 3.5625 0.1875 5.5625 2.1875 C6.12770003 4.84287372 6.30038198 7.47894713 6.5625 10.1875 C9.45484315 11.01388376 11.44992431 11.1875 14.5625 11.1875 C14.0625 13.125 14.0625 13.125 12.5625 15.1875 C9.51709713 15.9862942 7.6058417 16.4647036 4.5625 16.1875 C2.85999607 14.90024093 1.19185241 13.56618281 -0.4375 12.1875 C-4.14690775 11.85284111 -4.14690775 11.85284111 -7.4375 12.1875 C-7.7675 9.5475 -8.0975 6.9075 -8.4375 4.1875 C-7.7775 4.1875 -7.1175 4.1875 -6.4375 4.1875 C-6.4375 4.8475 -6.4375 5.5075 -6.4375 6.1875 C-5.7775 6.1875 -5.1175 6.1875 -4.4375 6.1875 C-4.458125 5.383125 -4.47875 4.57875 -4.5 3.75 C-4.40421053 -0.1773682 -4.04269526 0.22051065 0 0 Z " fill="#A6C7A0" transform="translate(232.4375,133.8125)"/>
<path d="M0 0 C0 3.63 0 7.26 0 11 C-1.216875 10.896875 -2.43375 10.79375 -3.6875 10.6875 C-9.40540414 10.64197529 -14.07219747 12.71460946 -19.27734375 14.90625 C-22 16 -22 16 -24 16 C-22.67174415 10.35491262 -18.60590378 7.9899488 -14 5 C-9.91046161 2.66312092 -4.8309647 0 0 0 Z " fill="#FA5F1D" transform="translate(261,153)"/>
<path d="M0 0 C0.33 0.66 0.66 1.32 1 2 C4.5643503 2.23701562 8.10789263 2.25095644 11.6796875 2.265625 C15 3 15 3 16.9921875 5.9140625 C18 9 18 9 17.25 11.125 C16.8375 11.74375 16.425 12.3625 16 13 C15.93167969 13.58136719 15.86335938 14.16273438 15.79296875 14.76171875 C14.55067809 18.26828302 11.78971442 20.2960402 9.0625 22.6875 C8.51142578 23.18572266 7.96035156 23.68394531 7.39257812 24.19726562 C3.33081317 27.83459341 3.33081317 27.83459341 1 29 C1.5590888 25.75728494 2.4132178 24.06942576 5 22 C5.66 22 6.32 22 7 22 C7 21.34 7 20.68 7 20 C8.5 18.375 8.5 18.375 10 17 C7.69 16.34 5.38 15.68 3 15 C6 13 6 13 8.1875 13.375 C8.785625 13.58125 9.38375 13.7875 10 14 C10.33 11.36 10.66 8.72 11 6 C10.06027344 6.03480469 10.06027344 6.03480469 9.1015625 6.0703125 C7.87566406 6.09738281 7.87566406 6.09738281 6.625 6.125 C5.81289062 6.14820312 5.00078125 6.17140625 4.1640625 6.1953125 C2 6 2 6 0 4 C0 2.68 0 1.36 0 0 Z " fill="#B3C8F6" transform="translate(84,115)"/>
<path d="M0 0 C1.72974441 0.00015918 3.45949355 0.0058569 5.18920898 0.01586914 C6.09783188 0.01728409 7.00645477 0.01869904 7.94261169 0.02015686 C10.85687494 0.02577346 13.77106254 0.03832874 16.68530273 0.05102539 C18.65600475 0.05603825 20.62670797 0.06060153 22.59741211 0.06469727 C27.43923832 0.07574828 32.28100768 0.09302401 37.12280273 0.11352539 C37.12280273 1.10352539 37.12280273 2.09352539 37.12280273 3.11352539 C35.9570874 3.15110962 35.9570874 3.15110962 34.76782227 3.18945312 C31.26097204 3.30519335 27.75440528 3.42801891 24.24780273 3.55102539 C23.02448242 3.5903418 21.80116211 3.6296582 20.54077148 3.67016602 C18.79086914 3.73300781 18.79086914 3.73300781 17.00561523 3.79711914 C15.92683105 3.83377686 14.84804687 3.87043457 13.73657227 3.90820312 C11.14210738 3.94729182 11.14210738 3.94729182 9.12280273 5.11352539 C6.74497168 5.02514078 4.36935127 4.87006118 1.99780273 4.67602539 C0.71647461 4.57418945 -0.56485352 4.47235352 -1.88500977 4.36743164 C-2.87243164 4.28364258 -3.85985352 4.19985352 -4.87719727 4.11352539 C-4.87719727 -0.38417139 -4.65699234 0.136358 0 0 Z " fill="#CEA891" transform="translate(130.877197265625,123.886474609375)"/>
<path d="M0 0 C15.18 0 30.36 0 46 0 C46 0.99 46 1.98 46 3 C30.49 3 14.98 3 -1 3 C-0.67 2.01 -0.34 1.02 0 0 Z " fill="#8DAAF2" transform="translate(112,149)"/>
<path d="M0 0 C4.62 0 9.24 0 14 0 C11.125 8.875 11.125 8.875 10 10 C7.81360547 10.07258946 5.62499611 10.08373783 3.4375 10.0625 C1.64119141 10.04896484 1.64119141 10.04896484 -0.19140625 10.03515625 C-1.11824219 10.02355469 -2.04507813 10.01195312 -3 10 C-2.36738317 6.30973516 -1.42909641 3.57274103 0 0 Z " fill="#2F456F" transform="translate(140,34)"/>
<path d="M0 0 C1.23492187 -0.03738281 2.46984375 -0.07476562 3.7421875 -0.11328125 C7.125 0.3125 7.125 0.3125 9.5703125 2.20703125 C11.125 4.3125 11.125 4.3125 11.125 6.3125 C10.465 6.3125 9.805 6.3125 9.125 6.3125 C8.465 5.3225 7.805 4.3325 7.125 3.3125 C2.67 3.8075 2.67 3.8075 -1.875 4.3125 C-4.45190214 10.75475535 -5.14845207 15.87540104 -4.8828125 22.80859375 C-4.875 25.3125 -4.875 25.3125 -5.875 27.3125 C-6.865 27.3125 -7.855 27.3125 -8.875 27.3125 C-8.875 18.7325 -8.875 10.1525 -8.875 1.3125 C-5.93776222 -0.15611889 -3.26907643 0.06456596 0 0 Z " fill="#2A395E" transform="translate(224.875,144.6875)"/>
<path d="M0 0 C0.33 0.33 0.66 0.66 1 1 C0.94967696 4.23897404 0.80191211 7.46766733 0.64453125 10.703125 C1.07388783 14.68528936 2.16837487 16.22429565 5 19 C8.54219566 20.0331404 11.55156135 20.47790228 15 19 C15.66 18.01 16.32 17.02 17 16 C17 17.98 17 19.96 17 22 C12.20617448 23.59794184 7.71535131 22.66627517 3 21 C0.75042331 18.83694549 -0.40711687 16.73776788 -2 14 C-2.99 13.67 -3.98 13.34 -5 13 C-6.86254323 9.54099114 -8.07091295 7.08733186 -7.8125 3.125 C-6.3491806 -0.70214305 -3.6799024 -0.18871294 0 0 Z " fill="#9EB3DF" transform="translate(82,96)"/>
<path d="M0 0 C0.33 0 0.66 0 1 0 C1.495 3.96 1.495 3.96 2 8 C2.66 6.68 3.32 5.36 4 4 C5.24546405 6.49092811 4.7767578 7.41080733 4 10 C3.34 10 2.68 10 2 10 C0.89771304 14.40914783 0.92345464 18.48382401 1 23 C-1.62187494 21.95125002 -2.79371361 21.35068687 -4.25 18.875 C-4.4975 18.25625 -4.745 17.6375 -5 17 C-4.01 16.67 -3.02 16.34 -2 16 C-2 14.68 -2 13.36 -2 12 C-17.51 12 -33.02 12 -49 12 C-49 8.7 -49 5.4 -49 2 C-48.67 2 -48.34 2 -48 2 C-48 4.97 -48 7.94 -48 11 C-32.49 11 -16.98 11 -1 11 C-0.67 7.37 -0.34 3.74 0 0 Z " fill="#9D6D84" transform="translate(144,54)"/>
<path d="M0 0 C5.82746447 2.57094021 8.30278483 6.50212264 11.125 11.9375 C7.00306318 11.9375 4.01620974 11.23456991 0.125 9.9375 C-0.535 9.2775 -1.195 8.6175 -1.875 7.9375 C-5.45843976 7.77072718 -5.45843976 7.77072718 -8.875 7.9375 C-8.875 6.9475 -8.875 5.9575 -8.875 4.9375 C-8.276875 4.669375 -7.67875 4.40125 -7.0625 4.125 C-4.81989213 3.0680255 -4.81989213 3.0680255 -3.375 1.25 C-1.875 -0.0625 -1.875 -0.0625 0 0 Z " fill="#D3E0F8" transform="translate(251.875,36.0625)"/>
<path d="M0 0 C1.58294782 -0.05437607 3.16644256 -0.09296271 4.75 -0.125 C5.63171875 -0.14820312 6.5134375 -0.17140625 7.421875 -0.1953125 C10.1135858 0.00860498 11.69904974 0.63448279 14 2 C14 3.98 14 5.96 14 8 C14.66 8 15.32 8 16 8 C16 7.01 16 6.02 16 5 C16.99 5.33 17.98 5.66 19 6 C18.50168276 9.68754757 17.89932357 11.60490662 15 14 C14.46375 13.236875 13.9275 12.47375 13.375 11.6875 C9.32512285 7.10474428 4.96860732 5.71054849 -1 5 C-0.67 3.35 -0.34 1.7 0 0 Z " fill="#A9D0AE" transform="translate(204,128)"/>
<path d="M0 0 C2.625 0.3125 2.625 0.3125 4.4375 1.75 C6.20134638 5.55619483 5.86316637 9.18428296 5.625 13.3125 C4.305 12.6525 2.985 11.9925 1.625 11.3125 C1.955 10.9825 2.285 10.6525 2.625 10.3125 C2.66563832 8.64632885 2.667721 6.97861905 2.625 5.3125 C0.975 5.6425 -0.675 5.9725 -2.375 6.3125 C-2.375 7.9625 -2.375 9.6125 -2.375 11.3125 C-3.32375 11.704375 -4.2725 12.09625 -5.25 12.5 C-8.71627338 14.51043856 -9.3552693 15.53949642 -10.375 19.3125 C-11.035 19.3125 -11.695 19.3125 -12.375 19.3125 C-12.75 17.1875 -12.75 17.1875 -12.375 14.3125 C-10.99156538 12.71386444 -9.47083807 11.35426924 -7.90625 9.93359375 C-5.48885387 7.3743606 -4.59546422 4.58848291 -3.375 1.3125 C-2.375 0.3125 -2.375 0.3125 0 0 Z " fill="#1B2B4F" transform="translate(133.375,14.6875)"/>
<path d="M0 0 C0.33 0 0.66 0 1 0 C1.33 3.3 1.66 6.6 2 10 C3.65 10 5.3 10 7 10 C7.66 14.29 8.32 18.58 9 23 C5.7 22.01 2.4 21.02 -1 20 C-1.02712351 17.60408962 -1.0468982 15.20849043 -1.0625 12.8125 C-1.07087891 12.13896484 -1.07925781 11.46542969 -1.08789062 10.77148438 C-1.10606538 7.04565869 -0.89299392 3.6211958 0 0 Z " fill="#EA8855" transform="translate(70,155)"/>
<path d="M0 0 C2 1 2 1 2.6328125 2.7578125 C4.22359553 10.40872134 4.66219095 18.20951819 4 26 C3.34 26.66 2.68 27.32 2 28 C1.34 27.67 0.68 27.34 0 27 C-0.33 27.66 -0.66 28.32 -1 29 C-1.14973506 19.28385823 -0.69613269 9.68370295 0 0 Z " fill="#F4601F" transform="translate(72,138)"/>
<path d="M0 0 C29.04 0 58.08 0 88 0 C88 0.33 88 0.66 88 1 C59.95 1 31.9 1 3 1 C3.99 3.97 4.98 6.94 6 10 C3.36335259 7.36335259 1.744776 5.24029829 0 2 C0 1.34 0 0.68 0 0 Z " fill="#382672" transform="translate(157,55)"/>
<path d="M0 0 C2.62401963 1.10917464 3.2933274 2.38775897 4.68359375 4.84375 C6.12548797 7.5066318 6.12548797 7.5066318 7.99609375 9.84375 C8.03673207 11.50992115 8.03881475 13.17763095 7.99609375 14.84375 C7.33609375 14.84375 6.67609375 14.84375 5.99609375 14.84375 C5.66609375 14.18375 5.33609375 13.52375 4.99609375 12.84375 C2.97939548 11.71024466 2.97939548 11.71024466 0.99609375 10.84375 C0.99609375 9.19375 0.99609375 7.54375 0.99609375 5.84375 C0.06796875 5.6271875 0.06796875 5.6271875 -0.87890625 5.40625 C-3.00390625 4.84375 -3.00390625 4.84375 -5.00390625 3.84375 C-3.6063072 7.38893884 -3.6063072 7.38893884 -2.00390625 10.84375 C-3.65390625 10.84375 -5.30390625 10.84375 -7.00390625 10.84375 C-7.31640625 7.59375 -7.31640625 7.59375 -7.00390625 3.84375 C-3.31210297 -0.25825364 -3.31210297 -0.25825364 0 0 Z " fill="#1C2F53" transform="translate(245.00390625,119.15625)"/>
<path d="M0 0 C2.31 0 4.62 0 7 0 C7 4.95 7 9.9 7 15 C2.05 15 -2.9 15 -8 15 C-8 14.67 -8 14.34 -8 14 C-3.38 14 1.24 14 6 14 C5.01 12.68 4.02 11.36 3 10 C2.01 10 1.02 10 0 10 C-1.485 7.03 -1.485 7.03 -3 4 C-2.34 3.67 -1.68 3.34 -1 3 C-1 3.66 -1 4.32 -1 5 C-0.01 5 0.98 5 2 5 C2 4.34 2 3.68 2 3 C1.34 3 0.68 3 0 3 C0 2.01 0 1.02 0 0 Z " fill="#CDDFFE" transform="translate(185,131)"/>
<path d="M0 0 C0.66 0.66 1.32 1.32 2 2 C1.625 5.125 1.625 5.125 1 8 C-0.0725 8.12375 -1.145 8.2475 -2.25 8.375 C-5.45844739 8.90974123 -7.2398668 9.47716789 -10 11 C-11.3242287 11.36784131 -12.65613912 11.71202981 -14 12 C-13.21625 11.319375 -12.4325 10.63875 -11.625 9.9375 C-8.69249662 6.65588908 -8.05177744 4.20710975 -7 0 C-4.29393021 -1.35303489 -2.8671629 -0.7884698 0 0 Z " fill="#FDD49A" transform="translate(225,79)"/>
<path d="M0 0 C0.33 0.66 0.66 1.32 1 2 C-1.64 2.33 -4.28 2.66 -7 3 C-7.33 4.65 -7.66 6.3 -8 8 C-8.66 8 -9.32 8 -10 8 C-10 7.34 -10 6.68 -10 6 C-10.66 6 -11.32 6 -12 6 C-11.67 8.31 -11.34 10.62 -11 13 C-11.95712891 13.07347656 -11.95712891 13.07347656 -12.93359375 13.1484375 C-13.75988281 13.22320312 -14.58617187 13.29796875 -15.4375 13.375 C-16.26121094 13.44460937 -17.08492187 13.51421875 -17.93359375 13.5859375 C-18.61550781 13.72257813 -19.29742187 13.85921875 -20 14 C-20.33 14.66 -20.66 15.32 -21 16 C-21.99 14.68 -22.98 13.36 -24 12 C-22.081875 11.6596875 -22.081875 11.6596875 -20.125 11.3125 C-17.92724118 10.82563545 -17.92724118 10.82563545 -16 10 C-14.51953703 7.63276087 -14.51953703 7.63276087 -14 5 C-13.34 4.01 -12.68 3.02 -12 2 C-11.01 2.66 -10.02 3.32 -9 4 C-8.67 3.01 -8.34 2.02 -8 1 C-5.36 0.67 -2.72 0.34 0 0 Z " fill="#AEC7DB" transform="translate(236,132)"/>
<path d="M0 0 C3.55780196 0.60990891 6.6828589 1.5783681 10 3 C10 2.34 10 1.68 10 1 C12.3431213 1.25561323 14.67843403 1.59270772 17 2 C17.495 2.99 17.495 2.99 18 4 C1.83 4 -14.34 4 -31 4 C-31 3.67 -31 3.34 -31 3 C-20.77 3 -10.54 3 0 3 C0 2.01 0 1.02 0 0 Z " fill="#4F5C77" transform="translate(69,175)"/>
<path d="M0 0 C8.58 0 17.16 0 26 0 C26 0.99 26 1.98 26 3 C17.42 3 8.84 3 0 3 C0 2.01 0 1.02 0 0 Z " fill="#D3A17C" transform="translate(142,144)"/>
<path d="M0 0 C8.58 0 17.16 0 26 0 C26 0.99 26 1.98 26 3 C17.42 3 8.84 3 0 3 C0 2.01 0 1.02 0 0 Z " fill="#D3A17C" transform="translate(112,144)"/>
<path d="M0 0 C1.32 0 2.64 0 4 0 C4.33 0.66 4.66 1.32 5 2 C6.32 2 7.64 2 9 2 C9.33 2.66 9.66 3.32 10 4 C8.68 4.33 7.36 4.66 6 5 C6 5.66 6 6.32 6 7 C5.01 7.495 5.01 7.495 4 8 C3.01 9.485 3.01 9.485 2 11 C2 10.34 2 9.68 2 9 C0.68 8.67 -0.64 8.34 -2 8 C-1.67 7.34 -1.34 6.68 -1 6 C-2.32 5.67 -3.64 5.34 -5 5 C-5 3.68 -5 2.36 -5 1 C-2.03 1.495 -2.03 1.495 1 2 C0.67 1.34 0.34 0.68 0 0 Z " fill="#80AE80" transform="translate(206,145)"/>
<path d="M0 0 C3.48331435 3.01887244 4.79157144 5.56909529 6 10 C-2.57142857 9.14285714 -2.57142857 9.14285714 -6 7 C-6 6.34 -6 5.68 -6 5 C-8.97 4.505 -8.97 4.505 -12 4 C-12 3.67 -12 3.34 -12 3 C-11.30132812 3.03480469 -10.60265625 3.06960937 -9.8828125 3.10546875 C-8.97273437 3.13253906 -8.06265625 3.15960938 -7.125 3.1875 C-6.22007812 3.22230469 -5.31515625 3.25710937 -4.3828125 3.29296875 C-3.59648437 3.19628906 -2.81015625 3.09960938 -2 3 C-1.34 2.01 -0.68 1.02 0 0 Z " fill="#E7E0D7" transform="translate(188,36)"/>
<path d="M0 0 C1.5 1.125 1.5 1.125 3 3 C3.06012319 4.9990961 3.06500629 7.00105673 3 9 C0.70858714 9.05384521 -1.58318188 9.09272087 -3.875 9.125 C-5.78925781 9.15980469 -5.78925781 9.15980469 -7.7421875 9.1953125 C-11 9 -11 9 -13 7 C-13 5.68 -13 4.36 -13 3 C-11.68 3.33 -10.36 3.66 -9 4 C-9 4.66 -9 5.32 -9 6 C-6.03 6.495 -6.03 6.495 -3 7 C-2.87625 6.030625 -2.7525 5.06125 -2.625 4.0625 C-2.41875 3.051875 -2.2125 2.04125 -2 1 C-1.34 0.67 -0.68 0.34 0 0 Z " fill="#C67454" transform="translate(251,137)"/>
<path d="M0 0 C2 1 4 2 6 3 C7.70702735 3.06996014 9.41668003 3.08440154 11.125 3.0625 C12.03507813 3.05347656 12.94515625 3.04445313 13.8828125 3.03515625 C14.93082031 3.01775391 14.93082031 3.01775391 16 3 C16 3.66 16 4.32 16 5 C13.03 5 10.06 5 7 5 C7.350625 5.804375 7.70125 6.60875 8.0625 7.4375 C9.24462815 11.92958699 9.3665304 15.5375448 8 20 C6.26100455 22.6301704 4.28129313 24.83032977 2 27 C1.34 26.67 0.68 26.34 0 26 C0.804375 25.236875 1.60875 24.47375 2.4375 23.6875 C6.23125921 19.70867936 6.2820625 16.45108064 6.22265625 11.21484375 C5.9180676 8.18498822 4.84529781 6.39205272 3 4 C2.443125 3.236875 1.88625 2.47375 1.3125 1.6875 C0.879375 1.130625 0.44625 0.57375 0 0 Z " fill="#325281" transform="translate(122,101)"/>
<path d="M0 0 C9.8877551 -0.58163265 9.8877551 -0.58163265 14 3 C14 3.99 14 4.98 14 6 C9.71 6 5.42 6 1 6 C1.33 4.35 1.66 2.7 2 1 C1.34 0.67 0.68 0.34 0 0 Z " fill="#BEBED0" transform="translate(110,100)"/>
<path d="M0 0 C3.11650396 1.50053894 6.13149298 3.06181958 9 5 C9.33 5.99 9.66 6.98 10 8 C5.71 8 1.42 8 -3 8 C-1 2 -1 2 0 0 Z " fill="#7B9AE4" transform="translate(181,137)"/>
<path d="M0 0 C3.2578125 -0.29296875 3.2578125 -0.29296875 7.125 -0.1875 C9.04699219 -0.14689453 9.04699219 -0.14689453 11.0078125 -0.10546875 C11.99523437 -0.07066406 12.98265625 -0.03585938 14 0 C13 3 13 3 11.2265625 4.171875 C8.79585003 5.07592946 6.96104401 5.26729795 4.375 5.25 C3.59898438 5.25515625 2.82296875 5.2603125 2.0234375 5.265625 C0 5 0 5 -2 3 C-1.34 2.01 -0.68 1.02 0 0 Z " fill="#BFC2D4" transform="translate(110,124)"/>
<path d="M0 0 C0.66 0 1.32 0 2 0 C2.66 1.32 3.32 2.64 4 4 C6.31 4 8.62 4 11 4 C10.5 5.9375 10.5 5.9375 9 8 C2.14511352 9.65844028 2.14511352 9.65844028 -1.5 7.5625 C-1.995 7.046875 -2.49 6.53125 -3 6 C-2.42655063 3.13275314 -2.1385485 2.1385485 0 0 Z " fill="#F6E4CC" transform="translate(236,141)"/>
<path d="M0 0 C1.33998047 0.31324219 1.33998047 0.31324219 2.70703125 0.6328125 C3.60808594 0.83648437 4.50914063 1.04015625 5.4375 1.25 C6.46810547 1.50136719 6.46810547 1.50136719 7.51953125 1.7578125 C2.85286458 6.42447917 -1.81380208 11.09114583 -6.48046875 15.7578125 C-6.81046875 14.7678125 -7.14046875 13.7778125 -7.48046875 12.7578125 C-6.19081699 11.38218396 -4.85357582 10.05014857 -3.48046875 8.7578125 C-2.82046875 8.7578125 -2.16046875 8.7578125 -1.48046875 8.7578125 C-1.48046875 8.0978125 -1.48046875 7.4378125 -1.48046875 6.7578125 C0.01953125 5.1328125 0.01953125 5.1328125 1.51953125 3.7578125 C-0.79046875 3.0978125 -3.10046875 2.4378125 -5.48046875 1.7578125 C-2.48046875 -0.2421875 -2.48046875 -0.2421875 0 0 Z " fill="#B7C1D5" transform="translate(92.48046875,128.2421875)"/>
<path d="M0 0 C2.97 0.99 5.94 1.98 9 3 C8.67 3.99 8.34 4.98 8 6 C7.34 6 6.68 6 6 6 C6 6.66 6 7.32 6 8 C4.03852126 9.38938077 2.03833424 10.7260411 0 12 C0 8.04 0 4.08 0 0 Z " fill="#E2EDF6" transform="translate(85,129)"/>
<path d="M0 0 C3.96 0 7.92 0 12 0 C11 5 11 5 9 9 C4.71 9 0.42 9 -4 9 C-4 8.67 -4 8.34 -4 8 C-2.72125 7.855625 -1.4425 7.71125 -0.125 7.5625 C2.25692894 7.29357254 3.84452691 7.07773654 6 6 C6.65555119 3.47266765 6.65555119 3.47266765 7 1 C4.69 1 2.38 1 0 1 C0 0.67 0 0.34 0 0 Z " fill="#182851" transform="translate(141,35)"/>
<path d="M0 0 C3.3 0.33 6.6 0.66 10 1 C10 3.97 10 6.94 10 10 C8.51180543 9.0980639 7.03467187 8.17785871 5.5625 7.25 C4.73878906 6.73953125 3.91507812 6.2290625 3.06640625 5.703125 C1 4 1 4 0 0 Z " fill="#E9F5FD" transform="translate(85,120)"/>
<path d="M0 0 C0 1.98 0 3.96 0 6 C-0.99 6 -1.98 6 -3 6 C-3 7.32 -3 8.64 -3 10 C-4.9375 9.375 -4.9375 9.375 -7 8 C-7.75 4.875 -7.75 4.875 -8 2 C-4.77208445 -0.1519437 -3.71599191 -0.20086443 0 0 Z " fill="#1B3056" transform="translate(82,96)"/>
<path d="M0 0 C2.475 0.495 2.475 0.495 5 1 C5.33 1.99 5.66 2.98 6 4 C6.66 4 7.32 4 8 4 C8 3.34 8 2.68 8 2 C8.99 2 9.98 2 11 2 C11 3.32 11 4.64 11 6 C8.59454362 7.20272819 7.05003047 7.10071472 4.375 7.0625 C3.14910156 7.04896484 3.14910156 7.04896484 1.8984375 7.03515625 C0.95871094 7.01775391 0.95871094 7.01775391 0 7 C0 4.69 0 2.38 0 0 Z " fill="#31177C" transform="translate(97,57)"/>
<path d="M0 0 C4.90579632 0.42049683 6.7185393 2.47843242 10 6 C11.96296057 7.71642761 13.97718225 9.35352044 16 11 C15.67 11.99 15.34 12.98 15 14 C14.46375 13.236875 13.9275 12.47375 13.375 11.6875 C9.32512285 7.10474428 4.96860732 5.71054849 -1 5 C-0.67 3.35 -0.34 1.7 0 0 Z " fill="#A0C99A" transform="translate(204,128)"/>
<path d="M0 0 C6.93359375 2.1484375 6.93359375 2.1484375 9 3 C9.33 3.66 9.66 4.32 10 5 C8.68 5 7.36 5 6 5 C6.66 6.65 7.32 8.3 8 10 C6.68 9.34 5.36 8.68 4 8 C3.67 8.66 3.34 9.32 3 10 C2.34 10 1.68 10 1 10 C0.67 6.7 0.34 3.4 0 0 Z " fill="#243358" transform="translate(222,92)"/>
<path d="M0 0 C2.31 0 4.62 0 7 0 C7.75 1.75 7.75 1.75 8 4 C6.0625 6.25 6.0625 6.25 4 8 C2.35 6.68 0.7 5.36 -1 4 C-0.67 2.68 -0.34 1.36 0 0 Z " fill="#D4E1F9" transform="translate(226,35)"/>
<path d="M0 0 C0.66 0 1.32 0 2 0 C2 2.31 2 4.62 2 7 C7.61 7 13.22 7 19 7 C18.67 7.66 18.34 8.32 18 9 C15.18743719 9.02684312 12.37512759 9.04676188 9.5625 9.0625 C8.76005859 9.07087891 7.95761719 9.07925781 7.13085938 9.08789062 C5.08704779 9.0965143 3.04316098 9.0522815 1 9 C0 8 0 8 -0.09765625 6.15234375 C-0.06510417 4.1015625 -0.03255208 2.05078125 0 0 Z " fill="#EA8D70" transform="translate(126,46)"/>
<path d="M0 0 C3.96 1.98 3.96 1.98 8 4 C8 4.66 8 5.32 8 6 C2.58823529 10 2.58823529 10 0 10 C0 6.7 0 3.4 0 0 Z " fill="#7191DD" transform="translate(192,108)"/>
<path d="M0 0 C0 0.66 0 1.32 0 2 C-7.59 2 -15.18 2 -23 2 C-23 1.34 -23 0.68 -23 0 C-15.19744856 -1.21074074 -7.84402334 -0.72526532 0 0 Z " fill="#BC7352" transform="translate(150,44)"/>
<path d="M0 0 C1.98 0.495 1.98 0.495 4 1 C3.34 1 2.68 1 2 1 C2.02320312 2.08539063 2.04640625 3.17078125 2.0703125 4.2890625 C2.0890827 5.73436807 2.10728156 7.17968115 2.125 8.625 C2.15013672 9.69427734 2.15013672 9.69427734 2.17578125 10.78515625 C2.21684602 15.2612164 1.69086567 18.77949278 0 23 C-0.33 23 -0.66 23 -1 23 C-0.67 15.41 -0.34 7.82 0 0 Z " fill="#F5DED1" transform="translate(70,137)"/>
<path d="M0 0 C2.31 0 4.62 0 7 0 C8.20272819 2.40545638 8.10071472 3.94996953 8.0625 6.625 C8.05347656 7.44226563 8.04445312 8.25953125 8.03515625 9.1015625 C8.02355469 9.72804688 8.01195312 10.35453125 8 11 C6.68 10.34 5.36 9.68 4 9 C4.33 8.67 4.66 8.34 5 8 C5.04063832 6.33382885 5.042721 4.66611905 5 3 C4.67 3.33 4.34 3.66 4 4 C2.33382885 4.04063832 0.66611905 4.042721 -1 4 C-0.67 2.68 -0.34 1.36 0 0 Z " fill="#283352" transform="translate(131,17)"/>
<path d="M0 0 C0.66 0 1.32 0 2 0 C1.875 3.3125 1.875 3.3125 1 7 C-2.65860532 9.57765375 -5.55660943 10.39206387 -10 10 C-8.25 7.5 -8.25 7.5 -6 5 C-4.68 5 -3.36 5 -2 5 C-1.855625 4.360625 -1.71125 3.72125 -1.5625 3.0625 C-1 1 -1 1 0 0 Z " fill="#F2D1B3" transform="translate(221,168)"/>
<path d="M0 0 C0.33 0 0.66 0 1 0 C1.3690205 16.8929385 1.3690205 16.8929385 -1 24 C-1.33 24 -1.66 24 -2 24 C-2.23658921 15.73252149 -1.81344335 8.07953776 0 0 Z " fill="#F8DECD" transform="translate(84,150)"/>
<path d="M0 0 C0.35880399 5.3820598 0.35880399 5.3820598 -1.125 7.9375 C-3.92670027 9.52513015 -5.96985644 8.74070176 -9 8 C-8.01 7.67 -7.02 7.34 -6 7 C-6 5.35 -6 3.7 -6 2 C-1.125 0 -1.125 0 0 0 Z " fill="#D2B19B" transform="translate(137,19)"/>
<path d="M0 0 C0.66 0 1.32 0 2 0 C2.66 4.29 3.32 8.58 4 13 C2.02 12.34 0.04 11.68 -2 11 C-1.34 7.37 -0.68 3.74 0 0 Z " fill="#FAD9BD" transform="translate(75,165)"/>
<path d="M0 0 C12.72962881 -0.86140345 12.72962881 -0.86140345 17.3125 2.5 C18.199375 3.325 19.08625 4.15 20 5 C19.67 5.66 19.34 6.32 19 7 C18.34 6.67 17.68 6.34 17 6 C17 6.99 17 7.98 17 9 C16.34 9 15.68 9 15 9 C15 7.02 15 5.04 15 3 C7.575 2.01 7.575 2.01 0 1 C0 0.67 0 0.34 0 0 Z " fill="#AEC6E1" transform="translate(203,127)"/>
<path d="M0 0 C3.7952131 1.49097658 5.61042731 3.75700849 8 7 C4.7 7 1.4 7 -2 7 C-1.34 4.69 -0.68 2.38 0 0 Z " fill="#330E61" transform="translate(149,58)"/>
<path d="M0 0 C0.77040851 6.06696699 1.09706112 11.88514973 1 18 C0.67 18 0.34 18 0 18 C-0.66 13.38 -1.32 8.76 -2 4 C-2.99 4.99 -3.98 5.98 -5 7 C-5.66 7 -6.32 7 -7 7 C-6.67 5.68 -6.34 4.36 -6 3 C-5.34 3 -4.68 3 -4 3 C-4 2.34 -4 1.68 -4 1 C-2 0 -2 0 0 0 Z " fill="#D28360" transform="translate(216,149)"/>
<path d="M0 0 C0.433125 0.45375 0.86625 0.9075 1.3125 1.375 C3.5073685 3.48857707 5.16329889 4.92774602 8.26171875 5.1953125 C9.06222656 5.17210937 9.86273438 5.14890625 10.6875 5.125 C11.49574219 5.10695313 12.30398437 5.08890625 13.13671875 5.0703125 C13.75160156 5.04710937 14.36648437 5.02390625 15 5 C15 5.66 15 6.32 15 7 C12.03 7 9.06 7 6 7 C5.67 7.66 5.34 8.32 5 9 C2.525 8.01 2.525 8.01 0 7 C0 4.69 0 2.38 0 0 Z " fill="#BFC9E1" transform="translate(121,37)"/>
<path d="M0 0 C0 0.99 0 1.98 0 3 C-1.65 3 -3.3 3 -5 3 C-4.34 4.32 -3.68 5.64 -3 7 C-3.66 7.66 -4.32 8.32 -5 9 C-5.33 8.01 -5.66 7.02 -6 6 C-8.01508358 5.26676204 -8.01508358 5.26676204 -10 5 C-9.01 5 -8.02 5 -7 5 C-7 4.34 -7 3.68 -7 3 C-7.99 3 -8.98 3 -10 3 C-10 2.34 -10 1.68 -10 1 C-3.375 0 -3.375 0 0 0 Z " fill="#AACEB6" transform="translate(216,139)"/>
<path d="M0 0 C1.66611905 -0.042721 3.33382885 -0.04063832 5 0 C6 1 6 1 6.0625 3.5625 C6.041875 4.366875 6.02125 5.17125 6 6 C4.02 6 2.04 6 0 6 C-1.125 2.25 -1.125 2.25 0 0 Z " fill="#EF9347" transform="translate(219,80)"/>
<path d="M0 0 C0.4125 0.556875 0.825 1.11375 1.25 1.6875 C5.09145858 6.88316334 5.09145858 6.88316334 10 11 C10 12.32 10 13.64 10 15 C5.14820921 12.98273091 3.31471101 9.55110473 1 5 C0.1875 2 0.1875 2 0 0 Z " fill="#95B3E7" transform="translate(75,118)"/>
<path d="M0 0 C0.33 0.66 0.66 1.32 1 2 C3.58605332 2.4683265 3.58605332 2.4683265 6.5625 2.625 C8.08037109 2.73714844 8.08037109 2.73714844 9.62890625 2.8515625 C10.80259766 2.92503906 10.80259766 2.92503906 12 3 C12 3.66 12 4.32 12 5 C9.77109005 6.11445498 8.46944894 6.16480286 6 6.1875 C4.948125 6.20876953 4.948125 6.20876953 3.875 6.23046875 C2 6 2 6 0 4 C0 2.68 0 1.36 0 0 Z " fill="#99B3E8" transform="translate(84,115)"/>
<path d="M0 0 C1.98 0.66 3.96 1.32 6 2 C6.33 3.98 6.66 5.96 7 8 C5.68 8.33 4.36 8.66 3 9 C0.70620251 5.55930376 0 4.27709699 0 0 Z " fill="#CDAF98" transform="translate(240,123)"/>
<path d="M0 0 C2.96175123 0.61277612 4.38058783 1.25372522 7 3 C9.96842658 3.45915507 9.96842658 3.45915507 13.1875 3.625 C14.27417969 3.69976562 15.36085937 3.77453125 16.48046875 3.8515625 C17.72763672 3.92503906 17.72763672 3.92503906 19 4 C19 4.66 19 5.32 19 6 C9.76495462 7.8673805 9.76495462 7.8673805 5.48828125 5.765625 C3.51004566 4.27395723 1.69989097 2.80217667 0 1 C0 0.67 0 0.34 0 0 Z " fill="#B8C1DB" transform="translate(119,98)"/>
<path d="M0 0 C0.66 0 1.32 0 2 0 C2 0.66 2 1.32 2 2 C3.051875 1.835 4.10375 1.67 5.1875 1.5 C8.20468796 1.10430322 10.97093972 0.90821029 14 1 C14 1.99 14 2.98 14 4 C9.71 4 5.42 4 1 4 C0.67 2.68 0.34 1.36 0 0 Z " fill="#AEC1E4" transform="translate(117,83)"/>
<path d="M0 0 C2 1 4 2 6 3 C7.70702735 3.06996014 9.41668003 3.08440154 11.125 3.0625 C12.03507813 3.05347656 12.94515625 3.04445313 13.8828125 3.03515625 C14.93082031 3.01775391 14.93082031 3.01775391 16 3 C16 3.66 16 4.32 16 5 C12.29749549 5.71326707 8.77344438 6.23849016 5 6 C2.46317285 4.25324402 1.60358061 2.70949827 0 0 Z " fill="#9D7962" transform="translate(122,101)"/>
<path d="M0 0 C0.33 0 0.66 0 1 0 C1.04898438 0.73605469 1.09796875 1.47210938 1.1484375 2.23046875 C1.22320312 3.20628906 1.29796875 4.18210938 1.375 5.1875 C1.44460937 6.15042969 1.51421875 7.11335937 1.5859375 8.10546875 C2.00215853 11.01508938 2.79874096 13.32890774 4 16 C3.01 16 2.02 16 1 16 C-0.74511597 10.76465209 -1.2857653 6.52479577 -1 1 C-0.67 0.67 -0.34 0.34 0 0 Z " fill="#FCE6D7" transform="translate(204,162)"/>
<path d="M0 0 C0.33 0 0.66 0 1 0 C1.0270043 1.45823212 1.04639787 2.91660675 1.0625 4.375 C1.07410156 5.18710938 1.08570312 5.99921875 1.09765625 6.8359375 C1 9 1 9 0 11 C-1.65 11 -3.3 11 -5 11 C-5 10.34 -5 9.68 -5 9 C-4.34 9 -3.68 9 -3 9 C-3 7.68 -3 6.36 -3 5 C-2.01 5 -1.02 5 0 5 C0 3.35 0 1.7 0 0 Z " fill="#CCAC96" transform="translate(82,97)"/>
<path d="M0 0 C0.66 0.33 1.32 0.66 2 1 C1.67 1.33 1.34 1.66 1 2 C2.65 2 4.3 2 6 2 C6 2.66 6 3.32 6 4 C1.8803623 5.29243536 -1.66831683 6.26252625 -6 6 C-4 4 -2 2 0 0 Z " fill="#BBC0CA" transform="translate(87,79)"/>
<path d="M0 0 C0 2 0 2 -1.609375 3.62109375 C-2.66898438 4.52021484 -2.66898438 4.52021484 -3.75 5.4375 C-4.79414062 6.33275391 -4.79414062 6.33275391 -5.859375 7.24609375 C-7.86673589 8.89081098 -9.91070312 10.46126108 -12 12 C-11.4409112 8.75728494 -10.5867822 7.06942576 -8 5 C-7.34 5 -6.68 5 -6 5 C-6 4.34 -6 3.68 -6 3 C-2.53846154 0 -2.53846154 0 0 0 Z " fill="#5670A8" transform="translate(97,132)"/>
<path d="M0 0 C0.99 0.33 1.98 0.66 3 1 C3 2.98 3 4.96 3 7 C3.66 7.33 4.32 7.66 5 8 C3.35 9.32 1.7 10.64 0 12 C0 8.04 0 4.08 0 0 Z " fill="#EBF3FA" transform="translate(85,129)"/>
<path d="M0 0 C2.64 0 5.28 0 8 0 C8.33 0.66 8.66 1.32 9 2 C6.4345406 4.5654594 4.52313332 4.54046087 1 5 C0.67 3.35 0.34 1.7 0 0 Z " fill="#9CB7F3" transform="translate(129,107)"/>
<path d="M0 0 C2.7839183 1.39195915 2.97898997 3.15575779 4 6 C3.01 6.495 3.01 6.495 2 7 C0.86649466 9.01669827 0.86649466 9.01669827 0 11 C-0.33 11 -0.66 11 -1 11 C-1.02688151 9.35425434 -1.04634123 7.70838587 -1.0625 6.0625 C-1.07410156 5.14597656 -1.08570313 4.22945312 -1.09765625 3.28515625 C-1 1 -1 1 0 0 Z " fill="#F36C2B" transform="translate(146,52)"/>
<path d="M0 0 C0.33 0 0.66 0 1 0 C1.19477739 1.62414378 1.38059458 3.24936423 1.5625 4.875 C1.66691406 5.77992188 1.77132812 6.68484375 1.87890625 7.6171875 C2 10 2 10 1 12 C0.01 12 -0.98 12 -2 12 C-1.85831863 10.56208484 -1.71148957 9.1246763 -1.5625 7.6875 C-1.48128906 6.88699219 -1.40007812 6.08648437 -1.31640625 5.26171875 C-1 3 -1 3 0 0 Z " fill="#3A4573" transform="translate(218,160)"/>
<path d="M0 0 C1.32 0.66 2.64 1.32 4 2 C2.02 2.99 2.02 2.99 0 4 C0 4.66 0 5.32 0 6 C-0.99 6.495 -0.99 6.495 -2 7 C-2.99 8.485 -2.99 8.485 -4 10 C-4 9.34 -4 8.68 -4 8 C-4.99 7.67 -5.98 7.34 -7 7 C-6.195625 6.566875 -5.39125 6.13375 -4.5625 5.6875 C-1.72153646 4.19525998 -1.72153646 4.19525998 -1 1 C-0.67 0.67 -0.34 0.34 0 0 Z " fill="#96B289" transform="translate(212,146)"/>
<path d="M0 0 C0.66 0 1.32 0 2 0 C2.25 2.3125 2.25 2.3125 2 5 C0.1875 6.8125 0.1875 6.8125 -2 8 C-2.99 8 -3.98 8 -5 8 C-4 6 -3 4 -2 2 C-1.34 2 -0.68 2 0 2 C0 1.34 0 0.68 0 0 Z " fill="#E9B788" transform="translate(236,136)"/>
<path d="M0 0 C1.32 0.33 2.64 0.66 4 1 C3.67 1.66 3.34 2.32 3 3 C3.99 3.33 4.98 3.66 6 4 C6.26218749 7.14624993 6.24754367 8.61837017 4.5 11.3125 C3.7575 12.1478125 3.7575 12.1478125 3 13 C3 11.35 3 9.7 3 8 C3.66 8 4.32 8 5 8 C5 7.01 5 6.02 5 5 C3.35 4.67 1.7 4.34 0 4 C0 2.68 0 1.36 0 0 Z " fill="#B8BCC4" transform="translate(202,150)"/>
<path d="M0 0 C1.65 1.32 3.3 2.64 5 4 C4.34 5.32 3.68 6.64 3 8 C1.02 8 -0.96 8 -3 8 C-3 7.34 -3 6.68 -3 6 C-1.35 6 0.3 6 2 6 C2 5.01 2 4.02 2 3 C1.34 3 0.68 3 0 3 C0 2.01 0 1.02 0 0 Z " fill="#A9D2A7" transform="translate(214,136)"/>
<path d="M0 0 C0.66 0.33 1.32 0.66 2 1 C1.01 2.485 1.01 2.485 0 4 C-2.625 4.1875 -2.625 4.1875 -5 4 C-5.12375 4.78375 -5.2475 5.5675 -5.375 6.375 C-6 9 -6 9 -8 11 C-7.67 8.36 -7.34 5.72 -7 3 C-5.5459375 2.5359375 -5.5459375 2.5359375 -4.0625 2.0625 C-1.15934208 1.30476658 -1.15934208 1.30476658 0 0 Z " fill="#D57B56" transform="translate(234,151)"/>
<path d="M0 0 C0.66 0.33 1.32 0.66 2 1 C1.01 2.32 0.02 3.64 -1 5 C-0.34 5 0.32 5 1 5 C0.67 5.66 0.34 6.32 0 7 C-1.65 7 -3.3 7 -5 7 C-5 6.01 -5 5.02 -5 4 C-2.5 1.8125 -2.5 1.8125 0 0 Z " fill="#C3C7A0" transform="translate(232,139)"/>
<path d="M0 0 C-2.51699845 2.51699845 -4.57554146 3.10964078 -8 4 C-10.375 3.625 -10.375 3.625 -12 3 C-8.2391768 -0.7608232 -5.0273023 -0.25136512 0 0 Z " fill="#E8DFD8" transform="translate(99,78)"/>
<path d="M0 0 C1.98 0 3.96 0 6 0 C5.49396008 2.16874252 5.00016187 3.99967627 4 6 C3.34 6 2.68 6 2 6 C1.34 4.02 0.68 2.04 0 0 Z " fill="#ACCACD" transform="translate(202,134)"/>
<path d="M0 0 C1.11375 0.185625 2.2275 0.37125 3.375 0.5625 C6.82568861 1.31680657 6.82568861 1.31680657 9 0 C9.99 0.66 10.98 1.32 12 2 C12 2.66 12 3.32 12 4 C3.42857143 3.28571429 3.42857143 3.28571429 0 0 Z " fill="#BDC1CE" transform="translate(182,42)"/>
<path d="M0 0 C1.32 1.32 2.64 2.64 4 4 C3.67 4.99 3.34 5.98 3 7 C0.525 6.01 0.525 6.01 -2 5 C-1.34 3.35 -0.68 1.7 0 0 Z " fill="#E1D7CC" transform="translate(188,36)"/>
<path d="M0 0 C1.65 0 3.3 0 5 0 C5.66 1.65 6.32 3.3 7 5 C5.68 4.34 4.36 3.68 3 3 C2.67 3.66 2.34 4.32 2 5 C1.34 5 0.68 5 0 5 C0 3.35 0 1.7 0 0 Z " fill="#2F4370" transform="translate(223,97)"/>
<path d="M0 0 C0.99 0 1.98 0 3 0 C3.33 0.99 3.66 1.98 4 3 C1.69 4.32 -0.62 5.64 -3 7 C-3 6.01 -3 5.02 -3 4 C-2.34 4 -1.68 4 -1 4 C-0.67 2.68 -0.34 1.36 0 0 Z " fill="#EFE2D2" transform="translate(85,76)"/>
<path d="M0 0 C0.66 0 1.32 0 2 0 C2 4.29 2 8.58 2 13 C1.67 11.68 1.34 10.36 1 9 C0.34 9 -0.32 9 -1 9 C-0.67 6.03 -0.34 3.06 0 0 Z " fill="#BB9C9E" transform="translate(83,137)"/>
<path d="M0 0 C0.99 0 1.98 0 3 0 C3 0.66 3 1.32 3 2 C3.66 2 4.32 2 5 2 C5 1.34 5 0.68 5 0 C5.99 0 6.98 0 8 0 C8 0.99 8 1.98 8 3 C2.25 4.125 2.25 4.125 0 3 C0 2.01 0 1.02 0 0 Z " fill="#9989C5" transform="translate(100,59)"/>
<path d="M0 0 C3 2 3 2 3.6875 4.625 C3.790625 5.40875 3.89375 6.1925 4 7 C2.35 6.67 0.7 6.34 -1 6 C-0.67 4.02 -0.34 2.04 0 0 Z " fill="#E0E5EB" transform="translate(75,171)"/>
<path d="M0 0 C1.40907283 2.81814566 0.50872691 4.17277204 -0.4375 7.125 C-0.72496094 8.03507813 -1.01242188 8.94515625 -1.30859375 9.8828125 C-1.53675781 10.58148438 -1.76492187 11.28015625 -2 12 C-2.8212231 8.88067679 -3.33244056 6.24129547 -3 3 C-1.5 1.1875 -1.5 1.1875 0 0 Z " fill="#D6845D" transform="translate(225,162)"/>
<path d="M0 0 C0.99 0 1.98 0 3 0 C1.95125002 2.62187494 1.35068687 3.79371361 -1.125 5.25 C-1.74375 5.4975 -2.3625 5.745 -3 6 C-2.67 4.68 -2.34 3.36 -2 2 C-1.34 2 -0.68 2 0 2 C0 1.34 0 0.68 0 0 Z " fill="#D98346" transform="translate(212,150)"/>
<path d="M0 0 C1.98 0.99 1.98 0.99 4 2 C4 3.32 4 4.64 4 6 C2.68 6 1.36 6 0 6 C0 4.02 0 2.04 0 0 Z " fill="#7499EF" transform="translate(193,110)"/>
<path d="M0 0 C1.32 0 2.64 0 4 0 C4 0.66 4 1.32 4 2 C1.35541621 3.32229189 -0.67761301 3.09677194 -3.625 3.0625 C-4.62789062 3.05347656 -5.63078125 3.04445313 -6.6640625 3.03515625 C-7.43492187 3.02355469 -8.20578125 3.01195313 -9 3 C-9 2.67 -9 2.34 -9 2 C-6.03 2 -3.06 2 0 2 C0 1.34 0 0.68 0 0 Z " fill="#BFC1DD" transform="translate(138,104)"/>
<path d="M0 0 C1.32 0 2.64 0 4 0 C3.34 1.32 2.68 2.64 2 4 C-0.97 3.505 -0.97 3.505 -4 3 C-2.68 2.67 -1.36 2.34 0 2 C0 1.34 0 0.68 0 0 Z " fill="#FED6B0" transform="translate(243,145)"/>
<path d="M0 0 C1.32 0 2.64 0 4 0 C4 0.99 4 1.98 4 3 C4.99 3.33 5.98 3.66 7 4 C6.01 5.485 6.01 5.485 5 7 C4.67 6.01 4.34 5.02 4 4 C1.98491642 3.26676204 1.98491642 3.26676204 0 3 C0.99 3 1.98 3 3 3 C3 2.34 3 1.68 3 1 C2.01 0.67 1.02 0.34 0 0 Z " fill="#A3C5C3" transform="translate(206,141)"/>
<path d="M0 0 C1.65 0.33 3.3 0.66 5 1 C4.67 1.99 4.34 2.98 4 4 C2.35 3.67 0.7 3.34 -1 3 C-0.67 2.01 -0.34 1.02 0 0 Z " fill="#ABCEB7" transform="translate(229,134)"/>
<path d="M0 0 C2.475 0.99 2.475 0.99 5 2 C4.67 2.66 4.34 3.32 4 4 C3.34 3.67 2.68 3.34 2 3 C2 3.99 2 4.98 2 6 C1.34 6 0.68 6 0 6 C0 4.02 0 2.04 0 0 Z " fill="#ACCAD3" transform="translate(218,130)"/>
<path d="M0 0 C2.475 0.99 2.475 0.99 5 2 C4.34 3.32 3.68 4.64 3 6 C0 2.25 0 2.25 0 0 Z " fill="#E8622A" transform="translate(252,136)"/>
<path d="M0 0 C0.99 1.32 1.98 2.64 3 4 C2.67 4.66 2.34 5.32 2 6 C1.01 6 0.02 6 -1 6 C-1.625 4.125 -1.625 4.125 -2 2 C-1.34 1.34 -0.68 0.68 0 0 Z " fill="#EEB68B" transform="translate(244,126)"/>
<path d="M0 0 C1.32 0.66 2.64 1.32 4 2 C4 2.33 4 2.66 4 3 C0.04 3 -3.92 3 -8 3 C-8 2.67 -8 2.34 -8 2 C-5.36 2 -2.72 2 0 2 C0 1.34 0 0.68 0 0 Z " fill="#BAC5E0" transform="translate(120,101)"/>
<path d="M0 0 C0.99 0.33 1.98 0.66 3 1 C3.94921875 3.06640625 3.94921875 3.06640625 4.6875 5.5625 C4.93886719 6.38878906 5.19023437 7.21507812 5.44921875 8.06640625 C5.63097656 8.70449219 5.81273437 9.34257813 6 10 C3.44765282 7.54774487 1.68581342 5.13079636 0 2 C0 1.34 0 0.68 0 0 Z " fill="#3D1252" transform="translate(157,55)"/>
</svg>
