<?xml version="1.0" encoding="UTF-8"?>
<svg version="1.1" xmlns="http://www.w3.org/2000/svg" width="322" height="180">
<path d="M0 0 C106.26 0 212.52 0 322 0 C322 59.4 322 118.8 322 180 C215.74 180 109.48 180 0 180 C0 120.6 0 61.2 0 0 Z " fill="#EAF1FA" transform="translate(0,0)"/>
<path d="M0 0 C37.62 0 75.24 0 114 0 C114 0.33 114 0.66 114 1 C113.15179688 1.20753906 112.30359375 1.41507812 111.4296875 1.62890625 C98.42525067 5.04435724 83.92593342 9.89851034 76.2578125 21.67578125 C70.34098358 32.13639505 68.28191397 42.66301694 67.01269531 54.4987793 C64.78165007 75.08904896 60.75455991 93.25922254 46.078125 108.734375 C37.78298277 117.77795111 35.1295962 127.84150695 35.58984375 139.93359375 C36.3836952 150.50251886 42.01811529 159.53913604 48 168 C48.44859375 168.72703125 48.8971875 169.4540625 49.359375 170.203125 C51.6426229 173.50711902 53.02880496 174.79429117 57.04296875 175.64453125 C60.04680358 175.90864334 62.98591814 176.03414009 66 176 C66 176.33 66 176.66 66 177 C59.4 177 52.8 177 46 177 C46 177.66 46 178.32 46 179 C124.54 179 203.08 179 284 179 C284 178.34 284 177.68 284 177 C278.06 177 272.12 177 266 177 C266 176.67 266 176.34 266 176 C268.97 176 271.94 176 275 176 C275.268125 175.030625 275.53625 174.06125 275.8125 173.0625 C276.86293721 169.37096352 278.07196698 165.7434331 279.31640625 162.11328125 C283.72401537 148.48747248 280.91724801 136.02736268 274.8359375 123.5625 C274.4433374 122.75087402 274.0507373 121.93924805 273.64624023 121.10302734 C272.86764052 119.50682715 272.07395958 117.91785159 271.26196289 116.33837891 C265.76540912 105.26058232 264.53168317 94.2393874 264.75 82 C264.75515625 80.81277344 264.7603125 79.62554687 264.765625 78.40234375 C264.81041543 73.43620443 264.99182232 68.86472572 266 64 C267.11507501 50.14342864 266.98407152 37.61297937 258.3125 26.125 C248.84083761 16.24466182 234.18915389 12.12316361 220.83984375 11.83203125 C218.87244206 11.81705484 216.90495804 11.8109073 214.9375 11.8125 C213.39920532 11.8137085 213.39920532 11.8137085 211.82983398 11.81494141 C202.91749204 11.88682081 194.54362723 12.68601657 185.9375 15.125 C174.19137983 18.09218276 166.06209644 14.70066948 156 9 C149.14386054 5.29158597 142.60518486 2.77839874 135 1 C135 0.67 135 0.34 135 0 C196.71 0 258.42 0 322 0 C322 59.4 322 118.8 322 180 C215.74 180 109.48 180 0 180 C0 120.6 0 61.2 0 0 Z " fill="#FEFEFE" transform="translate(0,0)"/>
<path d="M0 0 C4.62 0 9.24 0 14 0 C13.67 3.63 13.34 7.26 13 11 C12.01 11.33 11.02 11.66 10 12 C11.32 13.32 12.64 14.64 14 16 C13.896875 15.21625 13.79375 14.4325 13.6875 13.625 C14.13502617 8.43369641 16.50507972 4.50867736 19 0 C21.91271644 1.34680915 24.29328277 2.87448745 26.75 4.9375 C27.67039062 5.69353516 27.67039062 5.69353516 28.609375 6.46484375 C30 8 30 8 30 11 C32.31 11 34.62 11 37 11 C37 10.34 37 9.68 37 9 C36.195625 8.87625 35.39125 8.7525 34.5625 8.625 C33.716875 8.41875 32.87125 8.2125 32 8 C31.505 7.01 31.505 7.01 31 6 C31.68102783 5.99589111 32.36205566 5.99178223 33.0637207 5.98754883 C36.14753206 5.95466677 39.22935326 5.88403047 42.3125 5.8125 C43.38435547 5.80669922 44.45621094 5.80089844 45.56054688 5.79492188 C46.58857422 5.76591797 47.61660156 5.73691406 48.67578125 5.70703125 C50.0975769 5.68346558 50.0975769 5.68346558 51.5480957 5.65942383 C54.72075743 5.11046929 54.72075743 5.11046929 57 0 C66.24 0 75.48 0 85 0 C85 37.95 85 75.9 85 115 C86.32 115 87.64 115 89 115 C89 112.03 89 109.06 89 106 C89.680625 106.474375 90.36125 106.94875 91.0625 107.4375 C94.41841956 109.2225636 97.24161481 109.63153086 101 110 C100.67 109.34 100.34 108.68 100 108 C99.93049459 106.45976004 99.91547643 104.91665012 99.9375 103.375 C99.94652344 102.55773437 99.95554687 101.74046875 99.96484375 100.8984375 C99.97644531 100.27195312 99.98804688 99.64546875 100 99 C102.44220064 101.18766142 103.59127726 103.10261313 104.8125 106.125 C105.74512398 108.25044582 105.74512398 108.25044582 107 110 C110.12133744 111.13478935 110.12133744 111.13478935 113 111 C113.38897161 112.62171239 113.76078298 114.24754925 114.125 115.875 C114.43824219 117.23238281 114.43824219 117.23238281 114.7578125 118.6171875 C114.87769531 119.79667969 114.87769531 119.79667969 115 121 C113 123 113 123 109.7421875 123.1953125 C108.46601563 123.17210937 107.18984375 123.14890625 105.875 123.125 C103.95300781 123.09792969 103.95300781 123.09792969 101.9921875 123.0703125 C101.00476563 123.04710937 100.01734375 123.02390625 99 123 C99.66 122.34 100.32 121.68 101 121 C101.99 121 102.98 121 104 121 C101.27533603 118.14559013 99.22612053 116.10288 95.13362122 115.75949097 C93.96780014 115.76393219 92.80197906 115.76837341 91.60083008 115.77294922 C90.95665634 115.77265717 90.3124826 115.77236511 89.64878845 115.77206421 C87.52223177 115.77345616 85.39602663 115.78901062 83.26953125 115.8046875 C81.79408459 115.80841812 80.31863545 115.81126486 78.84318542 115.81326294 C74.96169178 115.82089558 71.08034804 115.84054083 67.19891357 115.8626709 C63.23744739 115.88313731 59.27595695 115.89226635 55.31445312 115.90234375 C47.54290044 115.92378714 39.77147123 115.95791855 32 116 C32 115.67 32 115.34 32 115 C37.61 115 43.22 115 49 115 C49 114.34 49 113.68 49 113 C41.74 113 34.48 113 27 113 C26.34 114.32 25.68 115.64 25 117 C24.34 118.32 23.68 119.64 23 121 C15.41 121 7.82 121 0 121 C0 105.82 0 90.64 0 75 C3.3 75 6.6 75 10 75 C15.05915494 73.26543259 17.86358541 71.93286227 20.5 67.25 C22.29456066 63.03633996 22.39769291 59.53369921 22 55 C21.505 54.505 21.505 54.505 21 54 C21.04640625 54.72445312 21.0928125 55.44890625 21.140625 56.1953125 C21.36959952 62.32855863 21.37311072 66.27231273 17 71 C13.03988235 74.60010695 8.78477906 74.50629195 3.66015625 74.34765625 C-0.1549205 73.84906325 -2.22388218 72.63731193 -5 70 C-8.32177493 65.23878927 -8.77212003 60.63438939 -8 55 C-6.35119358 51.29018555 -4.04854115 48.66747351 -1 46 C2.01490557 44.99503148 4.04181692 44.89664697 7.1875 44.9375 C8.08855469 44.94652344 8.98960937 44.95554688 9.91796875 44.96484375 C10.60503906 44.97644531 11.29210937 44.98804688 12 45 C8.88196601 43.25464401 8.88196601 43.25464401 0 44 C0 29.48 0 14.96 0 0 Z " fill="#EDF5FC" transform="translate(122,54)"/>
<path d="M0 0 C3.06500356 2.93174254 3.93498045 4.2457732 4.3125 8.625 C4.23409717 13.41628383 2.80698686 17.12858999 0 21 C-5.75523585 25.58069792 -9.91012126 26.22507552 -17 26 C-17.66 25.67 -18.32 25.34 -19 25 C-19 40.18 -19 55.36 -19 71 C-11.41 71 -3.82 71 4 71 C4.495 69.02 4.495 69.02 5 67 C6.2434082 64.77441406 6.2434082 64.77441406 8 63 C10.36010742 62.54589844 10.36010742 62.54589844 13.10546875 62.609375 C14.57983398 62.62871094 14.57983398 62.62871094 16.08398438 62.6484375 C17.10814453 62.68195313 18.13230469 62.71546875 19.1875 62.75 C20.22326172 62.76804688 21.25902344 62.78609375 22.32617188 62.8046875 C24.88504284 62.85185563 27.44205842 62.91765943 30 63 C30 63.66 30 64.32 30 65 C30.60055206 64.99111755 31.20110413 64.98223511 31.81985474 64.9730835 C38.08162906 64.88445289 44.34322461 64.82420051 50.60546875 64.78027344 C52.94115438 64.76018291 55.27678987 64.73290539 57.61230469 64.69824219 C60.97343331 64.64961309 64.33389575 64.62700508 67.6953125 64.609375 C68.73615997 64.58872986 69.77700745 64.56808472 70.84939575 64.54681396 C76.83584672 64.54496946 80.50087746 64.87923671 85 69 C85 69.66 85 70.32 85 71 C84.01 71.33 83.02 71.66 82 72 C85.96 72 89.92 72 94 72 C95.06272525 68.81182426 94.95329222 67.85297493 94.2578125 64.68359375 C94.07863281 63.83603516 93.89945313 62.98847656 93.71484375 62.11523438 C93.52019531 61.23158203 93.32554687 60.34792969 93.125 59.4375 C91.24807951 50.83602644 89.8463238 42.33227105 89.875 33.5 C89.87242187 32.6853125 89.86984375 31.870625 89.8671875 31.03125 C90 29 90 29 91 27 C91.66 27 92.32 27 93 27 C98.55689924 38.89608041 100.17355725 49.48067259 100.0625 62.5 C100.05798828 63.51320312 100.05347656 64.52640625 100.04882812 65.5703125 C100.03714593 68.04693827 100.02076582 70.52343657 100 73 C102.64 72.67 105.28 72.34 108 72 C108.66 70.35 109.32 68.7 110 67 C110.99 67.33 111.98 67.66 113 68 C112.34 69.65 111.68 71.3 111 73 C121.56 73 132.12 73 143 73 C143 73.66 143 74.32 143 75 C64.46 75 -14.08 75 -95 75 C-95 74.34 -95 73.68 -95 73 C-83.12 73 -71.24 73 -59 73 C-59 67.39 -59 61.78 -59 56 C-58.34 54.35 -57.68 52.7 -57 51 C-56.64617139 48.8870939 -56.64617139 48.8870939 -56.5859375 46.79296875 C-56.54726562 46.04208984 -56.50859375 45.29121094 -56.46875 44.51757812 C-56.42234375 43.36418945 -56.42234375 43.36418945 -56.375 42.1875 C-56.33632812 41.39923828 -56.29765625 40.61097656 -56.2578125 39.79882812 C-56.16411156 37.8662462 -56.08099221 35.93315624 -56 34 C-51.71 34 -47.42 34 -43 34 C-42.67 34.66 -42.34 35.32 -42 36 C-40.68412059 34.87895467 -39.37239647 33.75303035 -38.0625 32.625 C-37.33160156 31.99851563 -36.60070312 31.37203125 -35.84765625 30.7265625 C-33.91619094 29.12252286 -33.91619094 29.12252286 -33 27 C-34.093125 26.87625 -35.18625 26.7525 -36.3125 26.625 C-40 26 -40 26 -43 24 C-43 25.65 -43 27.3 -43 29 C-48.1154241 25.63843559 -50.3265957 21.32405622 -53 16 C-54.96822886 17.96822886 -54.66248381 21.34808709 -55 24 C-55.33 24 -55.66 24 -56 24 C-56.55309973 10.19299191 -56.55309973 10.19299191 -53 5 C-52.34 4.01 -51.68 3.02 -51 2 C-45.41215324 3.3659181 -45.41215324 3.3659181 -43.375 6.5 C-42.694375 7.7375 -42.694375 7.7375 -42 9 C-38.41196627 11.7906929 -34.33960021 11.14465334 -30 11 C-31.875 14.875 -31.875 14.875 -33 16 C-40.52238806 16.23880597 -40.52238806 16.23880597 -43 15 C-40.60075601 20.59823598 -36.20084968 22.43773653 -31 25 C-29.35 23.68 -27.7 22.36 -26 21 C-26.34224609 20.18208984 -26.34224609 20.18208984 -26.69140625 19.34765625 C-28.82163312 13.75939294 -29.73834678 8.85548388 -28 3 C-27.34 2.67 -26.68 2.34 -26 2 C-26.03480469 2.79664062 -26.06960937 3.59328125 -26.10546875 4.4140625 C-26.44666467 12.6840672 -26.44666467 12.6840672 -23 20 C-19.11353244 23.64356334 -14.74586176 23.49929326 -9.6640625 23.35546875 C-5.91630931 22.85540198 -3.75797849 21.5458263 -1 19 C1.03952129 15.7870555 1.24445947 13.26968124 1.1875 9.5 C1.18105469 8.5615625 1.17460937 7.623125 1.16796875 6.65625 C1.01857816 4.29379415 0.66710889 2.26283335 0 0 Z " fill="#72778D" transform="translate(141,104)"/>
<path d="M0 0 C2 2 2 2 2.125 5.4375 C2.08375 6.613125 2.0425 7.78875 2 9 C1.81430466 12.43328912 1.81430466 12.43328912 4 17 C7.96 17.33 11.92 17.66 16 18 C15.31640625 20.34375 14.6328125 22.6875 13.94921875 25.03125 C14.01464114 28.8559436 14.92324423 31.07296178 17.00944519 34.25671387 C21.3958273 38.09821527 27.74016693 37.08446575 33.26953125 37 C34.50296265 37.01160156 35.73639404 37.02320313 37.00720215 37.03515625 C41.60887423 37.06679937 46.21081216 37.02926134 50.8125 37 C61.104375 37 71.39625 37 82 37 C82 75.94 82 114.88 82 155 C80.68 155 79.36 155 78 155 C78 117.05 78 79.1 78 40 C68.76 40 59.52 40 50 40 C49.67 41.32 49.34 42.64 49 44 C46.47871644 46.52128356 45.48760987 46.29353069 41.9921875 46.4140625 C41.00605469 46.45273437 40.01992187 46.49140625 39.00390625 46.53125 C37.45509766 46.57765625 37.45509766 46.57765625 35.875 46.625 C34.83472656 46.66367187 33.79445312 46.70234375 32.72265625 46.7421875 C30.14861689 46.83664766 27.57458845 46.92221214 25 47 C26.65 47.66 28.3 48.32 30 49 C30 49.66 30 50.32 30 51 C27.69 51 25.38 51 23 51 C22.76539063 50.41734375 22.53078125 49.8346875 22.2890625 49.234375 C20.70847076 46.49468266 18.90598503 45.13016031 16.375 43.25 C15.55773437 42.63640625 14.74046875 42.0228125 13.8984375 41.390625 C13.27195313 40.93171875 12.64546875 40.4728125 12 40 C11.79503906 40.63808594 11.59007812 41.27617188 11.37890625 41.93359375 C10.97478516 43.17302734 10.97478516 43.17302734 10.5625 44.4375 C10.29566406 45.26121094 10.02882812 46.08492187 9.75390625 46.93359375 C9 49 9 49 8 50 C7.92851801 51.35243917 7.91600546 52.70834367 7.9375 54.0625 C7.958125 55.361875 7.97875 56.66125 8 58 C6.2925002 56.71937515 4.62626404 55.38232443 3 54 C3 53.34 3 52.68 3 52 C3.99 51.505 3.99 51.505 5 51 C5.69093896 48.42048126 5.69093896 48.42048126 6.125 45.4375 C6.41375 43.643125 6.7025 41.84875 7 40 C2.38 40 -2.24 40 -7 40 C-7 54.52 -7 69.04 -7 84 C-5.515 83.505 -5.515 83.505 -4 83 C1.26571469 82.60258757 4.4443154 83.3332578 9 86 C8.01 86.495 8.01 86.495 7 87 C6.34 86.67 5.68 86.34 5 86 C-0.70574824 85.47486919 -5.34558286 85.30384521 -10 89 C-10.763125 89.556875 -11.52625 90.11375 -12.3125 90.6875 C-12.869375 91.120625 -13.42625 91.55375 -14 92 C-12.125 88.125 -12.125 88.125 -11 87 C-10.88193992 85.20076102 -10.83264603 83.39696689 -10.81054688 81.59399414 C-10.78547058 79.86198509 -10.78547058 79.86198509 -10.7598877 78.09498596 C-10.74631226 76.83774216 -10.73273682 75.58049835 -10.71875 74.28515625 C-10.69062783 72.3279807 -10.6625004 70.3708052 -10.63405609 68.4136343 C-10.58525208 64.96330857 -10.54284533 61.51290402 -10.5 58.0625 C-10.44891811 53.95262137 -10.39673244 49.84278066 -10.33703613 45.73301697 C-10.3002371 43.17005872 -10.26783242 40.60703309 -10.2401123 38.04396057 C-10.22339478 36.88613571 -10.20667725 35.72831085 -10.18945312 34.53540039 C-10.17066101 33.00104088 -10.17066101 33.00104088 -10.15148926 31.4356842 C-10 29 -10 29 -9 27 C-10.65 27 -12.3 27 -14 27 C-14.34829047 21.1951589 -14.25063466 17.0565428 -11 12 C-9.3125 10.125 -9.3125 10.125 -8 9 C-8.66 8.01 -9.32 7.02 -10 6 C-9.8125 3.9375 -9.8125 3.9375 -9 2 C-5.54754176 -0.30163882 -4.05261287 -0.34490322 0 0 Z " fill="#F97A41" transform="translate(129,14)"/>
<path d="M0 0 C4.11903818 0.35306042 7.2789193 0.90727737 10.4375 3.75 C11.64651009 7.37703026 12.22410475 10.99017363 11.4375 14.75 C9.21631833 17.82173173 8.00883125 18.65373173 4.23828125 19.2890625 C3.08714844 19.31742188 1.93601563 19.34578125 0.75 19.375 C-1.35699528 19.43593646 -3.46459802 19.54518391 -5.5625 19.75 C-5.8925 20.41 -6.2225 21.07 -6.5625 21.75 C-0.6225 22.74 -0.6225 22.74 5.4375 23.75 C4.11645372 29.03418511 1.51217754 32.18780767 -2.5625 35.75 C-6.72526014 36.79069003 -8.17874737 35.97445908 -11.875 33.8125 C-16.17981535 31.09102888 -16.17981535 31.09102888 -24.5625 30.75 C-24.5625 22.17 -24.5625 13.59 -24.5625 4.75 C-17.5625 1.75 -17.5625 1.75 -11.5625 1.75 C-13.5425 6.04 -15.5225 10.33 -17.5625 14.75 C-13.5239382 11.76915677 -11.27140327 9.36700341 -8.875 4.9375 C-6.35621845 0.93277061 -4.73273876 0.10785062 0 0 Z " fill="#D2DFFD" transform="translate(235.5625,53.25)"/>
<path d="M0 0 C0.33 0 0.66 0 1 0 C1 16.83 1 33.66 1 51 C-5.93 51 -12.86 51 -20 51 C-21.75029626 49.24970374 -21.16517305 46.9619619 -21.19116211 44.62841797 C-21.15020175 19.42414381 -21.15020175 19.42414381 -15.5 13.5625 C-12.46867168 11 -12.46867168 11 -10 11 C-10 10.34 -10 9.68 -10 9 C-8.3203125 7.34375 -8.3203125 7.34375 -6.125 5.5 C-4.00964496 3.71066742 -1.95980876 1.95980876 0 0 Z " fill="#ECF3FA" transform="translate(117,126)"/>
<path d="M0 0 C3.06500356 2.93174254 3.93498045 4.2457732 4.3125 8.625 C4.23409717 13.41628383 2.80698686 17.12858999 0 21 C-5.75523585 25.58069792 -9.91012126 26.22507552 -17 26 C-17.66 25.67 -18.32 25.34 -19 25 C-19 40.18 -19 55.36 -19 71 C-11.41 71 -3.82 71 4 71 C4.495 69.515 4.495 69.515 5 68 C5 69.65 5 71.3 5 73 C-4.24 73 -13.48 73 -23 73 C-23.33 56.5 -23.66 40 -24 23 C-26.64 25.64 -29.28 28.28 -32 31 C-32.66 31 -33.32 31 -34 31 C-34 31.66 -34 32.32 -34 33 C-35.6796875 34.62109375 -35.6796875 34.62109375 -37.875 36.4375 C-40.46193722 38.58400884 -42.11184374 40.16776562 -44 43 C-44.33 41.35 -44.66 39.7 -45 38 C-44.20335938 37.31164062 -44.20335938 37.31164062 -43.390625 36.609375 C-39.81675301 33.50506283 -36.28145941 30.41818688 -33 27 C-34.093125 26.87625 -35.18625 26.7525 -36.3125 26.625 C-40 26 -40 26 -43 24 C-43 25.65 -43 27.3 -43 29 C-48.1154241 25.63843559 -50.3265957 21.32405622 -53 16 C-54.96822886 17.96822886 -54.66248381 21.34808709 -55 24 C-55.33 24 -55.66 24 -56 24 C-56.55309973 10.19299191 -56.55309973 10.19299191 -53 5 C-52.34 4.01 -51.68 3.02 -51 2 C-45.41215324 3.3659181 -45.41215324 3.3659181 -43.375 6.5 C-42.92125 7.325 -42.4675 8.15 -42 9 C-38.41196627 11.7906929 -34.33960021 11.14465334 -30 11 C-31.875 14.875 -31.875 14.875 -33 16 C-40.52238806 16.23880597 -40.52238806 16.23880597 -43 15 C-40.60075601 20.59823598 -36.20084968 22.43773653 -31 25 C-29.35 23.68 -27.7 22.36 -26 21 C-26.34224609 20.18208984 -26.34224609 20.18208984 -26.69140625 19.34765625 C-28.82163312 13.75939294 -29.73834678 8.85548388 -28 3 C-27.34 2.67 -26.68 2.34 -26 2 C-26.03480469 2.79664062 -26.06960937 3.59328125 -26.10546875 4.4140625 C-26.44666467 12.6840672 -26.44666467 12.6840672 -23 20 C-19.11353244 23.64356334 -14.74586176 23.49929326 -9.6640625 23.35546875 C-5.91630931 22.85540198 -3.75797849 21.5458263 -1 19 C1.03952129 15.7870555 1.24445947 13.26968124 1.1875 9.5 C1.17783203 8.09234375 1.17783203 8.09234375 1.16796875 6.65625 C1.01857816 4.29379415 0.66710889 2.26283335 0 0 Z " fill="#7E99F6" transform="translate(141,104)"/>
<path d="M0 0 C3 1.875 3 1.875 4.4375 4.375 C5.45742576 10.72120475 6.16017404 16.46871311 3.3125 22.375 C-0.75234844 26.76943074 -3.46389573 28.06157624 -9.4375 28.3125 C-14.38791207 28.1592571 -17.30881209 27.38162851 -21 23.875 C-24.32177493 19.11378927 -24.77212003 14.50938939 -24 8.875 C-22.35119358 5.16518555 -20.04854115 2.54247351 -17 -0.125 C-11.56116906 -1.93794365 -5.43248636 -1.9401737 0 0 Z " fill="#CDDFF9" transform="translate(138,100.125)"/>
<path d="M0 0 C0.33 0 0.66 0 1 0 C1 16.5 1 33 1 50 C0.67 50 0.34 50 0 50 C0 48.02 0 46.04 0 44 C-0.69867188 44.01160156 -1.39734375 44.02320313 -2.1171875 44.03515625 C-3.02726562 44.04417969 -3.93734375 44.05320313 -4.875 44.0625 C-5.77992187 44.07410156 -6.68484375 44.08570313 -7.6171875 44.09765625 C-10 44 -10 44 -12 43 C-11.8125 41.1875 -11.8125 41.1875 -11 39 C-7.33874929 36.07099943 -4.6175429 35.67784584 0 36 C0 35.34 0 34.68 0 34 C-4.64670577 35.18490293 -4.64670577 35.18490293 -9 37.125 C-12.21974399 38.53363799 -14.53766787 38.48594135 -18 38 C-21.02751053 35.545471 -22.76677817 32.6996655 -24 29 C-22.9275 28.855625 -21.855 28.71125 -20.75 28.5625 C-18.08337051 28.16250558 -15.58600271 27.72408076 -13 27 C-13 26.34 -13 25.68 -13 25 C-13.83144531 25.03480469 -14.66289063 25.06960937 -15.51953125 25.10546875 C-17.14955078 25.14607422 -17.14955078 25.14607422 -18.8125 25.1875 C-19.89144531 25.22230469 -20.97039062 25.25710937 -22.08203125 25.29296875 C-25 25 -25 25 -26.859375 23.76953125 C-29.00703177 20.43772127 -28.60866823 16.80063769 -28 13 C-26.24966593 10.48865112 -24.89833752 10.23296769 -22.01171875 9.484375 C-19.31375972 9.13023875 -17.60531584 9.1642522 -15 10 C-12.5098909 12.39254094 -10.60035595 14.8831251 -8.62890625 17.71484375 C-7.20201715 20.09430207 -7.20201715 20.09430207 -5 21 C-6.32 17.7 -7.64 14.4 -9 11 C-6.36 11.33 -3.72 11.66 -1 12 C-0.67 8.04 -0.34 4.08 0 0 Z " fill="#B9CBFB" transform="translate(118,51)"/>
<path d="M0 0 C5.71842998 -0.2039868 8.51092342 0.27735113 13 4 C13 4.66 13 5.32 13 6 C12.36191406 6.12117187 11.72382813 6.24234375 11.06640625 6.3671875 C10.24011719 6.53476563 9.41382813 6.70234375 8.5625 6.875 C7.73878906 7.03742188 6.91507813 7.19984375 6.06640625 7.3671875 C5.38449219 7.57601562 4.70257813 7.78484375 4 8 C3.67 8.66 3.34 9.32 3 10 C3.59167969 9.77183594 4.18335938 9.54367188 4.79296875 9.30859375 C12.80219922 6.39495852 12.80219922 6.39495852 17 8 C20 10 20 10 20.6159668 12.22729492 C20.78092651 13.59011597 20.78092651 13.59011597 20.94921875 14.98046875 C21.07490234 15.98013672 21.20058594 16.97980469 21.33007812 18.00976562 C21.44802734 19.05841797 21.56597656 20.10707031 21.6875 21.1875 C21.88182617 22.73147461 21.88182617 22.73147461 22.08007812 24.30664062 C22.7176924 29.57286223 23.15753393 34.69635779 23 40 C20.6875 40.3125 20.6875 40.3125 18 40 C16.375 37.875 16.375 37.875 15 35 C14.443125 33.906875 13.88625 32.81375 13.3125 31.6875 C12.879375 30.800625 12.44625 29.91375 12 29 C12 32.3 12 35.6 12 39 C8.14966119 39.30198736 5.7064588 39.39466403 2.29223633 37.48730469 C-0.81114969 34.11982181 -0.63888677 31.3005555 -0.48828125 26.953125 C-0.48120651 26.18192322 -0.47413177 25.41072144 -0.46684265 24.6161499 C-0.43891578 22.15976788 -0.37618739 19.70568949 -0.3125 17.25 C-0.28741461 15.58206424 -0.26460185 13.91409264 -0.24414062 12.24609375 C-0.18909562 8.16317873 -0.10284057 4.08197951 0 0 Z " fill="#BBD0FC" transform="translate(211,125)"/>
<path d="M0 0 C5.39165086 5.06007875 6.62529254 13.05963664 8 20 C8.144375 20.72058594 8.28875 21.44117187 8.4375 22.18359375 C8.9834551 25.35695777 9.33388531 28.02440968 8 31 C6.1875 33.3125 6.1875 33.3125 4 35 C0.92564622 34.81367553 -0.37371096 33.75085936 -3 32 C-4.65549531 31.61500109 -6.3222433 31.27206865 -8 31 C-8.495 32.485 -8.495 32.485 -9 34 C-9 31.69 -9 29.38 -9 27 C-9.66 27.33 -10.32 27.66 -11 28 C-13.9375 28.25 -13.9375 28.25 -17 28 C-18.625 26.5625 -18.625 26.5625 -20 25 C-22.10332891 24.28552357 -22.10332891 24.28552357 -24 24 C-24 23.34 -24 22.68 -24 22 C-20.7 22 -17.4 22 -14 22 C-12.85502522 19.13147344 -12.85502522 19.13147344 -13.0625 16.5 C-13 14 -13 14 -11 11 C-10.65762865 9.0487167 -10.65762865 9.0487167 -10.5625 7 C-10.28916963 4.56243076 -10.08821478 3.15682627 -8.875 1 C-5.6166831 -0.73776902 -3.61044681 -0.68473991 0 0 Z " fill="#F38E68" transform="translate(242,96)"/>
<path d="M0 0 C10.56 0 21.12 0 32 0 C32 38.94 32 77.88 32 118 C30.68 118 29.36 118 28 118 C28 80.05 28 42.1 28 3 C18.76 3 9.52 3 0 3 C0 2.01 0 1.02 0 0 Z " fill="#7897E0" transform="translate(179,51)"/>
<path d="M0 0 C4.29 0 8.58 0 13 0 C13 1.32 13 2.64 13 4 C12.34 4 11.68 4 11 4 C11.33 4.66 11.66 5.32 12 6 C13.69875557 11.09626672 13.30833885 15.82197078 12 21 C11.86070644 22.36676632 11.75634699 23.7374567 11.68359375 25.109375 C11.64169922 25.86347656 11.59980469 26.61757812 11.55664062 27.39453125 C11.51732422 28.17183594 11.47800781 28.94914062 11.4375 29.75 C11.39431641 30.54277344 11.35113281 31.33554688 11.30664062 32.15234375 C11.20097009 34.10137815 11.10002034 36.05066748 11 38 C9.58566794 38.2236337 8.16832382 38.42826476 6.75 38.625 C5.96109375 38.74101562 5.1721875 38.85703125 4.359375 38.9765625 C1.67847541 39.00319395 0.27305911 38.36592084 -2 37 C-2 37.99 -2 38.98 -2 40 C-5.63 40 -9.26 40 -13 40 C-13 39.67 -13 39.34 -13 39 C-9.7 39 -6.4 39 -3 39 C-3.02320312 37.83082031 -3.04640625 36.66164062 -3.0703125 35.45703125 C-3.08907821 33.90886058 -3.10727755 32.36068297 -3.125 30.8125 C-3.14175781 30.04357422 -3.15851563 29.27464844 -3.17578125 28.48242188 C-3.21379667 24.05362582 -2.69888432 21.11850744 -1 17 C-0.61619147 14.06992295 -0.4937433 11.1387657 -0.375 8.1875 C-0.33632812 7.39923828 -0.29765625 6.61097656 -0.2578125 5.79882812 C-0.16411156 3.8662462 -0.08099221 1.93315624 0 0 Z " fill="#F98C63" transform="translate(85,138)"/>
<path d="M0 0 C6.6 0.6 6.6 0.6 9 3 C10.64991582 3.70710678 12.31562256 4.37943989 14 5 C14.01458252 5.55349121 14.02916504 6.10698242 14.04418945 6.67724609 C14.30032857 20.01261148 14.30032857 20.01261148 17.35546875 32.90234375 C18.95087386 38.09466221 18.58422813 42.6124582 16.5 47.5625 C16.005 48.366875 15.51 49.17125 15 50 C12.36 50 9.72 50 7 50 C6.98018066 49.38592285 6.96036133 48.7718457 6.93994141 48.13916016 C6.84346198 45.30074617 6.73429198 42.46294843 6.625 39.625 C6.5940625 38.65949219 6.563125 37.69398438 6.53125 36.69921875 C6.16825354 27.68480675 4.64999151 19.48974853 1.6640625 10.984375 C0.89478406 8.68559 0.38582785 6.39213266 0 4 C-0.66 4 -1.32 4 -2 4 C-1 1 -1 1 0 0 Z " fill="#819DF8" transform="translate(234,127)"/>
<path d="M0 0 C1.09920273 0.00222061 2.19840546 0.00444122 3.33091736 0.00672913 C4.57212845 0.00680466 5.81333954 0.00688019 7.09216309 0.00695801 C8.45682311 0.01206541 9.82148274 0.01728142 11.18614197 0.02259827 C12.57476755 0.02446251 13.96339379 0.02588638 15.35202026 0.02688599 C19.01319686 0.03071065 22.67433402 0.04054048 26.335495 0.05158997 C30.06890835 0.06180519 33.80232805 0.06638384 37.53575134 0.07142639 C44.86584748 0.08216281 52.19591108 0.0992386 59.52598572 0.12025452 C59.24754822 1.54337952 59.24754822 1.54337952 58.96348572 2.99525452 C58.23911939 6.01894245 58.23911939 6.01894245 59.52598572 8.12025452 C39.06598572 8.12025452 18.60598572 8.12025452 -2.47401428 8.12025452 C-2.80401428 5.81025452 -3.13401428 3.50025452 -3.47401428 1.12025452 C-2.47401428 0.12025452 -2.47401428 0.12025452 0 0 Z " fill="#EA6E3A" transform="translate(156.47401428222656,169.87974548339844)"/>
<path d="M0 0 C0.10826289 2.4178712 0.18739789 4.83087556 0.25 7.25 C0.30027344 8.27287109 0.30027344 8.27287109 0.3515625 9.31640625 C0.41782608 12.72898047 0.4275203 14.52223505 -1.89453125 17.1171875 C-2.58933594 17.73851562 -3.28414062 18.35984375 -4 19 C-5.14865828 21.81609177 -5.14865828 21.81609177 -5.9375 24.875 C-7.57280368 30.06613843 -8.84778354 33.42716258 -13 37 C-16.8125 37.875 -16.8125 37.875 -20 38 C-19.835 36.80375 -19.67 35.6075 -19.5 34.375 C-18.97682482 30.13593954 -19.14743669 26.13498523 -19.375 21.875 C-19.45453025 15.75117104 -19.45453025 15.75117104 -17.515625 12.546875 C-15.75778398 10.75997876 -14.14656489 9.29182412 -12 8 C-11.34 8 -10.68 8 -10 8 C-10 7.34 -10 6.68 -10 6 C-8.5390625 4.74609375 -8.5390625 4.74609375 -6.625 3.4375 C-5.99851562 3.00308594 -5.37203125 2.56867188 -4.7265625 2.12109375 C-1.45993031 0 -1.45993031 0 0 0 Z " fill="#DEE9FB" transform="translate(117,129)"/>
<path d="M0 0 C2 2 2 2 2.125 5.4375 C2.08375 6.613125 2.0425 7.78875 2 9 C1.78503321 12.03314071 1.78503321 12.03314071 3.25 14.625 C4.20566626 18.92549819 3.46351864 21.24198609 1.5390625 25.13671875 C-0.38259036 27.4631868 -1.47546701 27.75350757 -4.4375 28.125 C-7.72597603 28.17383875 -10.82637552 27.92137485 -14 27 C-14.34829047 21.1951589 -14.25063466 17.0565428 -11 12 C-9.3125 10.125 -9.3125 10.125 -8 9 C-8.66 8.01 -9.32 7.02 -10 6 C-9.8125 3.9375 -9.8125 3.9375 -9 2 C-5.54754176 -0.30163882 -4.05261287 -0.34490322 0 0 Z " fill="#839EF8" transform="translate(129,14)"/>
<path d="M0 0 C2.44220064 2.18766142 3.59127726 4.10261313 4.8125 7.125 C5.74512398 9.25044582 5.74512398 9.25044582 7 11 C10.12133744 12.13478935 10.12133744 12.13478935 13 12 C13.38897161 13.62171239 13.76078298 15.24754925 14.125 16.875 C14.43824219 18.23238281 14.43824219 18.23238281 14.7578125 19.6171875 C14.87769531 20.79667969 14.87769531 20.79667969 15 22 C13 24 13 24 9.7421875 24.1953125 C8.46601563 24.17210937 7.18984375 24.14890625 5.875 24.125 C3.95300781 24.09792969 3.95300781 24.09792969 1.9921875 24.0703125 C0.51105469 24.03550781 0.51105469 24.03550781 -1 24 C-0.34 23.34 0.32 22.68 1 22 C1.99 22 2.98 22 4 22 C1.27533603 19.14559013 -0.77387947 17.10288 -4.86637878 16.75949097 C-6.03219986 16.76393219 -7.19802094 16.76837341 -8.39916992 16.77294922 C-9.04334366 16.77265717 -9.6875174 16.77236511 -10.35121155 16.77206421 C-12.47776823 16.77345616 -14.60397337 16.78901062 -16.73046875 16.8046875 C-18.20591541 16.80841812 -19.68136455 16.81126486 -21.15681458 16.81326294 C-25.03830822 16.82089558 -28.91965196 16.84054083 -32.80108643 16.8626709 C-36.76255261 16.88313731 -40.72404305 16.89226635 -44.68554688 16.90234375 C-52.45709956 16.92378714 -60.22852877 16.95791855 -68 17 C-68 16.67 -68 16.34 -68 16 C-49.19 16 -30.38 16 -11 16 C-11 13.03 -11 10.06 -11 7 C-9.9790625 7.7115625 -9.9790625 7.7115625 -8.9375 8.4375 C-5.58158044 10.2225636 -2.75838519 10.63153086 1 11 C0.505 10.01 0.505 10.01 0 9 C-0.06950541 7.45976004 -0.08452357 5.91665012 -0.0625 4.375 C-0.05347656 3.55773437 -0.04445313 2.74046875 -0.03515625 1.8984375 C-0.02355469 1.27195313 -0.01195312 0.64546875 0 0 Z " fill="#E7E5E9" transform="translate(222,153)"/>
<path d="M0 0 C0.66 0 1.32 0 2 0 C9.40915979 15.86135665 9.09036726 29.87284651 8 47 C5.36 47 2.72 47 0 47 C1.32 46.01 2.64 45.02 4 44 C3.88406494 43.38592285 3.76812988 42.7718457 3.64868164 42.13916016 C3.11559754 39.30190593 2.58902148 36.46347911 2.0625 33.625 C1.88009766 32.65949219 1.69769531 31.69398438 1.50976562 30.69921875 C0.03031049 22.68326186 -1.1515258 14.66994527 -1.125 6.5 C-1.12757813 5.6853125 -1.13015625 4.870625 -1.1328125 4.03125 C-1 2 -1 2 0 0 Z " fill="#5378F3" transform="translate(232,131)"/>
<path d="M0 0 C2.69990662 1.79993774 4.5418865 3.083773 6 6 C6.48602588 10.29322859 6.46241608 12.32082639 4 15.9375 C0.66476514 18.23047397 -1.10007055 18.76173735 -5.0625 18.4765625 C-8.61497432 17.60276841 -10.01078114 15.9838283 -12 13 C-12.75608333 10.13727226 -12.81144575 7.85444748 -12 5 C-8.36438899 0.84501599 -5.54577572 -1.06195705 0 0 Z " fill="#C7D3EC" transform="translate(174,145)"/>
<path d="M0 0 C2 1 2 1 3 3 C14.88 3.33 26.76 3.66 39 4 C39 4.66 39 5.32 39 6 C32.565 6.495 32.565 6.495 26 7 C26 7.66 26 8.32 26 9 C29.3 9.33 32.6 9.66 36 10 C36 10.66 36 11.32 36 12 C21.66666667 12 7.33333333 12 -7 12 C-7 11.34 -7 10.68 -7 10 C-5.68 10.33 -4.36 10.66 -3 11 C-3 10.34 -3 9.68 -3 9 C-3.66 9 -4.32 9 -5 9 C-4.67 7.68 -4.34 6.36 -4 5 C-4.99 4.67 -5.98 4.34 -7 4 C-1.7265625 0.77734375 -1.7265625 0.77734375 0 0 Z " fill="#C7D4EF" transform="translate(135,128)"/>
<path d="M0 0 C0.66 0 1.32 0 2 0 C1.67 5.94 1.34 11.88 1 18 C-4.28 18 -9.56 18 -15 18 C-15.020625 15.545625 -15.04125 13.09125 -15.0625 10.5625 C-15.071604 9.78849854 -15.08070801 9.01449707 -15.09008789 8.21704102 C-15.09724913 6.47778283 -15.05024702 4.73854696 -15 3 C-12.66824807 0.66824807 -7.0611792 1.47328917 -3.90625 1.28125 C-1.10949868 1.3214011 -1.10949868 1.3214011 0 0 Z " fill="#F8F2E6" transform="translate(198,127)"/>
<path d="M0 0 C0.66 0 1.32 0 2 0 C1.67 5.94 1.34 11.88 1 18 C-4.28 18 -9.56 18 -15 18 C-15.020625 15.545625 -15.04125 13.09125 -15.0625 10.5625 C-15.071604 9.78849854 -15.08070801 9.01449707 -15.09008789 8.21704102 C-15.09724913 6.47778283 -15.05024702 4.73854696 -15 3 C-12.66824807 0.66824807 -7.0611792 1.47328917 -3.90625 1.28125 C-1.10949868 1.3214011 -1.10949868 1.3214011 0 0 Z " fill="#F7F3E9" transform="translate(198,104)"/>
<path d="M0 0 C0.66 0 1.32 0 2 0 C1.67 5.94 1.34 11.88 1 18 C-4.28 18 -9.56 18 -15 18 C-15.020625 15.545625 -15.04125 13.09125 -15.0625 10.5625 C-15.071604 9.78849854 -15.08070801 9.01449707 -15.09008789 8.21704102 C-15.09724913 6.47778283 -15.05024702 4.73854696 -15 3 C-12.66824807 0.66824807 -7.0611792 1.47328917 -3.90625 1.28125 C-1.10949868 1.3214011 -1.10949868 1.3214011 0 0 Z " fill="#F8F3E6" transform="translate(198,81)"/>
<path d="M0 0 C1.98 0.99 1.98 0.99 4 2 C4 17.51 4 33.02 4 49 C11.59 49 19.18 49 27 49 C27.33 48.01 27.66 47.02 28 46 C28 47.65 28 49.3 28 51 C18.76 51 9.52 51 0 51 C0 34.17 0 17.34 0 0 Z " fill="#799AE9" transform="translate(118,126)"/>
<path d="M0 0 C2.34757549 2.7667854 4.36442793 5.52376523 6.125 8.6875 C7.78363067 11.96166066 7.78363067 11.96166066 10 14 C10.33 12.68 10.66 11.36 11 10 C14.3 10.99 17.6 11.98 21 13 C19.84906278 16.45281166 18.6794007 17.38082163 15.9375 19.6875 C14.83728516 20.62142578 14.83728516 20.62142578 13.71484375 21.57421875 C13.14894531 22.04472656 12.58304688 22.51523438 12 23 C11.67 22.01 11.34 21.02 11 20 C6.71 20 2.42 20 -2 20 C-3.4241906 17.15161879 -3.16995508 14.67212092 -3.1875 11.5 C-3.20876953 9.75203125 -3.20876953 9.75203125 -3.23046875 7.96875 C-3 5 -3 5 -1 3 C-0.67 2.01 -0.34 1.02 0 0 Z " fill="#869DF3" transform="translate(87,118)"/>
<path d="M0 0 C0.33 0 0.66 0 1 0 C1 6.27 1 12.54 1 19 C4.96 18.505 4.96 18.505 9 18 C9.66 16.35 10.32 14.7 11 13 C11.99 13.33 12.98 13.66 14 14 C13.34 15.65 12.68 17.3 12 19 C22.56 19 33.12 19 44 19 C44 19.66 44 20.32 44 21 C35.16848225 21.06942341 26.33705802 21.12277203 17.50532722 21.15543652 C13.40465807 21.17111161 9.3041752 21.1923831 5.20361328 21.22631836 C1.24843381 21.25884669 -2.70656617 21.27683912 -6.66186905 21.28463173 C-8.17301384 21.29018704 -9.68414849 21.30103491 -11.19521713 21.31719017 C-13.30728352 21.33887859 -15.41860242 21.34197066 -17.53076172 21.34057617 C-18.73433319 21.34723801 -19.93790466 21.35389984 -21.177948 21.36076355 C-22.10922516 21.24171158 -23.04050232 21.12265961 -24 21 C-26 18 -26 18 -25.6875 15.4375 C-25 13 -25 13 -24 11 C-20.05879291 11.56302958 -17.2491277 12.6791945 -14 15 C-14 15.66 -14 16.32 -14 17 C-14.99 17.33 -15.98 17.66 -17 18 C-11.39 18.66 -5.78 19.32 0 20 C0 13.4 0 6.8 0 0 Z " fill="#8C8DAB" transform="translate(240,158)"/>
<path d="M0 0 C5.61 0 11.22 0 17 0 C17 0.99 17 1.98 17 3 C12.38 3 7.76 3 3 3 C3 17.52 3 32.04 3 47 C4.485 46.505 4.485 46.505 6 46 C11.26571469 45.60258757 14.4443154 46.3332578 19 49 C18.01 49.495 18.01 49.495 17 50 C16.34 49.67 15.68 49.34 15 49 C9.29425176 48.47486919 4.65441714 48.30384521 0 52 C-0.763125 52.556875 -1.52625 53.11375 -2.3125 53.6875 C-2.869375 54.120625 -3.42625 54.55375 -4 55 C-2.125 51.125 -2.125 51.125 -1 50 C-0.87736612 48.43551617 -0.82220478 46.86567228 -0.79467773 45.29663086 C-0.77473251 44.29566879 -0.75478729 43.29470673 -0.73423767 42.26341248 C-0.71752518 41.1748848 -0.70081268 40.08635712 -0.68359375 38.96484375 C-0.66281265 37.85645645 -0.64203156 36.74806915 -0.62062073 35.60609436 C-0.55500377 32.04996192 -0.49618404 28.49375297 -0.4375 24.9375 C-0.39432632 22.53319507 -0.35071242 20.12889801 -0.30664062 17.72460938 C-0.19931003 11.81648553 -0.09807721 5.90828441 0 0 Z " fill="#6784CC" transform="translate(119,51)"/>
<path d="M0 0 C9.9 0 19.8 0 30 0 C30 1.98 30 3.96 30 6 C28 8 28 8 25.47802734 8.22705078 C24.4411377 8.21657715 23.40424805 8.20610352 22.3359375 8.1953125 C21.21445313 8.18886719 20.09296875 8.18242188 18.9375 8.17578125 C17.761875 8.15902344 16.58625 8.14226563 15.375 8.125 C13.59996094 8.11146484 13.59996094 8.11146484 11.7890625 8.09765625 C8.85917477 8.07402812 5.9296866 8.04108514 3 8 C0 2.25 0 2.25 0 0 Z " fill="#294282" transform="translate(149,51)"/>
<path d="M0 0 C2 2 2 2 2.125 4.625 C2.08375 5.40875 2.0425 6.1925 2 7 C-2.90019386 9.23704502 -7.77452574 10.89435315 -12.9609375 12.3515625 C-14.9724539 12.8192661 -14.9724539 12.8192661 -16 14 C-17.68608966 14.07205511 -19.37500659 14.08386068 -21.0625 14.0625 C-21.98160156 14.05347656 -22.90070313 14.04445313 -23.84765625 14.03515625 C-24.55792969 14.02355469 -25.26820313 14.01195312 -26 14 C-18.84289389 5.24422758 -11.93990365 -1.01185624 0 0 Z " fill="#D1DEFC" transform="translate(215,37)"/>
<path d="M0 0 C0.66 0.33 1.32 0.66 2 1 C2.12527514 8.5165084 2.12527514 8.5165084 1.51367188 10.87695312 C1.00096434 12.99601431 0.7988974 14.93507751 0.68359375 17.109375 C0.64169922 17.86347656 0.59980469 18.61757812 0.55664062 19.39453125 C0.51732422 20.17183594 0.47800781 20.94914062 0.4375 21.75 C0.39431641 22.54277344 0.35113281 23.33554688 0.30664062 24.15234375 C0.20097009 26.10137815 0.10002034 28.05066748 0 30 C-1.41433206 30.2236337 -2.83167618 30.42826476 -4.25 30.625 C-5.43335938 30.79902344 -5.43335938 30.79902344 -6.640625 30.9765625 C-9.32152459 31.00319395 -10.72694089 30.36592084 -13 29 C-13 29.99 -13 30.98 -13 32 C-16.63 32 -20.26 32 -24 32 C-24 31.67 -24 31.34 -24 31 C-20.7 31 -17.4 31 -14 31 C-14.02320312 29.81921875 -14.04640625 28.6384375 -14.0703125 27.421875 C-14.08907497 25.86458967 -14.10727466 24.30729748 -14.125 22.75 C-14.14175781 21.97269531 -14.15851563 21.19539063 -14.17578125 20.39453125 C-14.23662606 13.27568856 -14.23662606 13.27568856 -12 10 C-10.23537317 13.08809695 -10 14.23312136 -10 18 C-8.68 18 -7.36 18 -6 18 C-5.67 20.97 -5.34 23.94 -5 27 C-3.68 27.33 -2.36 27.66 -1 28 C-1.00785522 27.10075806 -1.00785522 27.10075806 -1.01586914 26.18334961 C-1.03681443 23.43474398 -1.04971556 20.68615522 -1.0625 17.9375 C-1.07087891 16.99455078 -1.07925781 16.05160156 -1.08789062 15.08007812 C-1.10581103 9.9369232 -0.89259611 5.06741573 0 0 Z " fill="#E6987C" transform="translate(96,146)"/>
<path d="M0 0 C0.33 1.32 0.66 2.64 1 4 C0.26394531 4.56847656 -0.47210938 5.13695312 -1.23046875 5.72265625 C-7.74395519 10.75930375 -7.74395519 10.75930375 -12.9375 17.0625 C-13.9584375 18.5165625 -13.9584375 18.5165625 -15 20 C-16.32 20 -17.64 20 -19 20 C-17.75256993 11.26798949 -14.26427483 5.452032 -7.375 -0.125 C-4.50353148 -1.18290946 -2.88645278 -0.90717087 0 0 Z " fill="#D2DEFB" transform="translate(200,31)"/>
<path d="M0 0 C0 8.91 0 17.82 0 27 C-5.09551556 23.94269066 -6.1295692 23.31596123 -8 18 C-8.55504555 13.68889275 -8.5279284 10.18783889 -6.75 6.1875 C-1.8 0 -1.8 0 0 0 Z " fill="#96B6EF" transform="translate(122,100)"/>
<path d="M0 0 C2.31 0 4.62 0 7 0 C7 0.99 7 1.98 7 3 C7.66 2.01 8.32 1.02 9 0 C11.625 -0.1875 11.625 -0.1875 14 0 C14 0.66 14 1.32 14 2 C12.68 1.67 11.36 1.34 10 1 C10.495 1.99 10.495 1.99 11 3 C11.99 3.33 12.98 3.66 14 4 C13.67 5.65 13.34 7.3 13 9 C15.475 9.495 15.475 9.495 18 10 C18 10.33 18 10.66 18 11 C2.82 11 -12.36 11 -28 11 C-28 10.67 -28 10.34 -28 10 C-18.43 9.67 -8.86 9.34 1 9 C0.67 8.67 0.34 8.34 0 8 C-0.14115161 5.32941149 -0.04247107 2.67567762 0 0 Z " fill="#BFC9E5" transform="translate(169,69)"/>
<path d="M0 0 C3.625 0.6875 3.625 0.6875 5.15625 2.234375 C8.08167584 6.62251376 9.29807188 10.45665011 9.625 15.6875 C6.3125 15.125 6.3125 15.125 2.625 13.6875 C0.75 10.25 0.75 10.25 -0.375 6.6875 C-0.705 5.6975 -1.035 4.7075 -1.375 3.6875 C-2.365 4.1825 -2.365 4.1825 -3.375 4.6875 C-3.045 7.6575 -2.715 10.6275 -2.375 13.6875 C-3.365 14.0175 -4.355 14.3475 -5.375 14.6875 C-6.74695574 15.98105827 -8.08682656 17.31048702 -9.375 18.6875 C-9.22804687 17.96820313 -9.08109375 17.24890625 -8.9296875 16.5078125 C-8.57719433 14.71555851 -8.24648977 12.91877514 -7.9453125 11.1171875 C-7.79835937 10.27414063 -7.65140625 9.43109375 -7.5 8.5625 C-7.35820312 7.71429688 -7.21640625 6.86609375 -7.0703125 5.9921875 C-5.81963579 1.84668603 -4.18632967 0.85277086 0 0 Z " fill="#172C56" transform="translate(238.375,95.3125)"/>
<path d="M0 0 C0.268125 0.763125 0.53625 1.52625 0.8125 2.3125 C1.94424112 4.87380884 2.91223401 6.19692938 5 8 C3.35 9.98 1.7 11.96 0 14 C-2.96175123 13.38722388 -4.38058783 12.74627478 -7 11 C-8.65549531 10.61500109 -10.3222433 10.27206865 -12 10 C-12.33 10.99 -12.66 11.98 -13 13 C-13 11.35 -13 9.7 -13 8 C-11.68 7.67 -10.36 7.34 -9 7 C-9.33 6.01 -9.66 5.02 -10 4 C-6.58908673 0.88145073 -4.68377325 -0.53528837 0 0 Z " fill="#C79187" transform="translate(246,117)"/>
<path d="M0 0 C4.29 0 8.58 0 13 0 C12.01 3.3 11.02 6.6 10 10 C4.39 10 -1.22 10 -7 10 C-5.68 9.34 -4.36 8.68 -3 8 C-1.88526866 6.06896092 -1.88526866 6.06896092 -1.25 3.875 C-0.8375 2.59625 -0.425 1.3175 0 0 Z " fill="#203662" transform="translate(132,32)"/>
<path d="M0 0 C0.66 0 1.32 0 2 0 C2.72750788 1.40691607 3.43140353 2.82606022 4.125 4.25 C4.51945312 5.03890625 4.91390625 5.8278125 5.3203125 6.640625 C6 9 6 9 5.4296875 11.109375 C3.6238955 13.49736224 1.62867212 14.61648836 -1 16 C-2.65499311 14.93071226 -4.29875626 13.84402808 -5.9375 12.75 C-6.85402344 12.14671875 -7.77054687 11.5434375 -8.71484375 10.921875 C-11 9 -11 9 -12 5 C-8.7 5 -5.4 5 -2 5 C0.0745356 1.59628479 0.0745356 1.59628479 0 0 Z " fill="#DAE7FB" transform="translate(110,114)"/>
<path d="M0 0 C0.66 0 1.32 0 2 0 C1.67 5.94 1.34 11.88 1 18 C-4.28 18 -9.56 18 -15 18 C-15.020625 15.545625 -15.04125 13.09125 -15.0625 10.5625 C-15.071604 9.78849854 -15.08070801 9.01449707 -15.09008789 8.21704102 C-15.09724913 6.47778283 -15.05024702 4.73854696 -15 3 C-14 2 -14 2 -11.49609375 1.90234375 C-9.98208984 1.91974609 -9.98208984 1.91974609 -8.4375 1.9375 C-7.42558594 1.94652344 -6.41367188 1.95554687 -5.37109375 1.96484375 C-4.19740234 1.98224609 -4.19740234 1.98224609 -3 2 C-3 2.66 -3 3.32 -3 4 C-6.63 4 -10.26 4 -14 4 C-14 8.29 -14 12.58 -14 17 C-9.71 17 -5.42 17 -1 17 C-1.33 14.36 -1.66 11.72 -2 9 C-2.928125 10.485 -2.928125 10.485 -3.875 12 C-4.57625 12.99 -5.2775 13.98 -6 15 C-6.66 15 -7.32 15 -8 15 C-10.1875 12.6875 -10.1875 12.6875 -12 10 C-11.67 9.01 -11.34 8.02 -11 7 C-10.54625 7.495 -10.0925 7.99 -9.625 8.5 C-8.12364481 10.22609337 -8.12364481 10.22609337 -6 10 C-4.47987963 7.74572728 -4.47987963 7.74572728 -3 5 C-1.4375 2.1875 -1.4375 2.1875 0 0 Z " fill="#D5DDEA" transform="translate(198,81)"/>
<path d="M0 0 C5.60109448 -0.28971178 9.14750673 -0.15976306 14 3 C15.875 5.1875 15.875 5.1875 17 7 C15 9 15 9 11.5234375 9.1953125 C10.14049032 9.18201493 8.75761346 9.15816232 7.375 9.125 C6.66859375 9.11597656 5.9621875 9.10695313 5.234375 9.09765625 C3.48943902 9.07407603 1.74467705 9.03820461 0 9 C0 6.03 0 3.06 0 0 Z " fill="#D2DFFC" transform="translate(211,86)"/>
<path d="M0 0 C0.66 0 1.32 0 2 0 C1.67 5.94 1.34 11.88 1 18 C-4.28 18 -9.56 18 -15 18 C-15.020625 15.545625 -15.04125 13.09125 -15.0625 10.5625 C-15.071604 9.78849854 -15.08070801 9.01449707 -15.09008789 8.21704102 C-15.09724913 6.47778283 -15.05024702 4.73854696 -15 3 C-12.66824807 0.66824807 -7.0611792 1.47328917 -3.90625 1.28125 C-1.10949868 1.3214011 -1.10949868 1.3214011 0 0 Z M-14 4 C-14 8.29 -14 12.58 -14 17 C-9.38 17 -4.76 17 0 17 C0 13.37 0 9.74 0 6 C-2.60608273 8.5162178 -4.89381685 11.05134359 -7 14 C-8.32 12.02 -9.64 10.04 -11 8 C-10.01 8.99 -9.02 9.98 -8 11 C-7.01 10.67 -6.02 10.34 -5 10 C-3.77479736 6.99152582 -3.77479736 6.99152582 -3 4 C-6.63 4 -10.26 4 -14 4 Z " fill="#D3DCE9" transform="translate(198,104)"/>
<path d="M0 0 C3.06500356 2.93174254 3.93498045 4.2457732 4.3125 8.625 C4.23409717 13.41628383 2.80698686 17.12858999 0 21 C-4.90570995 24.90454465 -8.72636124 26.26519648 -15.0078125 26.2421875 C-17.78069809 25.9050916 -19.64669248 24.43813238 -22 23 C-24.16666667 23.66666667 -24.16666667 23.66666667 -26 25 C-26.99 25.33 -27.98 25.66 -29 26 C-28.67 25.4225 -28.34 24.845 -28 24.25 C-26.72924102 21.80116138 -26.72924102 21.80116138 -27 18 C-27.5259375 16.6696875 -27.5259375 16.6696875 -28.0625 15.3125 C-29.25823926 11.08755461 -29.1110604 7.25607813 -28 3 C-27.34 2.67 -26.68 2.34 -26 2 C-26.03480469 2.79664062 -26.06960937 3.59328125 -26.10546875 4.4140625 C-26.44666467 12.6840672 -26.44666467 12.6840672 -23 20 C-19.11353244 23.64356334 -14.74586176 23.49929326 -9.6640625 23.35546875 C-5.91630931 22.85540198 -3.75797849 21.5458263 -1 19 C1.03952129 15.7870555 1.24445947 13.26968124 1.1875 9.5 C1.18105469 8.5615625 1.17460937 7.623125 1.16796875 6.65625 C1.01857816 4.29379415 0.66710889 2.26283335 0 0 Z " fill="#3C577C" transform="translate(141,104)"/>
<path d="M0 0 C0.66 0 1.32 0 2 0 C1.67 5.94 1.34 11.88 1 18 C-4.28 18 -9.56 18 -15 18 C-15.020625 15.545625 -15.04125 13.09125 -15.0625 10.5625 C-15.071604 9.78849854 -15.08070801 9.01449707 -15.09008789 8.21704102 C-15.09724913 6.47778283 -15.05024702 4.73854696 -15 3 C-14 2 -14 2 -11.49609375 1.90234375 C-9.98208984 1.91974609 -9.98208984 1.91974609 -8.4375 1.9375 C-7.42558594 1.94652344 -6.41367188 1.95554688 -5.37109375 1.96484375 C-4.19740234 1.98224609 -4.19740234 1.98224609 -3 2 C-3 2.66 -3 3.32 -3 4 C-6.63 4 -10.26 4 -14 4 C-14 8.29 -14 12.58 -14 17 C-9.38 17 -4.76 17 0 17 C0 13.7 0 10.4 0 7 C-0.66 7 -1.32 7 -2 7 C-2.28875 7.763125 -2.5775 8.52625 -2.875 9.3125 C-4 12 -4 12 -6 15 C-6.66 15 -7.32 15 -8 15 C-9.38938077 13.03852126 -10.7260411 11.03833424 -12 9 C-11.67 8.34 -11.34 7.68 -11 7 C-10.54625 7.495 -10.0925 7.99 -9.625 8.5 C-8.12364481 10.22609337 -8.12364481 10.22609337 -6 10 C-4.47987963 7.74572728 -4.47987963 7.74572728 -3 5 C-1.4375 2.1875 -1.4375 2.1875 0 0 Z " fill="#D3DCE8" transform="translate(198,127)"/>
<path d="M0 0 C1.875 1.4375 1.875 1.4375 3 3 C3 3.66 3 4.32 3 5 C2.34 5 1.68 5 1 5 C0.34 6.32 -0.32 7.64 -1 9 C-3.33333333 9 -5.66666667 9 -8 9 C-7.67 9.66 -7.34 10.32 -7 11 C-10.875 9.25 -10.875 9.25 -12 7 C-12.039992 5.00039988 -12.04346799 2.99952758 -12 1 C-11.38125 0.855625 -10.7625 0.71125 -10.125 0.5625 C-4.15547703 -1.01766784 -4.15547703 -1.01766784 0 0 Z " fill="#EEF7FE" transform="translate(175,150)"/>
<path d="M0 0 C0.66 0 1.32 0 2 0 C4.06058709 2.22543405 4.9521298 3.50933042 5.25 6.5625 C5.4975 7.366875 5.745 8.17125 6 9 C9.47307328 10.86983745 9.47307328 10.86983745 13 12 C12.67 12.66 12.34 13.32 12 14 C10.96875 13.67 9.9375 13.34 8.875 13 C5.51573291 12.0284808 2.50893798 11.82883229 -1 12 C-1.32613281 12.62648438 -1.65226563 13.25296875 -1.98828125 13.8984375 C-2.64376953 15.12433594 -2.64376953 15.12433594 -3.3125 16.375 C-3.95638672 17.59316406 -3.95638672 17.59316406 -4.61328125 18.8359375 C-6 21 -6 21 -9 23 C-8.67 23.66 -8.34 24.32 -8 25 C-8.556875 24.71125 -9.11375 24.4225 -9.6875 24.125 C-12.08494645 22.9586747 -14.51596939 21.9660119 -17 21 C-17 20.34 -17 19.68 -17 19 C-13.7 19 -10.4 19 -7 19 C-6.731875 18.2575 -6.46375 17.515 -6.1875 16.75 C-5.0392528 14.09090121 -3.96498625 12.12218515 -2 10 C-1.01 10 -0.02 10 1 10 C0.67 9.443125 0.34 8.88625 0 8.3125 C-1.14011312 5.67598842 -1.2306312 3.84445144 -1 1 C-0.67 0.67 -0.34 0.34 0 0 Z " fill="#D99782" transform="translate(235,99)"/>
<path d="M0 0 C0.90596924 0.02094727 1.81193848 0.04189453 2.74536133 0.06347656 C4.21972656 0.0828125 4.21972656 0.0828125 5.72387695 0.10253906 C6.74803711 0.13605469 7.77219727 0.16957031 8.82739258 0.20410156 C10.38103516 0.23117188 10.38103516 0.23117188 11.96606445 0.25878906 C14.52493541 0.30595719 17.081951 0.37176099 19.63989258 0.45410156 C19.63989258 1.11410156 19.63989258 1.77410156 19.63989258 2.45410156 C14.02989258 2.45410156 8.41989258 2.45410156 2.63989258 2.45410156 C2.63989258 5.42410156 2.63989258 8.39410156 2.63989258 11.45410156 C0.32989258 11.45410156 -1.98010742 11.45410156 -4.36010742 11.45410156 C-5.70289399 5.10638325 -5.70289399 5.10638325 -4.19873047 2.24414062 C-2.36010742 0.45410156 -2.36010742 0.45410156 0 0 Z " fill="#535F83" transform="translate(151.360107421875,166.5458984375)"/>
<path d="M0 0 C4.58200996 4.58200996 7.75031902 10.10370066 8.3125 16.625 C8.1578125 17.800625 8.1578125 17.800625 8 19 C5.36 19 2.72 19 0 19 C0 12.73 0 6.46 0 0 Z " fill="#EAF3FC" transform="translate(241,158)"/>
<path d="M0 0 C0.9583374 0.00523682 1.9166748 0.01047363 2.90405273 0.01586914 C4.45576172 0.02070312 4.45576172 0.02070312 6.03881836 0.02563477 C7.12743164 0.03401367 8.21604492 0.04239258 9.33764648 0.05102539 C10.97636719 0.05779297 10.97636719 0.05779297 12.64819336 0.06469727 C15.35723144 0.07652713 18.06616248 0.09300996 20.77514648 0.11352539 C20.77514648 0.44352539 20.77514648 0.77352539 20.77514648 1.11352539 C13.51514648 1.11352539 6.25514648 1.11352539 -1.22485352 1.11352539 C-1.22485352 3.42352539 -1.22485352 5.73352539 -1.22485352 8.11352539 C6.69514648 7.61852539 6.69514648 7.61852539 14.77514648 7.11352539 C14.77514648 10.74352539 14.77514648 14.37352539 14.77514648 18.11352539 C15.43514648 18.44352539 16.09514648 18.77352539 16.77514648 19.11352539 C16.11514648 20.10352539 15.45514648 21.09352539 14.77514648 22.11352539 C14.53459181 24.17062135 14.53459181 24.17062135 14.65014648 26.30102539 C14.69139648 27.55915039 14.73264648 28.81727539 14.77514648 30.11352539 C13.06764669 28.83290054 11.40141052 27.49584982 9.77514648 26.11352539 C9.77514648 25.45352539 9.77514648 24.79352539 9.77514648 24.11352539 C10.43514648 23.78352539 11.09514648 23.45352539 11.77514648 23.11352539 C12.24321293 20.77608245 12.60184442 18.4161346 12.90014648 16.05102539 C13.06772461 14.76067383 13.23530273 13.47032227 13.40795898 12.14086914 C13.52913086 11.1418457 13.65030273 10.14282227 13.77514648 9.11352539 C12.63174805 9.12512695 11.48834961 9.13672852 10.31030273 9.14868164 C8.81941894 9.15805827 7.3285334 9.1671586 5.83764648 9.17602539 C4.70552734 9.18859375 4.70552734 9.18859375 3.55053711 9.20141602 C1.62520335 9.2100498 -0.30020932 9.16576872 -2.22485352 9.11352539 C-3.22485352 8.11352539 -3.22485352 8.11352539 -3.34985352 4.61352539 C-3.19089971 0.16281887 -3.19089971 0.16281887 0 0 Z " fill="#E19274" transform="translate(122.224853515625,41.886474609375)"/>
<path d="M0 0 C0.99 0.33 1.98 0.66 3 1 C2.34 2.65 1.68 4.3 1 6 C11.56 6 22.12 6 33 6 C33 6.66 33 7.32 33 8 C18.81 8 4.62 8 -10 8 C-10 7.67 -10 7.34 -10 7 C-8.72125 6.773125 -7.4425 6.54625 -6.125 6.3125 C-3.93067868 5.83899916 -3.93067868 5.83899916 -2 5 C-0.40311361 2.51686936 -0.40311361 2.51686936 0 0 Z " fill="#7E8993" transform="translate(251,171)"/>
<path d="M0 0 C0.99 0.33 1.98 0.66 3 1 C3.98643638 6.12283766 4.30967053 11.17748929 4.5625 16.375 C4.60568359 17.20644531 4.64886719 18.03789062 4.69335938 18.89453125 C4.79861805 20.92953228 4.89973072 22.96474703 5 25 C3.68 25.33 2.36 25.66 1 26 C-0.64079435 22.4244123 -1.2170145 19.83733641 -0.9765625 15.91796875 C-0.925 14.98662109 -0.8734375 14.05527344 -0.8203125 13.09570312 C-0.75585938 12.13599609 -0.69140625 11.17628906 -0.625 10.1875 C-0.56828125 9.20845703 -0.5115625 8.22941406 -0.453125 7.22070312 C-0.31218662 4.81300587 -0.16083172 2.40643663 0 0 Z " fill="#F27248" transform="translate(85,138)"/>
<path d="M0 0 C0.33 0 0.66 0 1 0 C1 5.61 1 11.22 1 17 C-0.65 17.66 -2.3 18.32 -4 19 C-6.23903209 15.64145186 -6.20854594 14.11612669 -5.62109375 10.20703125 C-4.54269987 6.37500268 -2.45130753 3.11382308 0 0 Z " fill="#DFE9FA" transform="translate(116,149)"/>
<path d="M0 0 C0.66 0.33 1.32 0.66 2 1 C2.12527514 8.5165084 2.12527514 8.5165084 1.51367188 10.87695312 C1.00096434 12.99601431 0.7988974 14.93507751 0.68359375 17.109375 C0.64169922 17.86347656 0.59980469 18.61757812 0.55664062 19.39453125 C0.49766602 20.56048828 0.49766602 20.56048828 0.4375 21.75 C0.39431641 22.54277344 0.35113281 23.33554688 0.30664062 24.15234375 C0.20097009 26.10137815 0.10002034 28.05066748 0 30 C-2.97 30.33 -5.94 30.66 -9 31 C-9.19294408 26.17639811 -8.75747614 22.50353262 -7 18 C-6.67 18 -6.34 18 -6 18 C-5.67 20.97 -5.34 23.94 -5 27 C-3.68 27.33 -2.36 27.66 -1 28 C-1.00523682 27.40050537 -1.01047363 26.80101074 -1.01586914 26.18334961 C-1.03681443 23.43474398 -1.04971556 20.68615522 -1.0625 17.9375 C-1.07087891 16.99455078 -1.07925781 16.05160156 -1.08789062 15.08007812 C-1.10581103 9.9369232 -0.89259611 5.06741573 0 0 Z " fill="#E59C82" transform="translate(96,146)"/>
<path d="M0 0 C3.43015461 2.80649013 3.4009765 4.20292951 5 9 C12.92 9 20.84 9 29 9 C29 9.33 29 9.66 29 10 C18.11 10.495 18.11 10.495 7 11 C9.475 11.99 9.475 11.99 12 13 C12 13.66 12 14.32 12 15 C9.69 15 7.38 15 5 15 C4.62875 14.1028125 4.62875 14.1028125 4.25 13.1875 C2.83629988 10.71352479 1.34944617 9.56629745 -1 8 C-0.67 5.36 -0.34 2.72 0 0 Z " fill="#B27C73" transform="translate(147,50)"/>
<path d="M0 0 C3.63 0 7.26 0 11 0 C11 0.66 11 1.32 11 2 C11.66 2 12.32 2 13 2 C13 1.34 13 0.68 13 0 C16.3 0 19.6 0 23 0 C23 0.66 23 1.32 23 2 C20.36 2.33 17.72 2.66 15 3 C15 3.33 15 3.66 15 4 C10.05 4 5.1 4 0 4 C0 2.68 0 1.36 0 0 Z " fill="#CDD7ED" transform="translate(132,157)"/>
<path d="M0 0 C0.8353125 0.37125 0.8353125 0.37125 1.6875 0.75 C2.375 2.5625 2.375 2.5625 2.6875 4.75 C0.8390792 7.27941794 -1.40985183 8.64016394 -4.3125 9.75 C-7.0625 9.875 -7.0625 9.875 -9.3125 9.75 C-9.6425 10.74 -9.9725 11.73 -10.3125 12.75 C-10.3125 11.1 -10.3125 9.45 -10.3125 7.75 C-8.9925 7.42 -7.6725 7.09 -6.3125 6.75 C-6.6425 5.76 -6.9725 4.77 -7.3125 3.75 C-2.88173077 -0.31153846 -2.88173077 -0.31153846 0 0 Z " fill="#37447A" transform="translate(243.3125,117.25)"/>
<path d="M0 0 C2 2 2 2 2.125 5.625 C2.08375 6.73875 2.0425 7.8525 2 9 C1.01 9 0.02 9 -1 9 C-0.34 7.02 0.32 5.04 1 3 C0.01 3.66 -0.98 4.32 -2 5 C-2.99 5 -3.98 5 -5 5 C-5 6.32 -5 7.64 -5 9 C-6.32 8.67 -7.64 8.34 -9 8 C-9.33 6.35 -9.66 4.7 -10 3 C-6.70335635 -0.04305568 -4.44038228 -0.48265025 0 0 Z " fill="#2A385C" transform="translate(129,14)"/>
<path d="M0 0 C1.670625 0.061875 1.670625 0.061875 3.375 0.125 C3.045 2.105 2.715 4.085 2.375 6.125 C1.715 6.125 1.055 6.125 0.375 6.125 C0.045 7.445 -0.285 8.765 -0.625 10.125 C-2.5625 9.5 -2.5625 9.5 -4.625 8.125 C-5.5 5.125 -5.5 5.125 -5.625 2.125 C-3.625 0.125 -3.625 0.125 0 0 Z " fill="#1F3356" transform="translate(92.625,94.875)"/>
<path d="M0 0 C-0.33 1.98 -0.66 3.96 -1 6 C-0.38125 5.79375 0.2375 5.5875 0.875 5.375 C1.57625 5.25125 2.2775 5.1275 3 5 C3.66 5.66 4.32 6.32 5 7 C0.69230769 10.93846154 0.69230769 10.93846154 -2.8125 11.25 C-3.534375 11.1675 -4.25625 11.085 -5 11 C-5.36637589 4.64948454 -5.36637589 4.64948454 -3.625 1.5625 C-2 0 -2 0 0 0 Z " fill="#C9E2CA" transform="translate(266,166)"/>
<path d="M0 0 C4.455 0.99 4.455 0.99 9 2 C7.85623431 5.43129707 6.71081232 6.37846879 4 8.6875 C3.278125 9.31011719 2.55625 9.93273437 1.8125 10.57421875 C0 12 0 12 -1 12 C-0.67 8.04 -0.34 4.08 0 0 Z " fill="#D8E5F9" transform="translate(99,129)"/>
<path d="M0 0 C0.33 0 0.66 0 1 0 C1 6.27 1 12.54 1 19 C-2 17 -2 17 -3 14 C-3.52540244 8.60452107 -3.54515989 4.39599826 0 0 Z " fill="#CDE3F9" transform="translate(117,104)"/>
<path d="M0 0 C3 6.5 3 6.5 3 11 C-0.375 10.4375 -0.375 10.4375 -4 9 C-5.4375 5.375 -5.4375 5.375 -6 2 C-3 0 -3 0 0 0 Z " fill="#2C3A5C" transform="translate(245,100)"/>
<path d="M0 0 C1.2375 0.495 1.2375 0.495 2.5 1 C6.5873983 2.16782809 9.76923344 2.1458885 14 2 C12.125 5.875 12.125 5.875 11 7 C3.47761194 7.23880597 3.47761194 7.23880597 1 6 C0.375 2.9375 0.375 2.9375 0 0 Z " fill="#5472D6" transform="translate(97,113)"/>
<path d="M0 0 C0.96254164 2.88762493 1.02820226 4.35569642 0.875 7.3125 C0.86089242 11.65763613 1.33315733 14.41643016 4 18 C6.5605306 19.62116434 9.19290584 20.86649404 12 22 C8.28272326 23.13583456 6.52948291 22.66670026 3 21 C2.54625 21.495 2.0925 21.99 1.625 22.5 C0 24 0 24 -2 24 C-1.67 23.4225 -1.34 22.845 -1 22.25 C0.27075898 19.80116138 0.27075898 19.80116138 0 16 C-0.5259375 14.6696875 -0.5259375 14.6696875 -1.0625 13.3125 C-2.27623822 9.02395831 -1.90392867 5.33703149 -1 1 C-0.67 0.67 -0.34 0.34 0 0 Z " fill="#2F4C74" transform="translate(114,106)"/>
<path d="M0 0 C1.65 0 3.3 0 5 0 C6 3 6 3 4 8 C-1.61 8 -7.22 8 -13 8 C-6.75 4.875 -6.75 4.875 -1.875 5.4375 C-0.96492187 5.53933594 -0.05484375 5.64117187 0.8828125 5.74609375 C1.58148438 5.82988281 2.28015625 5.91367187 3 6 C2.67 5.01 2.34 4.02 2 3 C1.01 3.33 0.02 3.66 -1 4 C-0.67 2.68 -0.34 1.36 0 0 Z " fill="#3D3952" transform="translate(138,34)"/>
<path d="M0 0 C0.66 0 1.32 0 2 0 C2 3.3 2 6.6 2 10 C-2.29 10 -6.58 10 -11 10 C-10.67 8.35 -10.34 6.7 -10 5 C-8.515 5.99 -8.515 5.99 -7 7 C-7 7.66 -7 8.32 -7 9 C-5.03838102 8.81266183 -5.03838102 8.81266183 -3 8 C-1.86929556 6.15272433 -1.86929556 6.15272433 -1.25 3.9375 C-1.00765625 3.20402344 -0.7653125 2.47054687 -0.515625 1.71484375 C-0.34546875 1.14894531 -0.1753125 0.58304688 0 0 Z " fill="#F2F8F9" transform="translate(196,134)"/>
<path d="M0 0 C0.66 0 1.32 0 2 0 C0.5482621 5.66177782 -2.31558305 10.49459884 -6 15 C-6.66 15 -7.32 15 -8 15 C-10.1875 12.6875 -10.1875 12.6875 -12 10 C-11.67 9.01 -11.34 8.02 -11 7 C-10.54625 7.495 -10.0925 7.99 -9.625 8.5 C-8.12364481 10.22609337 -8.12364481 10.22609337 -6 10 C-4.47987963 7.74572728 -4.47987963 7.74572728 -3 5 C-1.4375 2.1875 -1.4375 2.1875 0 0 Z " fill="#DE9B5F" transform="translate(198,81)"/>
<path d="M0 0 C0.66 0 1.32 0 2 0 C0.5482621 5.66177782 -2.31558305 10.49459884 -6 15 C-6.66 15 -7.32 15 -8 15 C-9.38938077 13.03852126 -10.7260411 11.03833424 -12 9 C-11.67 8.34 -11.34 7.68 -11 7 C-10.54625 7.495 -10.0925 7.99 -9.625 8.5 C-8.12364481 10.22609337 -8.12364481 10.22609337 -6 10 C-4.47987963 7.74572728 -4.47987963 7.74572728 -3 5 C-1.4375 2.1875 -1.4375 2.1875 0 0 Z " fill="#DD985B" transform="translate(198,127)"/>
<path d="M0 0 C2.99693138 0.99897713 4.02709413 1.65130253 6 4 C6 4.66 6 5.32 6 6 C5.34 6 4.68 6 4 6 C3.34 7.32 2.68 8.64 2 10 C0.02 10 -1.96 10 -4 10 C-4.33 9.01 -4.66 8.02 -5 7 C-2.03 7.495 -2.03 7.495 1 8 C1 7.01 1 6.02 1 5 C-0.32 4.34 -1.64 3.68 -3 3 C-2.34 3 -1.68 3 -1 3 C-0.67 2.01 -0.34 1.02 0 0 Z " fill="#F3FBFF" transform="translate(172,149)"/>
<path d="M0 0 C0.66 0 1.32 0 2 0 C0.51194289 5.80342274 -2.59097555 10.17590879 -6 15 C-8.5 12.6875 -8.5 12.6875 -11 10 C-11 9.01 -11 8.02 -11 7 C-10.54625 7.495 -10.0925 7.99 -9.625 8.5 C-8.12364481 10.22609337 -8.12364481 10.22609337 -6 10 C-4.47987963 7.74572728 -4.47987963 7.74572728 -3 5 C-1.4375 2.1875 -1.4375 2.1875 0 0 Z " fill="#DC9659" transform="translate(198,104)"/>
<path d="M0 0 C2.00553195 4.0110639 2.21279316 5.16972318 1.9765625 9.421875 C1.925 10.44667969 1.8734375 11.47148437 1.8203125 12.52734375 C1.75585938 13.59082031 1.69140625 14.65429688 1.625 15.75 C1.56828125 16.82894531 1.5115625 17.90789062 1.453125 19.01953125 C1.31184116 21.68037699 1.16044734 24.34025231 1 27 C-1.64 27 -4.28 27 -7 27 C-2.25 23 -2.25 23 0 23 C0 15.41 0 7.82 0 0 Z " fill="#4E70E1" transform="translate(239,151)"/>
<path d="M0 0 C1.9375 0.5 1.9375 0.5 4 2 C4.68790422 4.69658452 4.81946464 7.2017019 5 10 C2.03824877 9.38722388 0.61941217 8.74627478 -2 7 C-2 6.01 -2 5.02 -2 4 C-1.34 4 -0.68 4 0 4 C0 2.68 0 1.36 0 0 Z " fill="#C0DEBF" transform="translate(64,167)"/>
<path d="M0 0 C0.33 0 0.66 0 1 0 C1.02505615 0.55461914 1.0501123 1.10923828 1.07592773 1.68066406 C1.19227927 4.20398843 1.31482754 6.72697536 1.4375 9.25 C1.47681641 10.12269531 1.51613281 10.99539062 1.55664062 11.89453125 C1.59853516 12.73886719 1.64042969 13.58320313 1.68359375 14.453125 C1.72025146 15.22817383 1.75690918 16.00322266 1.79467773 16.80175781 C1.93855614 19.01316791 1.93855614 19.01316791 2.57836914 21.14355469 C3.15202086 23.66934951 2.30924897 24.84358993 1 27 C-2.33470226 4.66940452 -2.33470226 4.66940452 0 0 Z " fill="#5C7CE1" transform="translate(232,131)"/>
<path d="M0 0 C-0.33 0.99 -0.66 1.98 -1 3 C-1.66 3 -2.32 3 -3 3 C-3 3.66 -3 4.32 -3 5 C-4.6796875 6.62109375 -4.6796875 6.62109375 -6.875 8.4375 C-9.46193722 10.58400884 -11.11184374 12.16776562 -13 15 C-13.33 13.35 -13.66 11.7 -14 10 C-12.75160501 8.894019 -11.50120766 7.79029799 -10.25 6.6875 C-9.55390625 6.07261719 -8.8578125 5.45773438 -8.140625 4.82421875 C-2.47965739 0 -2.47965739 0 0 0 Z " fill="#697CB0" transform="translate(110,132)"/>
<path d="M0 0 C0.33 0 0.66 0 1 0 C1 2.97 1 5.94 1 9 C1.66 9.33 2.32 9.66 3 10 C2.01 11.485 2.01 11.485 1 13 C0.75944532 15.05709596 0.75944532 15.05709596 0.875 17.1875 C0.91625 18.445625 0.9575 19.70375 1 21 C-0.7074998 19.71937515 -2.37373596 18.38232443 -4 17 C-4 16.34 -4 15.68 -4 15 C-3.34 14.67 -2.68 14.34 -2 14 C-1.53193355 11.66255706 -1.17330206 9.30260921 -0.875 6.9375 C-0.70742187 5.64714844 -0.53984375 4.35679688 -0.3671875 3.02734375 C-0.24601563 2.02832031 -0.12484375 1.02929688 0 0 Z " fill="#BB795C" transform="translate(136,51)"/>
<path d="M0 0 C1.65 0 3.3 0 5 0 C5.59732819 2.76264289 6 5.16032769 6 8 C3.525 7.01 3.525 7.01 1 6 C0.67 6.66 0.34 7.32 0 8 C0 5.36 0 2.72 0 0 Z " fill="#99A7D9" transform="translate(145,69)"/>
<path d="M0 0 C1.65 0 3.3 0 5 0 C4.67 0.66 4.34 1.32 4 2 C3.01 2 2.02 2 1 2 C2.22527029 6.05281712 3.69880494 9.44360764 6 13 C4.02 13 2.04 13 0 13 C0 8.71 0 4.42 0 0 Z " fill="#F2F9FC" transform="translate(184,85)"/>
<path d="M0 0 C2.31 0 4.62 0 7 0 C6.67 1.65 6.34 3.3 6 5 C4.68 5 3.36 5 2 5 C2 5.66 2 6.32 2 7 C3.65 7 5.3 7 7 7 C7 7.33 7 7.66 7 8 C4.69 8 2.38 8 0 8 C0 5.36 0 2.72 0 0 Z " fill="#97A4D9" transform="translate(169,69)"/>
<path d="M0 0 C0.66 0 1.32 0 2 0 C3.1875 2.625 3.1875 2.625 4 6 C2.625 9.375 2.625 9.375 1 12 C0.34 12 -0.32 12 -1 12 C-1.02687279 10.18757948 -1.04633715 8.37504767 -1.0625 6.5625 C-1.07410156 5.55316406 -1.08570313 4.54382812 -1.09765625 3.50390625 C-1 1 -1 1 0 0 Z " fill="#EF6B34" transform="translate(138,48)"/>
<path d="M0 0 C0.33 0 0.66 0 1 0 C1 3.3 1 6.6 1 10 C-1.31 10 -3.62 10 -6 10 C-6.33 9.34 -6.66 8.68 -7 8 C-6.01 7.67 -5.02 7.34 -4 7 C-2.77554716 5.37051936 -2.77554716 5.37051936 -1.8125 3.4375 C-1.214375 2.303125 -0.61625 1.16875 0 0 Z " fill="#F9F8EF" transform="translate(196,88)"/>
<path d="M0 0 C1.98 1.32 3.96 2.64 6 4 C5.67 4.66 5.34 5.32 5 6 C2.71484375 6.4140625 2.71484375 6.4140625 -0.0625 6.625 C-0.98160156 6.69976562 -1.90070313 6.77453125 -2.84765625 6.8515625 C-3.91306641 6.92503906 -3.91306641 6.92503906 -5 7 C-5 5.02 -5 3.04 -5 1 C-4.67 1.99 -4.34 2.98 -4 4 C-2.68 4 -1.36 4 0 4 C0 2.68 0 1.36 0 0 Z " fill="#758FEB" transform="translate(120,34)"/>
<path d="M0 0 C0.33 0 0.66 0 1 0 C1.66 4.29 2.32 8.58 3 13 C1.35 13 -0.3 13 -2 13 C-2.19294408 8.17639811 -1.75747614 4.50353262 0 0 Z " fill="#F5E8E3" transform="translate(89,164)"/>
<path d="M0 0 C2.05078125 0.03255208 4.1015625 0.06510417 6.15234375 0.09765625 C6.15234375 0.42765625 6.15234375 0.75765625 6.15234375 1.09765625 C3.84234375 1.75765625 1.53234375 2.41765625 -0.84765625 3.09765625 C-1.17765625 10.68765625 -1.50765625 18.27765625 -1.84765625 26.09765625 C-2.17765625 26.09765625 -2.50765625 26.09765625 -2.84765625 26.09765625 C-2.87652376 21.95183738 -2.89440952 17.80604409 -2.91015625 13.66015625 C-2.91853516 12.47615234 -2.92691406 11.29214844 -2.93554688 10.07226562 C-2.93876953 8.94755859 -2.94199219 7.82285156 -2.9453125 6.6640625 C-2.95054932 5.62193604 -2.95578613 4.57980957 -2.96118164 3.50610352 C-2.80289976 0.14814481 -2.80289976 0.14814481 0 0 Z " fill="#DBEEFE" transform="translate(125.84765625,98.90234375)"/>
<path d="M0 0 C0.763125 0.309375 1.52625 0.61875 2.3125 0.9375 C4.18789677 1.67893593 6.08684652 2.36228217 8 3 C8.66 2.67 9.32 2.34 10 2 C10.33 2.99 10.66 3.98 11 5 C10.01 5.66 9.02 6.32 8 7 C5.73828125 6.5390625 5.73828125 6.5390625 3.3125 5.625 C2.50425781 5.32851562 1.69601563 5.03203125 0.86328125 4.7265625 C-0.05904297 4.36691406 -0.05904297 4.36691406 -1 4 C-0.34 3.67 0.32 3.34 1 3 C0.67 2.01 0.34 1.02 0 0 Z " fill="#979FCA" transform="translate(102,126)"/>
<path d="M0 0 C0.33 0 0.66 0 1 0 C1.12375 0.9075 1.2475 1.815 1.375 2.75 C1.92109677 5.58970323 2.57263803 7.52590591 4 10 C3.01 10.33 2.02 10.66 1 11 C-0.37195574 12.29355827 -1.71182656 13.62298702 -3 15 C-2 10 -1 5 0 0 Z " fill="#273151" transform="translate(232,99)"/>
<path d="M0 0 C3.3 0 6.6 0 10 0 C10 0.66 10 1.32 10 2 C6.21812119 3.83691257 4.05431692 4.15837626 0 3 C0 2.01 0 1.02 0 0 Z " fill="#6D7ECE" transform="translate(216,173)"/>
<path d="M0 0 C-2.25 2.5625 -2.25 2.5625 -5 5 C-7.3125 4.8125 -7.3125 4.8125 -9 4 C-9 3.01 -9 2.02 -9 1 C-5.57367167 -0.61798838 -3.61944899 -1.34053666 0 0 Z " fill="#334178" transform="translate(251,126)"/>
<path d="M0 0 C-0.33 1.98 -0.66 3.96 -1 6 C-2.65 6.33 -4.3 6.66 -6 7 C-6 5.35 -6 3.7 -6 2 C-2.25 0 -2.25 0 0 0 Z " fill="#D7AD90" transform="translate(130,17)"/>
<path d="M0 0 C2.1519437 3.22791555 2.20086443 4.28400809 2 8 C1.34 8 0.68 8 0 8 C-0.33 8.99 -0.66 9.98 -1 11 C-1.99 10.01 -2.98 9.02 -4 8 C-3.34 6.68 -2.68 5.36 -2 4 C-1.34 4 -0.68 4 0 4 C0 2.68 0 1.36 0 0 Z " fill="#D1B3A0" transform="translate(95,97)"/>
<path d="M0 0 C2.875 -0.125 2.875 -0.125 6 0 C8 2 8 2 8.125 5.625 C8.08375 6.73875 8.0425 7.8525 8 9 C7.01 9 6.02 9 5 9 C5.66 7.02 6.32 5.04 7 3 C6.01 3.66 5.02 4.32 4 5 C3.01 4.67 2.02 4.34 1 4 C1.99 3.01 2.98 2.02 4 1 C2.68 1.33 1.36 1.66 0 2 C0 1.34 0 0.68 0 0 Z " fill="#1D2744" transform="translate(123,14)"/>
<path d="M0 0 C-0.60698743 4.12751449 -2.03810791 7.3321148 -4 11 C-4.33 11 -4.66 11 -5 11 C-5.36637589 4.64948454 -5.36637589 4.64948454 -3.625 1.5625 C-2 0 -2 0 0 0 Z " fill="#AFCEAD" transform="translate(266,166)"/>
<path d="M0 0 C0.33 0 0.66 0 1 0 C1 2.97 1 5.94 1 9 C-2.3 9 -5.6 9 -9 9 C-9 8.67 -9 8.34 -9 8 C-5.535 7.505 -5.535 7.505 -2 7 C-1.855625 6.401875 -1.71125 5.80375 -1.5625 5.1875 C-1.1127561 3.43849596 -0.57107659 1.71322977 0 0 Z " fill="#ECF6FB" transform="translate(197,112)"/>
<path d="M0 0 C4.95 0.99 4.95 0.99 10 2 C9.67 2.66 9.34 3.32 9 4 C2.57142857 5.28571429 2.57142857 5.28571429 0 4 C0 2.68 0 1.36 0 0 Z " fill="#5578F2" transform="translate(98,115)"/>
<path d="M0 0 C2.49824035 1.4976696 4.86004673 3.01558218 7 5 C7.4375 7.8125 7.4375 7.8125 7 10 C4.09197539 7.78071806 2.04687238 6.07030857 0 3 C0 2.01 0 1.02 0 0 Z " fill="#5175EB" transform="translate(91,123)"/>
<path d="M0 0 C0.99 0.33 1.98 0.66 3 1 C3 1.66 3 2.32 3 3 C4.32 3.66 5.64 4.32 7 5 C4.75 5.6875 4.75 5.6875 2 6 C-0.3125 4.6875 -0.3125 4.6875 -2 3 C-2 2.34 -2 1.68 -2 1 C-1.34 0.67 -0.68 0.34 0 0 Z " fill="#DAE8FC" transform="translate(101,110)"/>
<path d="M0 0 C0 2.64 0 5.28 0 8 C0.66 8 1.32 8 2 8 C2 8.66 2 9.32 2 10 C0.68 10 -0.64 10 -2 10 C-2 7.69 -2 5.38 -2 3 C-2.66 3 -3.32 3 -4 3 C-4 2.34 -4 1.68 -4 1 C-2 0 -2 0 0 0 Z " fill="#CAD6F1" transform="translate(132,85)"/>
<path d="M0 0 C0.33 0 0.66 0 1 0 C1.33 2.31 1.66 4.62 2 7 C2.99 6.01 3.98 5.02 5 4 C5.66 4.33 6.32 4.66 7 5 C5.8572081 6.16964602 4.71068285 7.33564556 3.5625 8.5 C2.92441406 9.1496875 2.28632812 9.799375 1.62890625 10.46875 C0 12 0 12 -1 12 C-0.67 8.04 -0.34 4.08 0 0 Z " fill="#E6EDF5" transform="translate(99,129)"/>
<path d="M0 0 C3.3 0.33 6.6 0.66 10 1 C10 1.66 10 2.32 10 3 C9.01 3.495 9.01 3.495 8 4 C8.33 4.66 8.66 5.32 9 6 C8.1646875 5.566875 8.1646875 5.566875 7.3125 5.125 C4.91505355 3.9586747 2.48403061 2.9660119 0 2 C0 1.34 0 0.68 0 0 Z " fill="#E69C80" transform="translate(218,118)"/>
<path d="M0 0 C0.99 1.32 1.98 2.64 3 4 C2.01 5.485 2.01 5.485 1 7 C-1.4375 6.625 -1.4375 6.625 -4 6 C-4.33 5.34 -4.66 4.68 -5 4 C-4.360625 3.71125 -3.72125 3.4225 -3.0625 3.125 C-0.84793921 2.17176549 -0.84793921 2.17176549 0 0 Z " fill="#F58155" transform="translate(230,117)"/>
<path d="M0 0 C3.82097239 0.53069061 6.06171403 1.49701566 9 4 C6.03 4 3.06 4 0 4 C0 2.68 0 1.36 0 0 Z " fill="#9BA6E5" transform="translate(216,169)"/>
<path d="M0 0 C2.25 0.25 2.25 0.25 4 1 C4 2.32 4 3.64 4 5 C0.37673261 6.2077558 -0.64146369 5.54311128 -4 4 C-2.25 1.9375 -2.25 1.9375 0 0 Z " fill="#DAE5FB" transform="translate(81,118)"/>
<path d="M0 0 C3.96 0 7.92 0 12 0 C11.67 0.99 11.34 1.98 11 3 C7.37 2.67 3.74 2.34 0 2 C0 1.34 0 0.68 0 0 Z " fill="#1A2D54" transform="translate(133,32)"/>
<path d="M0 0 C1.98 0.495 1.98 0.495 4 1 C4 2.32 4 3.64 4 5 C2.35 5 0.7 5 -1 5 C-0.67 3.35 -0.34 1.7 0 0 Z " fill="#2A4487" transform="translate(148,171)"/>
<path d="M0 0 C0.33 0 0.66 0 1 0 C1.0825 0.94875 1.165 1.8975 1.25 2.875 C1.65074923 6.10461791 1.65074923 6.10461791 4.0625 7.375 C4.701875 7.58125 5.34125 7.7875 6 8 C6 8.66 6 9.32 6 10 C3.03 9.505 3.03 9.505 0 9 C0 6.03 0 3.06 0 0 Z " fill="#D3DFFB" transform="translate(144,69)"/>
<path d="M0 0 C-0.33 0.99 -0.66 1.98 -1 3 C-5.455 3.495 -5.455 3.495 -10 4 C-10 3.34 -10 2.68 -10 2 C-6.38026598 0.68373308 -3.90432869 0 0 0 Z " fill="#A49ABE" transform="translate(130,38)"/>
<path d="M0 0 C1.9375 0.5 1.9375 0.5 4 2 C4.68790422 4.69658452 4.81946464 7.2017019 5 10 C0 3.40909091 0 3.40909091 0 0 Z " fill="#ADCCAC" transform="translate(64,167)"/>
<path d="M0 0 C-0.33 0.66 -0.66 1.32 -1 2 C-3.02488628 2.28926947 -5.05244016 2.57272154 -7.08984375 2.75390625 C-9.08252033 2.90406878 -9.08252033 2.90406878 -11 4 C-10.1875 2.0625 -10.1875 2.0625 -9 0 C-5.52176885 -1.15941038 -3.54104422 -0.70820884 0 0 Z " fill="#9AA2D6" transform="translate(129,24)"/>
<path d="M0 0 C0.66 0.33 1.32 0.66 2 1 C0.35 3.64 -1.3 6.28 -3 9 C-3.99 8.67 -4.98 8.34 -6 8 C-5.34 7.67 -4.68 7.34 -4 7 C-4 6.34 -4 5.68 -4 5 C-3.34 5 -2.68 5 -2 5 C-2.33 4.01 -2.66 3.02 -3 2 C-2.01 2 -1.02 2 0 2 C0 1.34 0 0.68 0 0 Z " fill="#FCEFD9" transform="translate(195,83)"/>
<path d="M0 0 C0 1.32 0 2.64 0 4 C-2.64 4 -5.28 4 -8 4 C-3.375 0 -3.375 0 0 0 Z " fill="#133370" transform="translate(240,174)"/>
<path d="M0 0 C0.99 0.33 1.98 0.66 3 1 C2 3 1 5 0 7 C-0.99 6.67 -1.98 6.34 -3 6 C-2.01 4.02 -1.02 2.04 0 0 Z " fill="#193A75" transform="translate(251,171)"/>
<path d="M0 0 C0.33 0 0.66 0 1 0 C1.33 2.64 1.66 5.28 2 8 C0.68 8.33 -0.64 8.66 -2 9 C-1.125 1.125 -1.125 1.125 0 0 Z " fill="#E4EEFE" transform="translate(152,69)"/>
<path d="M0 0 C2.50037734 2.17424117 3.43628586 3.73045798 4 7 C2.68 7.33 1.36 7.66 0 8 C0 5.36 0 2.72 0 0 Z " fill="#DCEDFE" transform="translate(241,158)"/>
<path d="M0 0 C0.33 0 0.66 0 1 0 C1.144375 0.7425 1.28875 1.485 1.4375 2.25 C1.92467376 4.91117812 1.92467376 4.91117812 2.6875 7.0625 C3.09872527 9.61209669 2.31345638 10.83666008 1 13 C-0.10228696 8.59085217 -0.07654536 4.51617599 0 0 Z " fill="#7292F0" transform="translate(232,145)"/>
<path d="M0 0 C2.97 0 5.94 0 9 0 C9.33 0.66 9.66 1.32 10 2 C8.63875 1.9071875 8.63875 1.9071875 7.25 1.8125 C3.71017358 2.01672076 2.55068845 2.64551835 0 5 C0 3.35 0 1.7 0 0 Z " fill="#CAD4ED" transform="translate(165,148)"/>
<path d="M0 0 C2 3.75 2 3.75 2 6 C-0.31 6 -2.62 6 -5 6 C-5 5.34 -5 4.68 -5 4 C-3.35 4 -1.7 4 0 4 C0 2.68 0 1.36 0 0 Z " fill="#212B52" transform="translate(152,172)"/>
<path d="M0 0 C1.67542976 0.28604898 3.34385343 0.61781233 5 1 C4.67 1.99 4.34 2.98 4 4 C2.68 4 1.36 4 0 4 C-0.33 3.01 -0.66 2.02 -1 1 C-0.67 0.67 -0.34 0.34 0 0 Z " fill="#D6E0F6" transform="translate(169,153)"/>
<path d="M0 0 C2.125 0.375 2.125 0.375 4 1 C3.0409375 1.556875 3.0409375 1.556875 2.0625 2.125 C-0.63858072 4.58052793 -0.68407005 6.44578805 -1 10 C-1.33 10 -1.66 10 -2 10 C-2.1953125 3.9453125 -2.1953125 3.9453125 -2 2 C-1.34 1.34 -0.68 0.68 0 0 Z " fill="#0E1C3F" transform="translate(235,96)"/>
<path d="M0 0 C1.98 0.66 3.96 1.32 6 2 C6 2.66 6 3.32 6 4 C3.69 4 1.38 4 -1 4 C-0.67 2.68 -0.34 1.36 0 0 Z " fill="#9E877A" transform="translate(153,61)"/>
<path d="M0 0 C1.65 0 3.3 0 5 0 C5 0.99 5 1.98 5 3 C3.02 3.33 1.04 3.66 -1 4 C-0.67 2.68 -0.34 1.36 0 0 Z " fill="#374D77" transform="translate(138,34)"/>
<path d="M0 0 C2.31 0 4.62 0 7 0 C7 0.99 7 1.98 7 3 C4.0625 2.625 4.0625 2.625 1 2 C0.67 1.34 0.34 0.68 0 0 Z " fill="#EAF4FE" transform="translate(224,143)"/>
<path d="M0 0 C4.875 4.625 4.875 4.625 6 8 C5.34 8 4.68 8 4 8 C0 3.64705882 0 3.64705882 0 0 Z " fill="#DB9455" transform="translate(186,88)"/>
</svg>
