<svg id="gopinit_top_logo" xmlns="http://www.w3.org/2000/svg" xmlns:xlink="http://www.w3.org/1999/xlink" width="186.996" height="60.629" viewBox="0 0 186.996 60.629">
  <defs>
    <clipPath id="clip-path">
      <rect id="Rectangle_1091" data-name="Rectangle 1091" width="186.996" height="60.629" fill="none"/>
    </clipPath>
  </defs>
  <g id="login_logo">
    <g id="Group_5290" data-name="Group 5290" clip-path="url(#clip-path)">
      <path id="Path_24699" data-name="Path 24699" d="M50.432,23.34,47.2,23.305l-5.1-.055-11.4-.124-.079,7.249,10.745.117A16.887,16.887,0,1,1,40.8,18.476l8.826.1A25.266,25.266,0,0,0,0,24.85a25.457,25.457,0,0,0,7.841,18.47c4.331,4.252,17.02,17.309,17.02,17.309C37.5,48.176,37.5,48.166,42.254,43.695a25.458,25.458,0,0,0,8.241-18.3q.011-1.04-.063-2.059" transform="translate(0 0)" fill="#f99300"/>
      <path id="Path_24700" data-name="Path 24700" d="M294.2,31.026v1.656a11.931,11.931,0,0,1-3.706,8.969,13.556,13.556,0,0,1-9.817,3.568,14.06,14.06,0,0,1-10.429-4.159,13.878,13.878,0,0,1-4.12-10.152A14.445,14.445,0,0,1,287.62,18.429a13.09,13.09,0,0,1,4.928,4.83l-3.154,1.853a8.886,8.886,0,0,0-3.568-3.607,10.661,10.661,0,0,0-16.065,9.4,10.416,10.416,0,0,0,3.055,7.649,10.66,10.66,0,0,0,7.905,3.075,10.476,10.476,0,0,0,6.7-2.031,8.279,8.279,0,0,0,3.114-5.263H280.406V31.026Z" transform="translate(-209.517 -13.065)"/>
      <path id="Path_24701" data-name="Path 24701" d="M429.913,71.405a10.545,10.545,0,0,1-14.725,0,10.369,10.369,0,0,1,7.353-17.741,10.107,10.107,0,0,1,7.372,3,10.47,10.47,0,0,1,0,14.745m-7.372-.355a6.869,6.869,0,1,0-4.928-2.011,6.75,6.75,0,0,0,4.928,2.011" transform="translate(-324.488 -42.248)"/>
      <path id="Path_24702" data-name="Path 24702" d="M540.609,19.006a8.691,8.691,0,0,1,8.91,8.871,8.722,8.722,0,0,1-8.91,8.871h-6.348V46.6h-3.667v-27.6Zm0,14.312a5.029,5.029,0,0,0,3.785-1.557,5.382,5.382,0,0,0,1.5-3.884,5.364,5.364,0,0,0-1.5-3.9,5.062,5.062,0,0,0-3.785-1.538h-6.348V33.318Z" transform="translate(-417.719 -14.963)"/>
      <path id="Path_24703" data-name="Path 24703" d="M637.817,22.137a2.249,2.249,0,0,1-1.656-.671,2.2,2.2,0,0,1-.67-1.616,2.267,2.267,0,0,1,.67-1.636,2.218,2.218,0,0,1,1.656-.69,2.174,2.174,0,0,1,1.616.69,2.274,2.274,0,0,1,.67,1.636,2.288,2.288,0,0,1-2.286,2.287m-1.735,3.588h3.431V45.438h-3.431Z" transform="translate(-500.299 -13.796)"/>
      <path id="Path_24704" data-name="Path 24704" d="M782,22.137a2.248,2.248,0,0,1-1.656-.671,2.2,2.2,0,0,1-.67-1.616,2.265,2.265,0,0,1,.67-1.636,2.218,2.218,0,0,1,1.656-.69,2.174,2.174,0,0,1,1.616.69,2.27,2.27,0,0,1,.67,1.636A2.288,2.288,0,0,1,782,22.137m-1.735,3.588h3.43V45.438h-3.43Z" transform="translate(-613.81 -13.796)"/>
      <path id="Path_24705" data-name="Path 24705" d="M688.855,53.663a7.332,7.332,0,0,1,5.56,2.188,8.239,8.239,0,0,1,2.089,5.934v12.1h-3.429V61.981a5.085,5.085,0,0,0-1.3-3.726,4.809,4.809,0,0,0-3.588-1.32,5.556,5.556,0,0,0-4.139,1.6,6.736,6.736,0,0,0-1.578,4.909V73.888h-3.429V54.176h3.429v2.839a7.009,7.009,0,0,1,6.387-3.351" transform="translate(-534.583 -42.247)"/>
      <path id="Path_24706" data-name="Path 24706" d="M832.467,38.957h-5.244V49.642a2.991,2.991,0,0,0,.572,2.07,2.347,2.347,0,0,0,1.754.631q1.183.02,2.918-.059v3.075q-4.5.592-6.584-.729t-2.09-4.988V38.957h-3.9V35.646h3.9V31.151l3.43-1.025v5.52h5.244Z" transform="translate(-645.47 -23.717)"/>
      <path id="Path_24707" data-name="Path 24707" d="M281.8,177.954c0,2.342-1.5,3.6-3.081,3.6a3.141,3.141,0,0,1-3.017-3.419c0-2.131,1.351-3.6,3.081-3.6a3.126,3.126,0,0,1,3.017,3.419m-5.639.161a2.769,2.769,0,0,0,2.576,3.036c1.6,0,2.6-1.357,2.6-3.157,0-1.468-.856-3.057-2.576-3.057s-2.6,1.508-2.6,3.177" transform="translate(-217.053 -137.405)"/>
      <path id="Path_24708" data-name="Path 24708" d="M318.566,187.931c0,.392.009.774.036,1.166h-.414l-.027-.975h-.018a1.861,1.861,0,0,1-1.685,1.1c-.5,0-1.63-.191-1.63-2.242v-2.7h.441v2.6c0,1.126.351,1.91,1.306,1.91a1.613,1.613,0,0,0,1.441-1.026,1.7,1.7,0,0,0,.108-.563v-2.926h.441Z" transform="translate(-247.853 -145.07)"/>
      <path id="Path_24709" data-name="Path 24709" d="M343.543,177.514v1.437h1.369v.392h-1.369v3.087c0,.593.162,1.046.694,1.046a1.532,1.532,0,0,0,.568-.09l.054.382a1.613,1.613,0,0,1-.667.13.952.952,0,0,1-.8-.362,1.936,1.936,0,0,1-.288-1.166v-3.026h-.792v-.392h.792v-1.287Z" transform="translate(-269.488 -139.751)"/>
      <path id="Path_24710" data-name="Path 24710" d="M384.355,177.954c0,2.342-1.495,3.6-3.081,3.6a3.141,3.141,0,0,1-3.017-3.419c0-2.131,1.351-3.6,3.081-3.6a3.127,3.127,0,0,1,3.017,3.419m-5.638.161a2.769,2.769,0,0,0,2.576,3.036c1.6,0,2.6-1.357,2.6-3.157,0-1.468-.856-3.057-2.576-3.057s-2.6,1.508-2.6,3.177" transform="translate(-297.789 -137.405)"/>
      <path id="Path_24711" data-name="Path 24711" d="M416.218,179.871v-4.434h-.658v-.392h.658v-.231a2.6,2.6,0,0,1,.522-1.83,1.4,1.4,0,0,1,1.027-.432,1.381,1.381,0,0,1,.712.181l-.144.382a1.115,1.115,0,0,0-.6-.151c-.883,0-1.072.865-1.072,1.84v.241h1.271v.392h-1.271v4.434Z" transform="translate(-327.156 -135.844)"/>
      <path id="Path_24712" data-name="Path 24712" d="M451.991,175.1v2.966h3.8V175.1h.442v6.776h-.442v-3.4h-3.8v3.4h-.441V175.1Z" transform="translate(-355.489 -137.853)"/>
      <path id="Path_24713" data-name="Path 24713" d="M489,186.179a2.371,2.371,0,0,1-2.324,2.594,2.294,2.294,0,0,1-2.225-2.484,2.374,2.374,0,0,1,2.288-2.584A2.282,2.282,0,0,1,489,186.179m-4.107.08a1.907,1.907,0,0,0,1.81,2.111,2.155,2.155,0,0,0,.036-4.263,1.923,1.923,0,0,0-1.846,2.151" transform="translate(-381.389 -144.624)"/>
      <path id="Path_24714" data-name="Path 24714" d="M516.58,184.991c0-.392-.008-.774-.036-1.166h.414l.036.935h.018a1.683,1.683,0,0,1,1.559-1.056,1.486,1.486,0,0,1,1.36,1.146h.018a2.142,2.142,0,0,1,.45-.674,1.544,1.544,0,0,1,1.18-.473c.406,0,1.549.241,1.549,2.252v2.694h-.441v-2.684c0-1.216-.469-1.84-1.261-1.84a1.438,1.438,0,0,0-1.261.975,1.453,1.453,0,0,0-.09.473v3.076h-.441v-2.936c0-.945-.46-1.588-1.189-1.588a1.565,1.565,0,0,0-1.342,1.116,1.5,1.5,0,0,0-.081.472v2.936h-.442Z" transform="translate(-406.657 -144.624)"/>
      <path id="Path_24715" data-name="Path 24715" d="M558.554,186.238c0,1.408.8,2.112,1.829,2.112a2.737,2.737,0,0,0,1.387-.3l.117.392a3.17,3.17,0,0,1-1.549.332,2.211,2.211,0,0,1-2.215-2.413c0-1.639.936-2.654,2.161-2.654,1.6,0,1.883,1.589,1.883,2.232a1.343,1.343,0,0,1-.018.3Zm3.153-.392a1.541,1.541,0,0,0-1.477-1.739,1.777,1.777,0,0,0-1.649,1.739Z" transform="translate(-439.391 -144.624)"/>
      <path id="Path_24716" data-name="Path 24716" d="M602.523,179.5l-.837,2.383h-.46l2.45-6.776h.433l2.432,6.776h-.46l-.856-2.383Zm2.558-.412-.855-2.383c-.162-.452-.244-.744-.334-1.076h-.018c-.09.341-.189.643-.333,1.045l-.865,2.413Z" transform="translate(-473.324 -137.853)"/>
      <path id="Path_24717" data-name="Path 24717" d="M638.114,173.118v6.032c0,.392.009.774.036,1.166h-.406l-.027-1.005H637.7a1.831,1.831,0,0,1-1.747,1.126,2.229,2.229,0,0,1-2.081-2.423,2.367,2.367,0,0,1,2.18-2.644,1.732,1.732,0,0,1,1.6.925h.018v-3.177Zm-.441,4.313a2.131,2.131,0,0,0-.054-.472,1.593,1.593,0,0,0-1.558-1.186c-1.027,0-1.748.874-1.748,2.181,0,1.086.567,2.081,1.739,2.081a1.666,1.666,0,0,0,1.567-1.327,1.545,1.545,0,0,0,.054-.422Z" transform="translate(-499.025 -136.29)"/>
      <path id="Path_24718" data-name="Path 24718" d="M664.03,184.271l1.125,2.976c.207.543.36.945.5,1.367h.019c.144-.422.324-.854.522-1.367l1.153-2.976h.469L665.84,189.1h-.4l-1.891-4.826Z" transform="translate(-522.392 -145.07)"/>
      <path id="Path_24719" data-name="Path 24719" d="M691.422,186.238c0,1.408.8,2.112,1.828,2.112a2.736,2.736,0,0,0,1.387-.3l.117.392a3.175,3.175,0,0,1-1.549.332,2.212,2.212,0,0,1-2.216-2.413c0-1.639.936-2.654,2.161-2.654,1.6,0,1.883,1.589,1.883,2.232a1.308,1.308,0,0,1-.018.3Zm3.153-.392a1.541,1.541,0,0,0-1.477-1.739,1.776,1.776,0,0,0-1.648,1.739Z" transform="translate(-543.992 -144.624)"/>
      <path id="Path_24720" data-name="Path 24720" d="M720.918,185.383c0-.523-.009-1.035-.036-1.559h.405l.018,1.046h.027a1.466,1.466,0,0,1,1.324-1.166.692.692,0,0,1,.207.03v.452a1,1,0,0,0-.252-.02c-.6,0-1.062.563-1.207,1.4a2.581,2.581,0,0,0-.045.472v2.614h-.441Z" transform="translate(-567.525 -144.624)"/>
      <path id="Path_24721" data-name="Path 24721" d="M739.433,177.514v1.437H740.8v.392h-1.369v3.087c0,.593.162,1.046.693,1.046a1.535,1.535,0,0,0,.568-.09l.054.382a1.609,1.609,0,0,1-.667.13.951.951,0,0,1-.8-.362,1.932,1.932,0,0,1-.289-1.166v-3.026H738.2v-.392h.792v-1.287Z" transform="translate(-581.159 -139.751)"/>
      <path id="Path_24722" data-name="Path 24722" d="M760.906,175.962a.37.37,0,1,1-.73,0,.414.414,0,0,1,.369-.433.4.4,0,0,1,.36.433m-.586,1.427h.442v4.826h-.442Z" transform="translate(-598.46 -138.188)"/>
      <path id="Path_24723" data-name="Path 24723" d="M774.352,188a1.95,1.95,0,0,0,1.081.362c.757,0,1.09-.443,1.09-.935,0-.563-.343-.834-1.018-1.076-.784-.282-1.171-.734-1.171-1.307a1.324,1.324,0,0,1,1.423-1.337,1.747,1.747,0,0,1,1.045.322l-.172.4a1.534,1.534,0,0,0-.954-.312.843.843,0,0,0-.91.865c0,.543.369.754,1.009,1,.793.3,1.18.684,1.18,1.408a1.4,1.4,0,0,1-1.558,1.388,2.233,2.233,0,0,1-1.207-.352Z" transform="translate(-609.493 -144.624)"/>
      <path id="Path_24724" data-name="Path 24724" d="M798.546,175.962a.369.369,0,1,1-.728,0,.413.413,0,0,1,.368-.433.4.4,0,0,1,.36.433m-.585,1.427h.442v4.826h-.442Z" transform="translate(-628.094 -138.188)"/>
      <path id="Path_24725" data-name="Path 24725" d="M813.307,184.991c0-.392-.008-.774-.036-1.166h.415l.036.965h.018a1.82,1.82,0,0,1,1.666-1.086c.4,0,1.684.2,1.684,2.2v2.744h-.442v-2.744c0-.945-.369-1.78-1.36-1.78a1.616,1.616,0,0,0-1.468,1.146,1.535,1.535,0,0,0-.071.433v2.946h-.442Z" transform="translate(-640.26 -144.624)"/>
      <path id="Path_24726" data-name="Path 24726" d="M846.257,183.825c-.027.392-.037.774-.037,1.166v2.946a3.025,3.025,0,0,1-.666,2.252,2.29,2.29,0,0,1-1.621.593,2.5,2.5,0,0,1-1.54-.473l.163-.392a2.356,2.356,0,0,0,1.45.463c1.036,0,1.774-.583,1.774-2.051v-.7h-.018a1.86,1.86,0,0,1-1.721,1.025,2.209,2.209,0,0,1-2.062-2.353,2.353,2.353,0,0,1,2.162-2.594,1.724,1.724,0,0,1,1.665,1.016h.018l.027-.895Zm-.477,1.94a1.72,1.72,0,0,0-.063-.5,1.6,1.6,0,0,0-1.531-1.156c-1.037,0-1.766.844-1.766,2.131a1.821,1.821,0,0,0,1.748,2.011,1.67,1.67,0,0,0,1.522-1.157,1.6,1.6,0,0,0,.09-.522Z" transform="translate(-662.861 -144.624)"/>
      <path id="Path_24727" data-name="Path 24727" d="M278.336,227.352l-.639,2.007h-2l2.69-7.538h2.549l2.818,7.538h-2.1l-.71-2.007Zm2.288-1.314-.578-1.61c-.159-.442-.313-.942-.452-1.364h-.024c-.129.424-.251.927-.395,1.366l-.543,1.608Z" transform="translate(-217.045 -174.631)"/>
      <path id="Path_24728" data-name="Path 24728" d="M324.505,224.045v1.59h1.362v1.327h-1.362v1.811c0,.669.14,1.022.759,1.022a2.6,2.6,0,0,0,.582-.056l.015,1.343a4.141,4.141,0,0,1-1.251.163,2.066,2.066,0,0,1-1.448-.517,2.24,2.24,0,0,1-.5-1.641v-2.123h-.805v-1.327h.805v-1.193Z" transform="translate(-253.384 -176.383)"/>
      <path id="Path_24729" data-name="Path 24729" d="M369.881,229.359V226.2l-2.8-4.379H369.3l.908,1.819c.278.56.464.91.687,1.392h.024c.206-.446.42-.852.682-1.383l.923-1.828h2.193l-2.939,4.322v3.217Z" transform="translate(-288.992 -174.631)"/>
      <path id="Path_24730" data-name="Path 24730" d="M412.011,233.7c0,1.907-1.568,2.939-3.361,2.939s-3.277-1.06-3.277-2.824c0-1.7,1.291-2.919,3.407-2.919,1.922,0,3.231,1.175,3.231,2.8m-4.661.072c0,.934.508,1.617,1.354,1.617.775,0,1.329-.579,1.329-1.629,0-.824-.4-1.614-1.319-1.614-.964,0-1.364.8-1.364,1.626" transform="translate(-319.136 -181.772)"/>
      <path id="Path_24731" data-name="Path 24731" d="M455.247,235.215c0,.754.022,1.346.048,1.783h-1.65l-.083-.838h-.043a2.237,2.237,0,0,1-1.977.972,2.107,2.107,0,0,1-2.216-2.424v-3.185h1.9v2.87c0,.829.315,1.314,1.025,1.314a1.1,1.1,0,0,0,1.034-.674.8.8,0,0,0,.059-.327v-3.184h1.9Z" transform="translate(-353.739 -182.27)"/>
      <path id="Path_24732" data-name="Path 24732" d="M491.561,232.883c0-.891-.012-1.4-.047-1.857h1.628l.062,1.084h.046a1.824,1.824,0,0,1,1.717-1.218,1.68,1.68,0,0,1,.406.034v1.649a2.585,2.585,0,0,0-.542-.057,1.214,1.214,0,0,0-1.345.893,2.032,2.032,0,0,0-.022.323V236.5h-1.9Z" transform="translate(-386.951 -181.772)"/>
      <path id="Path_24733" data-name="Path 24733" d="M541.276,221.82h5.384v1.438h-3.482v1.659h3.254v1.437h-3.254v3h-1.9Z" transform="translate(-426.128 -174.631)"/>
      <path id="Path_24734" data-name="Path 24734" d="M580.773,221.048a.913.913,0,0,1-1.028.869.88.88,0,1,1,1.028-.869m-1.971,1.544h1.9v5.474h-1.9Z" transform="translate(-455.624 -173.339)"/>
      <path id="Path_24735" data-name="Path 24735" d="M602.347,232.809c0-.71-.022-1.3-.048-1.783h1.65l.086.8h.043a2.3,2.3,0,0,1,1.935-.935,2.173,2.173,0,0,1,2.269,2.458v3.15h-1.9v-2.9c0-.787-.32-1.283-1.04-1.283a1.1,1.1,0,0,0-1.032.693,1.031,1.031,0,0,0-.058.393v3.1h-1.9Z" transform="translate(-474.169 -181.773)"/>
      <path id="Path_24736" data-name="Path 24736" d="M649.533,231.026c-.027.3-.048.729-.048,1.6v3.022a3.1,3.1,0,0,1-.948,2.532,4.018,4.018,0,0,1-2.524.7,5.245,5.245,0,0,1-2.313-.473l.383-1.345a4.142,4.142,0,0,0,1.883.47c.883,0,1.655-.411,1.655-1.479v-.36H647.6a2.18,2.18,0,0,1-1.752.761,2.57,2.57,0,0,1-2.686-2.67,2.807,2.807,0,0,1,2.873-2.885,2,2,0,0,1,1.775.821h.024l.055-.687Zm-1.95,2.308a1.209,1.209,0,0,0-.027-.286,1.114,1.114,0,0,0-1.135-.854,1.364,1.364,0,0,0-1.322,1.542,1.326,1.326,0,0,0,1.327,1.425,1.135,1.135,0,0,0,1.113-.783,2.011,2.011,0,0,0,.045-.459Z" transform="translate(-506.337 -181.772)"/>
      <path id="Path_24737" data-name="Path 24737" d="M687.484,234.319c.067.657.884,1,1.783,1a5.7,5.7,0,0,0,1.772-.248l.258,1.186a6.389,6.389,0,0,1-2.287.378c-2.107,0-3.331-1.112-3.331-2.817a2.943,2.943,0,0,1,3.147-2.926,2.626,2.626,0,0,1,2.814,2.783,2.759,2.759,0,0,1-.071.644Zm2.38-1.212a1.052,1.052,0,0,0-1.138-1.062,1.228,1.228,0,0,0-1.261,1.062Z" transform="translate(-539.811 -181.773)"/>
      <path id="Path_24738" data-name="Path 24738" d="M726.09,232.883c0-.891-.012-1.4-.047-1.857h1.628l.062,1.084h.046a1.824,1.824,0,0,1,1.716-1.218,1.671,1.671,0,0,1,.406.034v1.649a2.574,2.574,0,0,0-.541-.057,1.214,1.214,0,0,0-1.345.893,2.039,2.039,0,0,0-.022.323V236.5h-1.9Z" transform="translate(-571.589 -181.772)"/>
      <path id="Path_24739" data-name="Path 24739" d="M757.611,224.045v1.59h1.362v1.327h-1.362v1.811c0,.669.14,1.022.759,1.022a2.6,2.6,0,0,0,.582-.056l.015,1.343a4.135,4.135,0,0,1-1.25.163,2.068,2.068,0,0,1-1.448-.517,2.243,2.243,0,0,1-.5-1.641v-2.123h-.8v-1.327h.8v-1.193Z" transform="translate(-594.354 -176.383)"/>
      <path id="Path_24740" data-name="Path 24740" d="M788.207,221.048a.913.913,0,0,1-1.028.869.88.88,0,1,1,1.028-.869m-1.97,1.544h1.9v5.474h-1.9Z" transform="translate(-618.931 -173.339)"/>
      <path id="Path_24741" data-name="Path 24741" d="M809.782,232.9c0-.741-.022-1.364-.048-1.875h1.652l.085.81h.024a2.746,2.746,0,0,1,4.819,1.833,2.828,2.828,0,0,1-2.909,2.965,2.1,2.1,0,0,1-1.7-.655h-.023v2.758h-1.9Zm1.9,1.141a1.9,1.9,0,0,0,.022.319,1.268,1.268,0,0,0,1.247.935,1.525,1.525,0,0,0,.033-3.04,1.3,1.3,0,0,0-1.271.991,1.324,1.324,0,0,0-.032.276Z" transform="translate(-637.475 -181.772)"/>
      <path id="Path_24742" data-name="Path 24742" d="M852.234,234.962a4.162,4.162,0,0,0,1.723.447c.6,0,.833-.175.833-.44,0-.282-.19-.408-.915-.6-1.3-.331-1.833-.967-1.824-1.657,0-1.043.983-1.823,2.525-1.823a4.537,4.537,0,0,1,1.8.34l-.331,1.206a3.646,3.646,0,0,0-1.415-.338c-.459,0-.735.148-.735.433,0,.269.263.406,1.036.613,1.191.318,1.7.84,1.714,1.7,0,.988-.849,1.79-2.677,1.79a5.031,5.031,0,0,1-2.079-.409Z" transform="translate(-670.661 -181.773)"/>
    </g>
  </g>
</svg>
